<?xml  version="1.0" encoding="UTF-8"?>
<!DOCTYPE svg PUBLIC "-//W3C//DTD SVG 1.0//EN" "http://www.w3.org/TR/2001/REC-SVG-20010904/DTD/svg10.dtd" >
<svg xmlns="http://www.w3.org/2000/svg" >
<metadata>
<version>1.0</version>
<id><![CDATA[Helvetica Neue W01 57 Cn]]></id>
<vendor>Monotype Imaging Inc.</vendor>
<credits>
<name>Fonts.com WebFonts</name>
<URL>http://webfonts.fonts.com</URL>
<role>Home of the Web fonts</role>
</credits>
<license>
<URL>http://webfonts.fonts.com/Legal</URL>
</license>
<copyright><![CDATA[Part of the digitally encoded machine readable outline data for producing the Typefaces provided is copyrighted © 1981 - 2008 Linotype GmbH, www.linotype.com. All rights reserved. This software is the property of Linotype GmbH, and may not be reproduced, used, displayed, modified, disclosed or transferred without the express written approval of Linotype GmbH.  The digitally encoded machine readable software for producing the Typefaces licensed to you is copyrighted (c) 1990 Adobe Systems. All Rights Reserved. This software is the property of Adobe Systems Incorporated and its licensors, and may not be reproduced, used, displayed, modified, disclosed or transferred without the express written approval of Adobe. Helvetica is a trademark of Linotype GmbH registered in the U.S. Patent and Trademark Office and may be registered in certain other jurisdictions. This typeface is original artwork of Linotype Design Studio. The design may be protected in certain jurisdictions.]]></copyright>
<trademark><![CDATA[Helvetica is a trademark of Linotype GmbH registered in the U.S. Patent and Trademark Office and may be registered in certain other jurisdictions.]]></trademark>
<licensee>
<name></name>
</licensee>
</metadata>
<defs >
<font horiz-adv-x="444" id="6cd480d1-47d0-48b4-86bd-283db2cb9235">
<font-face font-family="" panose-1="2 11 5 6 3 5 2 2 2 4" ascent="932" descent="-212" units-per-em="1000" alphabetic="0">
</font-face>
<missing-glyph horiz-adv-x="240" />

<glyph unicode="&#xA;" />
<glyph unicode="&#xD;" />
<glyph unicode=" " horiz-adv-x="240" />
<glyph unicode="!" horiz-adv-x="258" d="M83 96H175V0H83V96ZM83 714H175L159 186H99L83 714Z"  />
<glyph unicode="&quot;" horiz-adv-x="407" d="M254 714H320V460H254V714ZM87 714H153V460H87V714Z"  />
<glyph unicode="#" horiz-adv-x="480" d="M179 271H285L304 425H198L179 271ZM105 205H23V271H113L132 425H45V491H141L166 694H232L207 491H313L338 694H404L379 491H457V425H370L351 271H434V205H343L317 0H251L277 205H171L145 0H79L105 205Z"  />
<glyph unicode="$" horiz-adv-x="480" d="M217 766H259V708Q352 703 394 655T439 514H351Q351 538 347 559T331 597T303 623T259 636V391Q293 379 329 367T393 335T440 281T459 193Q459 137 441 99T395 36T331 0T259 -14V-108H217V-14Q160 -12 123 4T63 50T31 122T21 218H109Q109 191 111 164T123 115T156 78T217 58V320Q183 331 150 343T90 377T47 432T30 516Q30 540 36 571T63 632T120 682T217 708V766ZM217 636Q171 630 147 602T122 525Q122 474 148 448T217 405V636ZM259 58Q307 62 337 94T367 179Q367 207 359 227T336 262T301 287T259 306V58Z"  />
<glyph unicode="%" horiz-adv-x="759" d="M582 -14Q537 -14 511 2T472 44T455 105T451 178Q451 215 454 250T471 311T511 354T582 370Q627 370 653 354T692 312T709 250T713 178Q713 140 710 106T693 45T653 2T582 -14ZM177 324Q132 324 106 340T67 382T50 443T46 516Q46 553 49 588T66 649T106 692T177 708Q222 708 248 692T287 650T304 588T308 516Q308 478 305 444T288 383T248 340T177 324ZM582 40Q603 40 615 50T632 78T639 121T641 178Q641 209 640 234T633 278T615 306T582 316Q561 316 549 306T532 278T525 235T523 178Q523 147 524 122T531 78T549 50T582 40ZM496 708H566L256 -14H186L496 708ZM177 378Q198 378 210 388T227 416T234 459T236 516Q236 547 235 572T228 616T210 644T177 654Q156 654 144 644T127 616T120 573T118 516Q118 485 119 460T126 416T144 388T177 378Z"  />
<glyph unicode="&amp;" horiz-adv-x="556" d="M416 198Q427 225 433 257T444 337H522Q522 317 517 287T503 226T485 169T464 129L556 0H461L413 67Q372 27 334 7T237 -14Q172 -14 131 8T66 61T34 126T25 184Q25 241 51 288T122 369L174 408L152 444Q132 474 116 505T100 574Q100 605 111 631T143 675T191 704T248 714Q317 714 358 683T399 578Q399 552 391 530T369 489T337 454T301 422L275 400L416 198ZM215 354Q172 328 143 288T113 191Q113 158 123 134T152 92T194 67T244 58Q286 58 316 78T372 127L215 354ZM257 471Q281 494 301 518T321 578Q321 609 301 628T249 648Q217 648 198 629T178 578Q178 554 191 528T221 477L238 453L257 471Z"  />
<glyph unicode="&apos;" horiz-adv-x="240" d="M87 714H153V460H87V714Z"  />
<glyph unicode="(" horiz-adv-x="241" d="M237 714Q176 614 152 499T127 265Q127 143 154 34T237 -184H189Q117 -87 80 29T43 265Q43 386 80 500T189 714H237Z"  />
<glyph unicode=")" horiz-adv-x="241" d="M4 -184Q65 -84 89 31T114 265Q114 387 87 496T4 714H52Q124 617 161 501T198 265Q198 144 161 30T52 -184H4Z"  />
<glyph unicode="*" horiz-adv-x="352" d="M146 714H206V595L313 636L335 578L222 544L298 450L248 413L176 515L104 413L54 450L130 544L17 578L39 636L146 595V714Z"  />
<glyph unicode="+" horiz-adv-x="600" d="M267 220H47V286H267V506H333V286H553V220H333V0H267V220Z"  />
<glyph unicode="&#x2c;" horiz-adv-x="240" d="M74 106H166V19Q166 -10 164 -36T152 -84T125 -122T74 -148V-101Q100 -88 109 -71T118 -24V0H74V106Z"  />
<glyph unicode="-" horiz-adv-x="352" d="M54 323H298V245H54V323Z"  />
<glyph unicode="." horiz-adv-x="240" d="M74 106H166V0H74V106Z"  />
<glyph unicode="/" horiz-adv-x="278" d="M222 728H288L56 -14H-10L222 728Z"  />
<glyph unicode="0" horiz-adv-x="480" d="M126 344Q126 288 128 236T142 142T176 77T240 52Q280 52 303 76T337 142T351 235T354 344Q354 402 352 456T338 551T303 617T240 642Q199 642 177 618T143 552T129 456T126 344ZM240 -14Q168 -14 128 18T67 102T43 217T38 344Q38 383 39 425T47 507T67 584T102 648T158 692T240 708Q312 708 352 676T413 591T437 474T442 344Q442 307 441 266T433 185T413 109T378 46T322 2T240 -14Z"  />
<glyph unicode="1" horiz-adv-x="480" d="M67 592Q100 594 131 598T186 614T225 648T242 708H302V0H218V532H67V592Z"  />
<glyph unicode="2" horiz-adv-x="480" d="M438 0H42Q42 49 55 91T89 169T137 234T195 290L253 339Q274 357 291 375T321 413T340 456T347 509Q347 531 342 554T324 595T292 624T244 636Q203 636 181 618T147 575T134 524T132 483H44Q44 533 55 574T90 645T152 691T245 708Q306 708 343 687T401 637T428 575T435 519Q435 479 427 447T403 388T364 336T311 286L211 199Q182 174 162 144T134 78H438V0Z"  />
<glyph unicode="3" horiz-adv-x="480" d="M180 399H224Q280 399 306 435T332 524Q332 548 327 569T312 607T283 632T240 642Q205 642 185 628T155 592T141 547T138 504H50Q50 549 61 586T95 651T153 693T238 708Q293 708 328 691T384 646T412 587T420 524Q420 470 394 428T310 372V370Q370 358 405 319T441 205Q441 157 429 117T392 47T329 2T240 -14Q192 -14 159 -2T104 30T68 72T49 118T41 157T39 183V192H127Q127 168 133 143T153 98T188 65T240 52Q259 52 279 58T316 80T342 124T353 198Q353 261 322 297T225 333H180V399Z"  />
<glyph unicode="4" horiz-adv-x="480" d="M286 708H370V243H450V171H370V0H286V171H30V250L286 708ZM106 243H286V570H284L106 243Z"  />
<glyph unicode="5" horiz-adv-x="480" d="M97 694H413V616H164L136 411L138 409Q160 435 193 448T262 462Q343 462 391 402T440 229Q440 179 429 135T393 58T329 6T234 -14Q171 -14 133 8T74 62T47 127T40 182H128Q128 168 131 146T146 103T179 67T236 52Q273 52 296 70T331 117T348 177T352 236Q352 265 346 294T327 345T290 382T234 396Q211 396 193 388T161 368T141 345T134 327L58 331L97 694Z"  />
<glyph unicode="6" horiz-adv-x="480" d="M133 216Q133 188 138 159T156 106T190 67T245 52Q278 52 299 67T334 106T352 159T357 216Q357 244 353 273T336 326T302 365T245 380Q210 380 188 365T154 326T138 273T133 216ZM341 538Q341 583 317 612T248 642Q219 642 198 629T164 595T142 549T130 501T124 458T123 429V373H125Q130 383 141 396T168 422T208 443T260 452Q306 452 340 436T398 390T433 319T445 228Q445 177 433 133T395 56T332 5T245 -14Q196 -14 162 0T104 40T67 99T46 169T37 246T35 322Q35 362 36 406T45 494T65 576T103 644T163 690T250 708Q311 708 347 686T401 636T424 579T429 538H341Z"  />
<glyph unicode="7" horiz-adv-x="480" d="M38 694H442V621Q413 583 375 521T303 378Q269 296 243 203T206 0H108Q128 164 194 322Q258 479 362 616H38V694Z"  />
<glyph unicode="8" horiz-adv-x="480" d="M125 198Q125 166 131 140T152 94T187 63T240 52Q301 52 328 93T355 198Q355 261 328 302T240 344Q209 344 188 333T152 303T132 256T125 198ZM240 642Q191 642 169 610T147 526Q147 475 169 443T240 410Q288 410 310 442T333 526Q333 577 311 609T240 642ZM37 195Q37 336 162 377Q108 399 84 435T59 528Q59 615 107 661T240 708Q325 708 373 662T421 528Q421 471 397 435T318 377Q443 336 443 195Q443 160 434 123T401 56T339 6T240 -14Q180 -14 141 5T79 55T47 123T37 195Z"  />
<glyph unicode="9" horiz-adv-x="480" d="M347 478Q347 506 342 535T324 588T290 627T235 642Q202 642 181 627T146 588T128 535T123 478Q123 450 127 421T144 368T178 329T235 314Q270 314 292 329T326 368T342 421T347 478ZM139 156Q139 111 163 82T232 52Q261 52 282 65T316 99T338 145T350 193T356 236T357 265V321H355Q350 311 339 298T312 272T272 251T220 242Q174 242 140 258T82 304T47 375T35 466Q35 517 47 561T85 638T148 689T235 708Q284 708 318 693T376 653T413 595T434 524T443 448T445 372Q445 332 444 288T435 200T415 118T377 50T317 4T230 -14Q168 -14 133 8T79 58T56 115T51 156H139Z"  />
<glyph unicode=":" horiz-adv-x="240" d="M74 106H166V0H74V106ZM74 506H166V400H74V506Z"  />
<glyph unicode=";" horiz-adv-x="240" d="M74 506H166V400H74V506ZM74 106H166V19Q166 -10 164 -36T152 -84T125 -122T74 -148V-101Q100 -88 109 -71T118 -24V0H74V106Z"  />
<glyph unicode="&lt;" horiz-adv-x="600" d="M47 283L553 514V448L125 253L553 58V-8L47 223V283Z"  />
<glyph unicode="=" horiz-adv-x="600" d="M47 184H553V118H47V184ZM47 388H553V322H47V388Z"  />
<glyph unicode="&gt;" horiz-adv-x="600" d="M47 58L475 253L47 448V514L553 283V223L47 -8V58Z"  />
<glyph unicode="?" d="M165 96H257V0H165V96ZM35 504Q35 548 46 587T79 657T137 704T221 722Q266 722 301 708T360 668T396 609T409 534Q409 496 396 459T359 393Q355 388 344 375T319 348T295 322T281 305Q262 281 256 255T249 205V186H171Q171 216 173 249T190 309Q199 325 212 343T240 378T268 410T291 437Q308 460 314 482T321 539Q321 561 315 581T297 616T267 641T224 650Q188 650 167 634T136 596T122 548T119 504H35Z"  />
<glyph unicode="@" horiz-adv-x="800" d="M546 550H602L518 268Q514 255 512 245T509 223Q509 212 516 205T538 197Q572 197 602 215T655 264T691 334T705 415Q705 472 682 518T617 598T520 649T400 668Q335 668 280 644T183 578T119 480T95 357Q95 290 118 233T183 135T279 70T400 46Q587 46 671 157H734Q686 72 602 29T400 -14Q323 -14 256 15T138 94T58 212T29 357Q29 434 58 501T137 619T255 699T400 728Q481 728 549 705T666 641T743 543T771 419Q771 354 748 302T687 213T603 157T513 137Q483 137 465 151T443 196H441Q418 172 389 155T316 137Q289 137 263 148T218 178T186 226T174 287Q174 339 190 389T238 480T312 544T408 569Q445 569 475 551T522 487H524L546 550ZM240 293Q240 251 266 224T334 197Q369 197 397 219T446 274T478 343T489 409Q489 425 484 443T468 475T442 499T408 509Q372 509 341 489T288 436T253 366T240 293Z"  />
<glyph unicode="A" horiz-adv-x="500" d="M155 268H347L256 613H254L155 268ZM198 714H316L508 0H416L365 196H137L84 0H-8L198 714Z"  />
<glyph unicode="B" horiz-adv-x="519" d="M146 406H247Q261 406 281 409T321 424T354 460T368 525Q368 582 340 612T245 642H146V406ZM58 714H277Q312 714 345 705T403 675T444 618T460 531Q460 507 453 483T433 439T400 404T356 382V380Q422 364 452 317T483 204Q483 95 424 48T252 0H58V714ZM146 72H266Q301 72 325 83T363 112T384 154T391 204Q391 241 380 266T350 308T306 332T251 340H146V72Z"  />
<glyph unicode="C" horiz-adv-x="519" d="M495 245Q492 194 480 148T442 65T377 8T278 -14Q202 -14 157 18T87 104T56 223T48 357Q48 424 56 490T89 610T159 695T278 728Q387 728 436 670T489 506H397Q396 536 390 563T371 611T335 644T278 656Q232 656 205 633T164 569T145 474T140 357Q140 295 144 241T163 146T205 82T278 58Q318 58 342 75T379 119T397 179T403 245H495Z"  />
<glyph unicode="D" horiz-adv-x="556" d="M67 714H258Q341 714 390 686T466 610T500 496T508 357Q508 289 498 225T461 111T387 31T267 0H67V714ZM155 72H247Q304 72 337 98T388 166T411 257T416 356Q416 408 412 459T392 550T341 616T247 642H155V72Z"  />
<glyph unicode="E" horiz-adv-x="463" d="M58 714H427V636H146V412H411V334H146V78H439V0H58V714Z"  />
<glyph unicode="F" d="M58 714H427V636H146V412H411V334H146V0H58V714Z"  />
<glyph unicode="G" horiz-adv-x="537" d="M397 516Q395 544 389 569T369 614T333 644T278 656Q232 656 205 633T164 569T145 474T140 357Q140 295 144 241T163 146T205 82T278 58Q324 58 350 82T389 143T405 221T409 299H268V371H489V0H423V97H421Q407 51 367 19T267 -14Q197 -14 154 17T88 99T56 218T48 357Q48 424 56 490T89 610T159 695T278 728Q329 728 364 715T423 682T460 636T479 588T487 545T489 516H397Z"  />
<glyph unicode="H" horiz-adv-x="537" d="M479 0H391V344H146V0H58V714H146V422H391V714H479V0Z"  />
<glyph unicode="I" horiz-adv-x="204" d="M58 714H146V0H58V714Z"  />
<glyph unicode="J" horiz-adv-x="426" d="M368 205Q368 157 361 117T334 48T279 3T189 -14Q144 -14 113 -1T61 35T32 87T22 149V208H106V156Q106 111 124 85T188 58Q218 58 236 67T264 96T277 143T280 208V714H368V205Z"  />
<glyph unicode="K" horiz-adv-x="500" d="M58 714H146V368H148L395 714H493L277 416L511 0H413L220 344L146 243V0H58V714Z"  />
<glyph unicode="L" d="M58 714H146V78H436V0H58V714Z"  />
<glyph unicode="M" horiz-adv-x="704" d="M60 714H208L351 148H353L496 714H644V0H556V624H554L396 0H308L150 624H148V0H60V714Z"  />
<glyph unicode="N" horiz-adv-x="556" d="M58 714H145H172L408 118H410V714H498V0H411H377L148 578H146V0H58V714Z"  />
<glyph unicode="O" horiz-adv-x="556" d="M278 656Q232 656 205 633T164 569T145 474T140 357Q140 295 144 241T163 146T205 82T278 58Q324 58 351 81T392 145T411 240T416 357Q416 419 412 473T393 568T351 632T278 656ZM278 728Q352 728 397 696T467 610T500 491T508 357Q508 289 500 223T467 104T397 19T278 -14Q204 -14 159 18T89 104T56 223T48 357Q48 424 56 490T89 610T159 695T278 728Z"  />
<glyph unicode="P" horiz-adv-x="481" d="M146 374H251Q299 374 334 408T369 513Q369 573 340 607T245 642H146V374ZM58 714H240Q255 714 277 713T324 707T373 689T417 653T449 595T461 509Q461 459 446 421T404 356T338 316T255 302H146V0H58V714Z"  />
<glyph unicode="Q" horiz-adv-x="556" d="M274 137L323 191L389 131Q406 173 411 230T416 357Q416 419 412 473T393 568T351 632T278 656Q232 656 205 633T164 569T145 474T140 357Q140 295 144 241T163 146T205 82T278 58Q317 58 343 75L274 137ZM401 22Q378 5 347 -4T278 -14Q204 -14 159 18T89 104T56 223T48 357Q48 424 56 490T89 610T159 695T278 728Q352 728 397 696T467 610T500 491T508 357Q508 319 506 280T497 205T480 135T450 75L522 9L473 -43L401 22Z"  />
<glyph unicode="R" horiz-adv-x="519" d="M146 390H233Q252 390 277 392T326 407T364 448T380 528Q380 582 347 612T251 642H146V390ZM58 714H289Q374 714 423 667T472 535Q472 506 467 477T448 424T414 381T362 355V353Q409 348 434 314T463 234L469 112Q470 82 473 63T481 32T492 12T507 0H401Q395 6 391 18T384 44T380 74T377 103L371 214Q368 251 358 271T332 302T300 315T265 318H146V0H58V714Z"  />
<glyph unicode="S" horiz-adv-x="500" d="M361 529Q361 557 356 580T337 620T303 646T250 656Q193 656 163 627T132 540Q132 490 157 463T219 420T300 392T381 358T444 300T469 198Q469 136 449 95T396 30T325 -4T247 -14Q184 -14 143 2T77 48T42 122T31 224H119Q119 194 122 165T138 111T178 73T253 58Q279 58 302 67T341 92T367 132T377 184Q377 222 363 246T325 286T271 313T209 335T147 359T93 394T55 449T40 531Q40 556 47 589T76 654T140 706T249 728Q352 728 399 679T449 529H361Z"  />
<glyph unicode="T" horiz-adv-x="463" d="M275 0H187V636H8V714H455V636H275V0Z"  />
<glyph unicode="U" horiz-adv-x="519" d="M50 714H138V212Q138 133 165 96T259 58Q329 58 355 97T381 212V714H469V212Q469 109 417 48T259 -14Q150 -14 100 43T50 212V714Z"  />
<glyph unicode="V" horiz-adv-x="462" d="M-2 714H90L230 101H232L372 714H464L284 0H172L-2 714Z"  />
<glyph unicode="W" horiz-adv-x="722" d="M8 714H96L205 130H207L308 714H414L515 130H517L626 714H714L567 0H460L362 578H360L257 0H150L8 714Z"  />
<glyph unicode="X" horiz-adv-x="481" d="M16 714H114L244 447L375 714H467L289 363L479 0H381L239 286L94 0H2L192 363L16 714Z"  />
<glyph unicode="Y" horiz-adv-x="462" d="M-2 714H95L231 380L372 714H464L275 280V0H187V280L-2 714Z"  />
<glyph unicode="Z" horiz-adv-x="463" d="M23 74L344 636H41V714H436V633L115 78H440V0H23V74Z"  />
<glyph unicode="[" horiz-adv-x="259" d="M78 714H257V648H156V-118H257V-184H78V714Z"  />
<glyph unicode="\" horiz-adv-x="278" d="M-10 728H56L288 -14H222L-10 728Z"  />
<glyph unicode="]" horiz-adv-x="259" d="M181 -184H2V-118H103V648H2V714H181V-184Z"  />
<glyph unicode="^" horiz-adv-x="600" d="M276 694H324L553 261H487L300 622L113 261H47L276 694Z"  />
<glyph unicode="_" horiz-adv-x="500" d="M0 -75H500V-125H0V-75Z"  />
<glyph unicode="`" horiz-adv-x="204" d="M82 751L152 609H92L-16 751H82Z"  />
<glyph unicode="a" d="M301 292Q289 280 271 272T232 258T192 245T158 229Q138 216 128 198T117 144Q117 102 133 77T193 52Q214 52 233 60T268 82T292 114T301 154V292ZM42 374Q42 465 84 507T222 550Q283 550 316 534T364 494T382 444T385 396V97Q385 80 388 67T411 54Q419 54 423 55T431 59V-1Q426 -2 412 -4T382 -6Q370 -6 358 -5T334 2T315 23T306 63H304Q284 27 249 7T175 -14Q100 -14 65 28T29 142Q29 199 53 236T130 290L243 324Q266 331 278 338T296 355T303 376T304 405Q304 484 218 484Q183 484 165 471T138 439T128 404T126 379V374H42Z"  />
<glyph unicode="b" horiz-adv-x="463" d="M55 714H139V475H141Q155 510 189 530T265 550Q319 550 351 522T401 451T423 360T428 268Q428 211 418 160T387 71T333 9T253 -14Q231 -14 212 -7T178 11T152 36T137 66H135V0H55V714ZM134 268Q134 227 138 189T154 122T187 76T242 58Q271 58 290 73T320 117T335 183T340 268Q340 316 336 355T320 421T290 463T242 478Q208 478 187 460T154 412T138 345T134 268Z"  />
<glyph unicode="c" horiz-adv-x="426" d="M310 373Q310 392 306 412T292 448T266 474T225 484Q205 484 187 477T153 447T129 379T120 262Q120 236 121 200T133 131T163 75T222 52Q249 52 266 65T293 97T306 140T310 186H394Q394 154 386 119T357 55T302 6T218 -14Q119 -14 76 54T32 261Q32 311 38 362T65 455T123 523T223 550Q278 550 311 531T363 485T388 427T394 373H310Z"  />
<glyph unicode="d" horiz-adv-x="463" d="M408 0H328V66H326Q322 51 312 37T286 11T251 -7T210 -14Q162 -14 129 6T75 64T45 153T35 268Q35 310 40 359T62 451T113 521T204 550Q240 550 274 530T322 475H324V714H408V0ZM123 268Q123 220 127 181T143 115T173 73T221 58Q255 58 276 73T309 117T325 183T329 268Q329 307 325 344T309 412T276 460T221 478Q192 478 173 463T143 421T128 355T123 268Z"  />
<glyph unicode="e" d="M125 258Q125 227 126 191T138 124T168 73T228 52Q258 52 276 65T303 98T316 139T319 176H403Q403 155 396 123T368 60T313 8T223 -14Q124 -14 81 54T37 261Q37 311 43 362T70 455T128 523T228 550Q289 550 325 526T379 465T402 381T407 292V258H125ZM319 324V353Q319 375 315 398T301 441T272 472T226 484Q193 484 174 467T144 426T131 380T128 344V324H319Z"  />
<glyph unicode="f" horiz-adv-x="259" d="M80 470H2V536H80V599Q80 660 107 691T196 722H257V650H218Q191 650 178 639T164 599V536H256V470H164V0H80V470Z"  />
<glyph unicode="g" horiz-adv-x="463" d="M408 34Q408 -26 395 -67T357 -135T300 -172T226 -184Q214 -184 187 -182T131 -168T79 -128T50 -50H134Q137 -87 162 -102T220 -118Q260 -118 281 -105T312 -72T323 -33T324 2V72H322Q308 38 275 19T201 0Q162 0 135 15T89 54T60 107T44 167T37 223T35 268Q35 322 43 373T71 463T125 526T210 550Q232 550 251 543T286 525T311 499T326 468H328V536H408V34ZM221 478Q192 478 173 463T143 421T128 355T123 268Q123 235 126 201T140 138T169 91T220 72Q254 72 275 87T309 128T325 191T329 268Q329 307 325 344T309 412T276 460T221 478Z"  />
<glyph unicode="h" horiz-adv-x="463" d="M55 714H139V475H141Q149 491 163 505T195 529T232 544T270 550Q322 550 350 533T391 489T406 434T408 380V0H324V370Q324 385 323 404T313 439T289 467T245 478Q228 478 210 472T175 453T149 420T139 370V0H55V714Z"  />
<glyph unicode="i" horiz-adv-x="204" d="M60 714H144V618H60V714ZM60 536H144V0H60V536Z"  />
<glyph unicode="j" horiz-adv-x="204" d="M144 618H60V714H144V618ZM144 -52Q144 -118 115 -151T16 -184Q6 -184 -3 -183T-23 -181V-109Q-15 -110 -8 -111T8 -112Q27 -112 38 -105T53 -86T59 -58T60 -22V536H144V-52Z"  />
<glyph unicode="k" d="M455 0H357L208 265L139 181V0H55V714H139V289H141L329 536H427L264 334L455 0Z"  />
<glyph unicode="l" horiz-adv-x="204" d="M60 714H144V0H60V714Z"  />
<glyph unicode="m" horiz-adv-x="722" d="M63 536H143V473H145Q162 510 199 530T275 550Q323 550 350 531T391 465Q409 500 442 525T518 550Q571 550 599 533T641 489T657 434T659 380V0H575V370Q575 385 574 404T565 439T544 467T503 478Q488 478 471 473T438 456T413 422T403 370V0H319V370Q319 385 318 404T309 439T288 467T247 478Q232 478 215 473T182 456T157 422T147 370V0H63V536Z"  />
<glyph unicode="n" horiz-adv-x="463" d="M55 536H135V473H137Q154 510 191 530T267 550Q320 550 348 533T390 489T406 434T408 380V0H324V370Q324 385 323 404T313 439T289 467T245 478Q228 478 210 472T175 453T149 420T139 370V0H55V536Z"  />
<glyph unicode="o" d="M29 268Q29 325 37 376T67 465T126 527T222 550Q280 550 317 527T376 466T406 376T415 268Q415 211 407 160T376 71T317 9T222 -14Q164 -14 127 9T68 70T38 160T29 268ZM220 52Q253 52 274 69T307 116T323 185T327 268Q327 311 323 350T308 419T275 466T220 484Q188 484 168 467T137 420T121 351T117 268Q117 224 121 185T136 117T167 70T220 52Z"  />
<glyph unicode="p" horiz-adv-x="463" d="M55 536H135V470H137Q141 485 151 499T177 525T212 543T253 550Q301 550 334 530T388 474T418 388T428 278Q428 232 420 181T393 87T339 15T253 -14Q217 -14 186 6T141 61H139V-176H55V536ZM134 268Q134 229 138 192T154 124T187 76T242 58Q271 58 290 73T320 116T335 185T340 278Q340 322 336 359T320 422T290 463T242 478Q207 478 186 463T154 419T138 353T134 268Z"  />
<glyph unicode="q" horiz-adv-x="463" d="M329 268Q329 314 325 352T310 419T277 462T221 478Q192 478 173 464T143 423T128 359T123 278Q123 226 127 186T143 117T173 73T221 58Q255 58 276 76T309 124T325 191T329 268ZM324 61H322Q308 26 277 6T210 -14Q158 -14 124 11T71 77T43 170T35 278Q35 338 44 388T75 474T129 530T210 550Q232 550 251 543T285 525T311 500T326 470H328V536H408V-176H324V61Z"  />
<glyph unicode="r" horiz-adv-x="296" d="M55 536H139V456H141Q150 475 160 492T185 522T216 542T257 550Q282 550 294 544V462Q288 463 279 464T249 466Q233 466 214 459T179 436T151 396T139 339V0H55V536Z"  />
<glyph unicode="s" horiz-adv-x="407" d="M285 379Q285 430 269 457T206 484Q196 484 181 482T153 471T129 447T119 402Q119 378 130 363T160 338T202 320T251 305Q275 297 298 288T340 262T370 220T382 154Q382 112 369 81T333 28T278 -3T209 -14Q141 -14 104 8T49 60T28 123T25 176H109Q109 152 113 130T128 90T158 62T209 52Q219 52 234 55T263 68T288 95T298 141Q298 168 287 185T257 214T215 234T167 250Q143 258 119 267T77 293T47 335T35 402Q35 439 48 467T85 513T140 541T206 550Q264 550 297 532T346 488T365 433T369 379H285Z"  />
<glyph unicode="t" horiz-adv-x="259" d="M80 692H164V536H257V470H164V126Q164 94 175 80T219 66Q233 66 241 67T256 69V0Q248 -2 231 -4T188 -6Q155 -6 134 0T101 20T85 54T80 100V470H2V536H80V692Z"  />
<glyph unicode="u" horiz-adv-x="463" d="M408 0H328V63H326Q309 26 272 6T196 -14Q143 -14 115 3T73 47T57 102T55 156V536H139V166Q139 151 140 132T150 97T173 69T218 58Q235 58 253 64T288 83T314 116T324 166V536H408V0Z"  />
<glyph unicode="v" horiz-adv-x="406" d="M10 536H102L202 106H204L304 536H396L251 0H155L10 536Z"  />
<glyph unicode="w" horiz-adv-x="648" d="M10 536H98L184 98H186L277 536H376L465 98H467L550 536H638L511 0H419L325 438H323L233 0H135L10 536Z"  />
<glyph unicode="x" horiz-adv-x="406" d="M16 536H108L205 345L303 536H395L255 279L400 0H308L201 212L98 0H6L153 279L16 536Z"  />
<glyph unicode="y" horiz-adv-x="406" d="M10 536H102L208 106H210L304 536H396L241 -36Q233 -64 224 -89T200 -133T160 -164T98 -176Q73 -176 61 -175T37 -173V-107Q55 -110 86 -110Q115 -110 129 -95T152 -58L168 -11L10 536Z"  />
<glyph unicode="z" horiz-adv-x="389" d="M39 536H362V466L122 72H360V0H27V66L270 464H39V536Z"  />
<glyph unicode="{" horiz-adv-x="259" d="M2 295Q35 295 56 323T78 406V584Q78 621 87 646T111 686T145 707T186 714H257V648H206Q188 648 178 641T163 621T157 595T156 566V394Q156 358 146 334T121 295T91 274T68 266V264Q76 263 91 257T120 236T145 197T156 136V-36Q156 -50 157 -64T162 -91T177 -110T206 -118H257V-184H186Q165 -184 146 -178T111 -156T87 -116T78 -54V124Q78 178 57 206T2 235V295Z"  />
<glyph unicode="|" horiz-adv-x="222" d="M78 728H144V-14H78V728Z"  />
<glyph unicode="}" horiz-adv-x="259" d="M257 235Q224 235 203 207T181 124V-54Q181 -91 172 -116T148 -156T114 -177T73 -184H2V-118H53Q71 -118 81 -111T96 -91T102 -65T103 -36V136Q103 172 113 196T138 235T168 256T191 264V266Q183 267 168 273T139 294T114 333T103 394V566Q103 580 102 594T97 621T82 640T53 648H2V714H73Q94 714 113 708T148 686T172 646T181 584V406Q181 352 202 324T257 295V235Z"  />
<glyph unicode="~" horiz-adv-x="600" d="M56 231Q67 247 80 263T110 293T147 315T192 324Q205 324 216 324T239 320T264 311T296 295Q321 281 348 265T403 248Q420 248 435 255T463 274T485 298T502 321L544 276Q533 260 520 243T490 213T453 191T408 182Q394 182 383 182T361 186T336 195T304 211Q279 225 252 241T197 258Q180 258 165 250T137 231T115 208T98 185L56 231Z"  />
<glyph unicode="&#xA0;" horiz-adv-x="240" />
<glyph unicode="&#xA1;" horiz-adv-x="258" d="M175 442H83V538H175V442ZM175 -176H83L99 352H159L175 -176Z"  />
<glyph unicode="&#xA2;" horiz-adv-x="480" d="M227 -14Q137 -9 98 58T59 261Q59 309 65 358T89 448T140 517T227 550V620H269V550Q317 547 347 528T393 482T415 426T421 373H337Q337 391 334 409T322 443T301 470T269 484V52Q290 57 303 70T323 103T334 143T337 186H421Q421 155 414 122T388 60T341 11T269 -14V-99H227V-14ZM227 484Q211 480 197 468T171 431T154 365T147 262Q147 236 148 203T157 139T181 83T227 52V484Z"  />
<glyph unicode="&#xA3;" horiz-adv-x="480" d="M363 505Q363 533 357 557T338 601T302 631T249 642Q217 642 195 632T160 607T142 573T136 537Q136 520 141 501T154 462T172 422T192 382H356V322H214Q231 291 231 254Q231 224 220 198T190 150T149 107T104 67L106 65Q126 75 148 84T191 93Q211 93 224 89T252 79Q266 73 281 69T317 64Q329 64 339 65T362 71T388 83T424 103L461 36Q430 14 396 0T323 -14Q298 -14 276 -8T234 6T194 20T153 27Q129 27 104 16L57 -6L19 59Q41 77 63 96T103 138T132 187T143 245Q143 266 138 286T122 322H27V382H97L81 413Q67 441 58 470T48 528Q48 571 63 604T106 661T170 696T249 708Q293 708 329 696T392 659T432 596T447 505H363Z"  />
<glyph unicode="&#xA4;" horiz-adv-x="480" d="M65 214Q44 242 32 275T20 347Q20 385 32 418T65 479L18 526L61 569L108 522Q165 567 240 567Q278 567 311 555T372 522L419 569L462 526L415 479Q460 422 460 347Q460 309 448 276T414 215L462 167L420 125L372 173Q345 151 312 139T240 127Q202 127 169 139T107 172L60 125L18 167L65 214ZM92 347Q92 314 103 286T135 238T182 205T240 193Q271 193 298 205T345 237T376 286T388 347Q388 380 377 408T345 456T298 489T240 501Q209 501 182 489T135 457T104 408T92 347Z"  />
<glyph unicode="&#xA5;" horiz-adv-x="480" d="M200 153H53V213H200V273L190 295H53V355H163L9 694H106L242 370L383 694H471L321 355H431V295H294L284 273V213H431V153H284V0H200V153Z"  />
<glyph unicode="&#xA6;" horiz-adv-x="222" d="M78 728H144V434H78V728ZM78 280H144V-14H78V280Z"  />
<glyph unicode="&#xA7;" horiz-adv-x="482" d="M250 203L310 162Q317 166 327 174T346 193T361 221T368 257Q368 291 345 316T291 359L181 427Q171 419 159 410T137 389T121 364T114 331Q114 302 136 282T184 245L250 203ZM325 578Q325 620 299 641T237 662Q215 662 199 655T173 637T157 613T152 587Q152 570 159 557T177 532T203 511T232 492L332 432Q356 417 378 402T416 367T442 325T452 272Q452 223 426 187T363 125Q394 105 407 71T421 1Q421 -37 407 -66T368 -114T313 -144T247 -154Q191 -154 156 -136T100 -92T72 -36T64 20H148Q148 -26 172 -57T247 -88Q274 -88 291 -79T317 -56T330 -28T333 -3Q333 15 326 30T307 58T280 82T250 104L137 174Q116 187 97 202T63 236T39 275T30 320Q30 347 37 367T58 404T89 434T128 462Q99 481 82 514T64 582Q64 618 79 645T118 691T173 719T237 728Q278 728 306 720T354 698T385 668T401 635T409 603T413 578H325Z"  />
<glyph unicode="&#xA8;" horiz-adv-x="204" d="M144 731H222V630H144V731ZM-18 731H60V630H-18V731Z"  />
<glyph unicode="&#xA9;" horiz-adv-x="800" d="M400 46Q463 46 519 70T616 137T681 235T705 357Q705 421 681 478T616 577T519 643T400 668Q337 668 281 644T184 577T119 478T95 357Q95 292 119 236T184 137T281 71T400 46ZM29 357Q29 434 58 501T137 619T255 699T400 728Q477 728 544 699T662 620T742 502T771 357Q771 280 742 213T663 95T545 15T400 -14Q323 -14 256 15T138 94T58 212T29 357ZM603 279Q598 241 581 212T537 164T477 134T406 124Q355 124 315 141T246 188T202 261T187 354Q187 405 202 447T245 519T314 567T406 584Q443 584 476 575T536 546T580 497T603 429H543Q535 469 499 496T406 524Q371 524 343 511T294 474T264 420T253 354Q253 319 263 288T294 234T342 198T406 184Q463 184 499 211T543 279H603Z"  />
<glyph unicode="&#xAA;" horiz-adv-x="289" d="M191 547Q183 539 171 535T146 526T120 519T98 509Q87 501 81 493T74 464Q74 444 84 430T120 415Q133 415 146 420T169 432T185 450T191 470V547ZM251 436Q251 426 253 418T268 409Q273 409 276 410T281 412V370Q278 369 268 368T243 367Q223 367 209 377T193 413H191Q179 391 156 379T103 367Q55 367 32 392T8 460Q8 496 25 518T80 552L153 572Q181 580 186 590T191 617Q191 640 177 650T137 660Q115 660 103 653T86 635T79 616T78 602V598H18Q18 658 46 683T145 708Q185 708 206 698T238 673T249 642T251 612V436Z"  />
<glyph unicode="&#xAB;" horiz-adv-x="389" d="M49 323L191 466V378L97 284L191 190V102L49 245V323ZM198 323L340 466V378L246 284L340 190V102L198 245V323Z"  />
<glyph unicode="&#xAC;" horiz-adv-x="600" d="M487 322H47V388H553V106H487V322Z"  />
<glyph unicode="&#xAD;" horiz-adv-x="352" d="M54 323H298V245H54V323Z"  />
<glyph unicode="&#xAE;" horiz-adv-x="800" d="M400 46Q463 46 519 70T616 137T681 235T705 357Q705 421 681 478T616 577T519 643T400 668Q337 668 281 644T184 577T119 478T95 357Q95 292 119 236T184 137T281 71T400 46ZM29 357Q29 434 58 501T137 619T255 699T400 728Q477 728 544 699T662 620T742 502T771 357Q771 280 742 213T663 95T545 15T400 -14Q323 -14 256 15T138 94T58 212T29 357ZM389 380Q411 380 431 381T468 389T493 410T502 448Q502 469 494 482T473 501T442 510T408 512H318V380H389ZM252 572H420Q492 572 530 542T568 445Q568 387 535 359T451 325L575 138H509L389 320H318V138H252V572Z"  />
<glyph unicode="&#xAF;" horiz-adv-x="204" d="M-30 707H234V653H-30V707Z"  />
<glyph unicode="&#xB0;" horiz-adv-x="400" d="M105 559Q105 539 112 522T133 492T163 472T200 464Q219 464 236 471T267 492T287 522T295 559Q295 578 288 595T267 626T237 646T200 654Q180 654 163 647T133 626T113 596T105 559ZM51 559Q51 591 62 618T93 666T140 697T200 708Q232 708 259 697T307 666T338 619T349 559Q349 527 338 500T307 452T260 421T200 410Q168 410 141 421T93 452T62 499T51 559Z"  />
<glyph unicode="&#xB1;" horiz-adv-x="600" d="M47 66H553V0H47V66ZM47 361H267V506H333V361H553V295H333V150H267V295H47V361Z"  />
<glyph unicode="&#xB2;" horiz-adv-x="312" d="M21 280Q21 310 29 335T52 381T84 421T121 455L158 485Q187 508 203 530T220 588Q220 614 205 631T154 648Q133 648 121 640T102 619T94 594T92 572H20Q20 601 27 626T50 669T93 697T159 708Q217 708 254 680T292 594Q292 545 271 515T211 453L149 403Q129 387 118 371T102 340H282V280H21Z"  />
<glyph unicode="&#xB3;" horiz-adv-x="312" d="M116 528H140Q176 528 194 548T212 597Q212 620 199 637T157 654Q136 654 124 647T105 628T97 606T95 585H23Q23 640 54 674T159 708Q198 708 222 698T260 671T279 635T284 597Q284 565 263 539T200 505V503Q243 496 269 473T296 404Q296 344 263 309T160 273Q110 273 82 289T39 325T20 364T16 391V396H88Q88 384 92 372T104 350T126 334T158 327Q168 327 179 330T201 342T217 364T224 400Q224 434 205 454T144 474H116V528Z"  />
<glyph unicode="&#xB4;" horiz-adv-x="204" d="M122 751H220L112 609H52L122 751Z"  />
<glyph unicode="&#xB5;" horiz-adv-x="463" d="M408 0H328V63H326Q309 26 272 6T196 -14Q179 -14 165 -11T139 0V-176H55V536H139V166Q139 151 140 132T150 97T173 69T218 58Q235 58 253 64T288 83T314 116T324 166V536H408V0Z"  />
<glyph unicode="&#xB6;" horiz-adv-x="556" d="M411 660H311V-140H245V322Q199 322 161 336T95 376T52 435T36 508Q36 557 53 595T101 659T176 700T272 714H477V-140H411V660Z"  />
<glyph unicode="&#xB7;" horiz-adv-x="240" d="M64 327Q64 350 80 366T120 383Q143 383 159 367T176 327Q176 304 160 288T120 271Q97 271 81 287T64 327Z"  />
<glyph unicode="&#xB8;" horiz-adv-x="204" d="M14 -156Q15 -156 22 -158T40 -162T60 -166T78 -168Q109 -168 121 -156T133 -129Q133 -112 119 -102T86 -92Q73 -92 63 -94T46 -99L31 -81L90 0H132L93 -54L95 -56Q103 -54 109 -53T125 -52Q138 -52 152 -55T178 -67T197 -90T205 -126Q205 -144 196 -159T173 -185T139 -203T98 -210Q70 -210 43 -204T-1 -190L14 -156Z"  />
<glyph unicode="&#xB9;" horiz-adv-x="312" d="M128 593H32V641Q53 641 73 643T108 652T134 672T145 708H194V280H128V593Z"  />
<glyph unicode="&#xBA;" horiz-adv-x="289" d="M143 415Q162 415 174 426T194 454T204 494T207 539Q207 561 205 582T195 621T176 649T143 660Q125 660 113 649T94 621T85 583T82 539Q82 516 84 494T93 455T112 426T143 415ZM143 708Q182 708 207 694T247 657T267 603T273 539Q273 505 268 474T247 419T207 381T143 367Q105 367 80 381T41 419T22 474T16 539Q16 572 21 602T41 656T80 694T143 708Z"  />
<glyph unicode="&#xBB;" horiz-adv-x="389" d="M191 245L49 102V190L143 284L49 378V466L191 323V245ZM340 245L198 102V190L292 284L198 378V466L340 323V245Z"  />
<glyph unicode="&#xBC;" horiz-adv-x="721" d="M32 641Q53 641 73 643T108 652T134 672T145 708H194V280H128V593H32V641ZM527 725H587L153 -31H93L527 725ZM560 428H632V153H679V99H632V0H566V99H400V159L560 428ZM566 153V338H564L454 153H566Z"  />
<glyph unicode="&#xBD;" horiz-adv-x="721" d="M420 0Q420 30 428 55T451 101T483 141T520 175L557 205Q586 228 602 250T619 308Q619 334 604 351T553 368Q532 368 520 360T501 339T493 314T491 292H419Q419 321 426 346T449 389T492 417T558 428Q616 428 653 400T691 314Q691 265 670 235T610 173L548 123Q528 107 517 91T501 60H681V0H420ZM30 641Q51 641 71 643T106 652T132 672T143 708H192V280H126V593H30V641ZM508 725H568L134 -31H74L508 725Z"  />
<glyph unicode="&#xBE;" horiz-adv-x="721" d="M120 528H144Q180 528 198 548T216 597Q216 620 203 637T161 654Q140 654 128 647T109 628T101 606T99 585H27Q27 640 58 674T163 708Q202 708 226 698T264 671T283 635T288 597Q288 565 267 539T204 505V503Q247 496 273 473T300 404Q300 344 267 309T164 273Q114 273 86 289T43 325T24 364T20 391V396H92Q92 384 96 372T108 350T130 334T162 327Q172 327 183 330T205 342T221 364T228 400Q228 434 209 454T148 474H120V528ZM579 725H639L205 -31H145L579 725ZM582 428H654V153H701V99H654V0H588V99H422V159L582 428ZM588 153V338H586L476 153H588Z"  />
<glyph unicode="&#xBF;" d="M279 442H187V538H279V442ZM409 34Q409 -10 398 -49T365 -119T307 -166T223 -184Q178 -184 143 -170T84 -130T48 -71T35 4Q35 42 48 79T85 145Q89 149 100 162T125 189T149 216T163 233Q182 257 188 283T195 333V352H273Q273 322 271 289T254 229Q245 213 232 195T204 160T176 128T153 101Q136 78 130 56T123 -1Q123 -23 129 -43T147 -78T177 -103T220 -112Q256 -112 277 -96T308 -58T322 -10T325 34H409Z"  />
<glyph unicode="&#xC0;" horiz-adv-x="500" d="M155 268H347L256 613H254L155 268ZM198 714H316L508 0H416L365 196H137L84 0H-8L198 714ZM243 915L313 773H253L145 915H243Z"  />
<glyph unicode="&#xC1;" horiz-adv-x="500" d="M155 268H347L256 613H254L155 268ZM198 714H316L508 0H416L365 196H137L84 0H-8L198 714ZM270 915H368L260 773H200L270 915Z"  />
<glyph unicode="&#xC2;" horiz-adv-x="500" d="M155 268H347L256 613H254L155 268ZM198 714H316L508 0H416L365 196H137L84 0H-8L198 714ZM219 915H296L396 773H318L257 861L196 773H118L219 915Z"  />
<glyph unicode="&#xC3;" horiz-adv-x="500" d="M155 268H347L256 613H254L155 268ZM198 714H316L508 0H416L365 196H137L84 0H-8L198 714ZM405 903Q405 884 400 865T384 829T357 803T319 792Q303 792 286 798T254 811T225 824T204 830Q184 830 176 815T165 785H111Q111 807 118 827T137 862T167 887T204 896Q218 896 233 891T264 877Q279 870 292 864T316 858Q335 858 341 873T351 903H405Z"  />
<glyph unicode="&#xC4;" horiz-adv-x="500" d="M155 268H347L256 613H254L155 268ZM198 714H316L508 0H416L365 196H137L84 0H-8L198 714ZM298 895H376V794H298V895ZM136 895H214V794H136V895Z"  />
<glyph unicode="&#xC5;" horiz-adv-x="500" d="M155 268H347L256 613H254L155 268ZM198 714H316L508 0H416L365 196H137L84 0H-8L198 714ZM200 844Q200 821 217 804T257 787Q280 787 297 804T314 844Q314 867 297 884T257 901Q234 901 217 884T200 844ZM158 844Q158 886 186 914T257 943Q299 943 327 915T356 844Q356 802 328 774T257 745Q215 745 187 773T158 844Z"  />
<glyph unicode="&#xC6;" horiz-adv-x="722" d="M268 714H686V636H420V412H670V334H420V78H698V0H332V196H157L84 0H-8L268 714ZM182 268H332V642H322L182 268Z"  />
<glyph unicode="&#xC7;" horiz-adv-x="519" d="M176 -156Q177 -156 184 -158T202 -162T222 -166T240 -168Q271 -168 283 -156T295 -129Q295 -112 281 -102T248 -92Q235 -92 225 -94T208 -99L193 -81L243 -12Q190 -6 156 18Q122 43 101 80T68 161T52 255T48 357Q48 424 56 490T89 610T159 695T278 728Q387 728 436 670T489 506H397Q396 536 390 563T371 611T335 644T278 656Q232 656 205 633T164 569T145 474T140 357Q140 295 144 241T163 146T205 82T278 58Q318 58 342 75T379 119T397 179T403 245H495Q493 206 486 171T464 104T429 48T376 7Q339 -12 284 -14L255 -54L257 -56Q265 -54 271 -53T287 -52Q300 -52 314 -55T340 -67T359 -90T367 -126Q367 -144 358 -159T335 -185T301 -203T260 -210Q232 -210 205 -204T161 -190L176 -156Z"  />
<glyph unicode="&#xC8;" horiz-adv-x="463" d="M58 714H427V636H146V412H411V334H146V78H439V0H58V714ZM235 915L305 773H245L137 915H235Z"  />
<glyph unicode="&#xC9;" horiz-adv-x="463" d="M58 714H427V636H146V412H411V334H146V78H439V0H58V714ZM287 915H385L277 773H217L287 915Z"  />
<glyph unicode="&#xCA;" horiz-adv-x="463" d="M58 714H427V636H146V412H411V334H146V78H439V0H58V714ZM206 915H283L383 773H305L244 861L183 773H105L206 915Z"  />
<glyph unicode="&#xCB;" horiz-adv-x="463" d="M58 714H427V636H146V412H411V334H146V78H439V0H58V714ZM289 895H367V794H289V895ZM127 895H205V794H127V895Z"  />
<glyph unicode="&#xCC;" horiz-adv-x="204" d="M58 714H146V0H58V714ZM77 915L147 773H87L-21 915H77Z"  />
<glyph unicode="&#xCD;" horiz-adv-x="204" d="M58 714H146V0H58V714ZM129 915H227L119 773H59L129 915Z"  />
<glyph unicode="&#xCE;" horiz-adv-x="204" d="M58 714H146V0H58V714ZM64 915H141L241 773H163L102 861L41 773H-37L64 915Z"  />
<glyph unicode="&#xCF;" horiz-adv-x="204" d="M58 714H146V0H58V714ZM144 895H222V794H144V895ZM-18 895H60V794H-18V895Z"  />
<glyph unicode="&#xD0;" horiz-adv-x="556" d="M247 72Q304 72 337 98T388 166T411 257T416 356Q416 408 412 459T392 550T341 616T247 642H155V406H289V340H155V72H247ZM67 340H9V406H67V714H258Q341 714 390 686T466 610T500 496T508 357Q508 289 498 225T461 111T387 31T267 0H67V340Z"  />
<glyph unicode="&#xD1;" horiz-adv-x="556" d="M58 714H145H172L408 118H410V714H498V0H411H377L148 578H146V0H58V714ZM423 903Q423 884 418 865T402 829T375 803T337 792Q321 792 304 798T272 811T243 824T222 830Q202 830 194 815T183 785H129Q129 807 136 827T155 862T185 887T222 896Q236 896 251 891T282 877Q297 870 310 864T334 858Q353 858 359 873T369 903H423Z"  />
<glyph unicode="&#xD2;" horiz-adv-x="556" d="M278 656Q232 656 205 633T164 569T145 474T140 357Q140 295 144 241T163 146T205 82T278 58Q324 58 351 81T392 145T411 240T416 357Q416 419 412 473T393 568T351 632T278 656ZM278 728Q352 728 397 696T467 610T500 491T508 357Q508 289 500 223T467 104T397 19T278 -14Q204 -14 159 18T89 104T56 223T48 357Q48 424 56 490T89 610T159 695T278 728ZM249 915L319 773H259L151 915H249Z"  />
<glyph unicode="&#xD3;" horiz-adv-x="556" d="M278 656Q232 656 205 633T164 569T145 474T140 357Q140 295 144 241T163 146T205 82T278 58Q324 58 351 81T392 145T411 240T416 357Q416 419 412 473T393 568T351 632T278 656ZM278 728Q352 728 397 696T467 610T500 491T508 357Q508 289 500 223T467 104T397 19T278 -14Q204 -14 159 18T89 104T56 223T48 357Q48 424 56 490T89 610T159 695T278 728ZM308 915H406L298 773H238L308 915Z"  />
<glyph unicode="&#xD4;" horiz-adv-x="556" d="M278 656Q232 656 205 633T164 569T145 474T140 357Q140 295 144 241T163 146T205 82T278 58Q324 58 351 81T392 145T411 240T416 357Q416 419 412 473T393 568T351 632T278 656ZM278 728Q352 728 397 696T467 610T500 491T508 357Q508 289 500 223T467 104T397 19T278 -14Q204 -14 159 18T89 104T56 223T48 357Q48 424 56 490T89 610T159 695T278 728ZM240 915H317L417 773H339L278 861L217 773H139L240 915Z"  />
<glyph unicode="&#xD5;" horiz-adv-x="556" d="M278 656Q232 656 205 633T164 569T145 474T140 357Q140 295 144 241T163 146T205 82T278 58Q324 58 351 81T392 145T411 240T416 357Q416 419 412 473T393 568T351 632T278 656ZM278 728Q352 728 397 696T467 610T500 491T508 357Q508 289 500 223T467 104T397 19T278 -14Q204 -14 159 18T89 104T56 223T48 357Q48 424 56 490T89 610T159 695T278 728ZM423 903Q423 884 418 865T402 829T375 803T337 792Q321 792 304 798T272 811T243 824T222 830Q202 830 194 815T183 785H129Q129 807 136 827T155 862T185 887T222 896Q236 896 251 891T282 877Q297 870 310 864T334 858Q353 858 359 873T369 903H423Z"  />
<glyph unicode="&#xD6;" horiz-adv-x="556" d="M278 656Q232 656 205 633T164 569T145 474T140 357Q140 295 144 241T163 146T205 82T278 58Q324 58 351 81T392 145T411 240T416 357Q416 419 412 473T393 568T351 632T278 656ZM278 728Q352 728 397 696T467 610T500 491T508 357Q508 289 500 223T467 104T397 19T278 -14Q204 -14 159 18T89 104T56 223T48 357Q48 424 56 490T89 610T159 695T278 728ZM321 895H399V794H321V895ZM159 895H237V794H159V895Z"  />
<glyph unicode="&#xD7;" horiz-adv-x="600" d="M300 210L119 30L77 72L258 253L77 434L119 476L300 296L480 476L523 434L342 253L523 72L480 30L300 210Z"  />
<glyph unicode="&#xD8;" horiz-adv-x="556" d="M121 56Q98 83 84 117T62 191T51 272T48 357Q48 424 56 490T89 610T159 695T278 728Q346 728 389 700L413 759L467 737L435 660Q457 633 471 598T493 524T505 443T508 357Q508 289 500 223T467 104T397 19T278 -14Q212 -14 168 14L142 -48L88 -24L121 56ZM199 88Q229 58 278 58Q324 58 351 81T392 145T411 240T416 357Q416 417 412 469T395 562L199 88ZM358 626Q328 656 278 656Q232 656 205 633T164 569T145 474T140 357Q140 297 144 246T161 153L358 626Z"  />
<glyph unicode="&#xD9;" horiz-adv-x="519" d="M50 714H138V212Q138 133 165 96T259 58Q329 58 355 97T381 212V714H469V212Q469 109 417 48T259 -14Q150 -14 100 43T50 212V714ZM229 915L299 773H239L131 915H229Z"  />
<glyph unicode="&#xDA;" horiz-adv-x="519" d="M50 714H138V212Q138 133 165 96T259 58Q329 58 355 97T381 212V714H469V212Q469 109 417 48T259 -14Q150 -14 100 43T50 212V714ZM293 915H391L283 773H223L293 915Z"  />
<glyph unicode="&#xDB;" horiz-adv-x="519" d="M50 714H138V212Q138 133 165 96T259 58Q329 58 355 97T381 212V714H469V212Q469 109 417 48T259 -14Q150 -14 100 43T50 212V714ZM223 915H300L400 773H322L261 861L200 773H122L223 915Z"  />
<glyph unicode="&#xDC;" horiz-adv-x="519" d="M50 714H138V212Q138 133 165 96T259 58Q329 58 355 97T381 212V714H469V212Q469 109 417 48T259 -14Q150 -14 100 43T50 212V714ZM301 895H379V794H301V895ZM139 895H217V794H139V895Z"  />
<glyph unicode="&#xDD;" horiz-adv-x="462" d="M-2 714H95L231 380L372 714H464L275 280V0H187V280L-2 714ZM266 915H364L256 773H196L266 915Z"  />
<glyph unicode="&#xDE;" horiz-adv-x="481" d="M146 234H251Q299 234 334 268T369 373Q369 433 340 467T245 502H146V234ZM58 714H146V574H240Q255 574 277 573T324 567T373 549T417 513T449 455T461 369Q461 319 446 281T404 216T338 176T255 162H146V0H58V714Z"  />
<glyph unicode="&#xDF;" horiz-adv-x="463" d="M48 511Q48 557 56 596T84 663T138 706T225 722Q261 722 292 713T346 683T383 632T397 559Q397 535 391 511T371 467T338 432T291 412V410Q327 410 353 395T398 355T425 295T434 224Q434 184 424 144T392 72T337 20T255 0H196V72H254Q282 72 300 87T328 126T342 176T346 224Q346 293 318 333T239 374Q231 374 219 374T199 371V440H219Q257 440 285 466T313 545Q313 564 309 583T296 619T269 645T225 656Q192 656 174 645T146 615T135 573T132 525V0H48V511Z"  />
<glyph unicode="&#xE0;" d="M301 292Q289 280 271 272T232 258T192 245T158 229Q138 216 128 198T117 144Q117 102 133 77T193 52Q214 52 233 60T268 82T292 114T301 154V292ZM42 374Q42 465 84 507T222 550Q283 550 316 534T364 494T382 444T385 396V97Q385 80 388 67T411 54Q419 54 423 55T431 59V-1Q426 -2 412 -4T382 -6Q370 -6 358 -5T334 2T315 23T306 63H304Q284 27 249 7T175 -14Q100 -14 65 28T29 142Q29 199 53 236T130 290L243 324Q266 331 278 338T296 355T303 376T304 405Q304 484 218 484Q183 484 165 471T138 439T128 404T126 379V374H42ZM210 751L280 609H220L112 751H210Z"  />
<glyph unicode="&#xE1;" d="M301 292Q289 280 271 272T232 258T192 245T158 229Q138 216 128 198T117 144Q117 102 133 77T193 52Q214 52 233 60T268 82T292 114T301 154V292ZM42 374Q42 465 84 507T222 550Q283 550 316 534T364 494T382 444T385 396V97Q385 80 388 67T411 54Q419 54 423 55T431 59V-1Q426 -2 412 -4T382 -6Q370 -6 358 -5T334 2T315 23T306 63H304Q284 27 249 7T175 -14Q100 -14 65 28T29 142Q29 199 53 236T130 290L243 324Q266 331 278 338T296 355T303 376T304 405Q304 484 218 484Q183 484 165 471T138 439T128 404T126 379V374H42ZM258 751H356L248 609H188L258 751Z"  />
<glyph unicode="&#xE2;" d="M301 292Q289 280 271 272T232 258T192 245T158 229Q138 216 128 198T117 144Q117 102 133 77T193 52Q214 52 233 60T268 82T292 114T301 154V292ZM42 374Q42 465 84 507T222 550Q283 550 316 534T364 494T382 444T385 396V97Q385 80 388 67T411 54Q419 54 423 55T431 59V-1Q426 -2 412 -4T382 -6Q370 -6 358 -5T334 2T315 23T306 63H304Q284 27 249 7T175 -14Q100 -14 65 28T29 142Q29 199 53 236T130 290L243 324Q266 331 278 338T296 355T303 376T304 405Q304 484 218 484Q183 484 165 471T138 439T128 404T126 379V374H42ZM185 751H262L362 609H284L223 697L162 609H84L185 751Z"  />
<glyph unicode="&#xE3;" d="M301 292Q289 280 271 272T232 258T192 245T158 229Q138 216 128 198T117 144Q117 102 133 77T193 52Q214 52 233 60T268 82T292 114T301 154V292ZM42 374Q42 465 84 507T222 550Q283 550 316 534T364 494T382 444T385 396V97Q385 80 388 67T411 54Q419 54 423 55T431 59V-1Q426 -2 412 -4T382 -6Q370 -6 358 -5T334 2T315 23T306 63H304Q284 27 249 7T175 -14Q100 -14 65 28T29 142Q29 199 53 236T130 290L243 324Q266 331 278 338T296 355T303 376T304 405Q304 484 218 484Q183 484 165 471T138 439T128 404T126 379V374H42ZM366 739Q366 720 361 701T345 665T318 639T280 628Q264 628 247 634T215 647T186 660T165 666Q145 666 137 651T126 621H72Q72 643 79 663T98 698T128 723T165 732Q179 732 194 727T225 713Q240 706 253 700T277 694Q296 694 302 709T312 739H366Z"  />
<glyph unicode="&#xE4;" d="M301 292Q289 280 271 272T232 258T192 245T158 229Q138 216 128 198T117 144Q117 102 133 77T193 52Q214 52 233 60T268 82T292 114T301 154V292ZM42 374Q42 465 84 507T222 550Q283 550 316 534T364 494T382 444T385 396V97Q385 80 388 67T411 54Q419 54 423 55T431 59V-1Q426 -2 412 -4T382 -6Q370 -6 358 -5T334 2T315 23T306 63H304Q284 27 249 7T175 -14Q100 -14 65 28T29 142Q29 199 53 236T130 290L243 324Q266 331 278 338T296 355T303 376T304 405Q304 484 218 484Q183 484 165 471T138 439T128 404T126 379V374H42ZM263 731H341V630H263V731ZM101 731H179V630H101V731Z"  />
<glyph unicode="&#xE5;" d="M301 292Q289 280 271 272T232 258T192 245T158 229Q138 216 128 198T117 144Q117 102 133 77T193 52Q214 52 233 60T268 82T292 114T301 154V292ZM42 374Q42 465 84 507T222 550Q283 550 316 534T364 494T382 444T385 396V97Q385 80 388 67T411 54Q419 54 423 55T431 59V-1Q426 -2 412 -4T382 -6Q370 -6 358 -5T334 2T315 23T306 63H304Q284 27 249 7T175 -14Q100 -14 65 28T29 142Q29 199 53 236T130 290L243 324Q266 331 278 338T296 355T303 376T304 405Q304 484 218 484Q183 484 165 471T138 439T128 404T126 379V374H42ZM164 690Q164 667 181 650T221 633Q244 633 261 650T278 690Q278 713 261 730T221 747Q198 747 181 730T164 690ZM122 690Q122 732 150 760T221 789Q263 789 291 761T320 690Q320 648 292 620T221 591Q179 591 151 619T122 690Z"  />
<glyph unicode="&#xE6;" horiz-adv-x="667" d="M290 268V279H288Q285 273 267 266T227 252T185 239T158 230Q137 222 126 203T114 145Q114 108 131 80T189 52Q225 52 245 67T275 103T287 144T290 174V268ZM637 176Q637 155 630 123T603 60T552 8T468 -14Q426 -14 399 -2T355 27T332 60T324 84H322Q302 41 268 14T173 -14Q106 -14 66 28T26 142Q26 199 52 237T128 290L253 328Q277 336 283 353T290 405Q290 443 271 463T210 484Q178 484 161 471T135 439T126 404T124 379V374H40Q40 467 82 508T216 550Q270 550 302 530T344 476H346Q353 493 366 506T397 530T433 545T472 550Q530 550 563 526T614 465T636 381T641 292V258H368Q368 227 369 191T380 124T408 73T462 52Q492 52 510 65T537 98T550 139T553 176H637ZM553 324V353Q553 375 549 398T535 441T508 472T464 484Q433 484 415 467T387 426T374 380T371 344V324H553Z"  />
<glyph unicode="&#xE7;" horiz-adv-x="426" d="M124 -156Q125 -156 132 -158T150 -162T170 -166T188 -168Q219 -168 231 -156T243 -129Q243 -112 229 -102T196 -92Q183 -92 173 -94T156 -99L141 -81L191 -12Q112 -4 75 54Q32 121 32 261Q32 311 38 362T65 455T123 523T223 550Q278 550 311 531T363 485T388 427T394 373H310Q310 392 306 412T292 448T266 474T225 484Q205 484 187 477T153 447T129 379T120 262Q120 236 121 200T133 131T163 75T222 52Q249 52 266 65T293 97T306 140T310 186H394Q394 161 389 136T374 86T345 41T302 5Q274 -11 232 -13L203 -54L205 -56Q213 -54 219 -53T235 -52Q248 -52 262 -55T288 -67T307 -90T315 -126Q315 -144 306 -159T283 -185T249 -203T208 -210Q180 -210 153 -204T109 -190L124 -156Z"  />
<glyph unicode="&#xE8;" d="M125 258Q125 227 126 191T138 124T168 73T228 52Q258 52 276 65T303 98T316 139T319 176H403Q403 155 396 123T368 60T313 8T223 -14Q124 -14 81 54T37 261Q37 311 43 362T70 455T128 523T228 550Q289 550 325 526T379 465T402 381T407 292V258H125ZM319 324V353Q319 375 315 398T301 441T272 472T226 484Q193 484 174 467T144 426T131 380T128 344V324H319ZM205 751L275 609H215L107 751H205Z"  />
<glyph unicode="&#xE9;" d="M125 258Q125 227 126 191T138 124T168 73T228 52Q258 52 276 65T303 98T316 139T319 176H403Q403 155 396 123T368 60T313 8T223 -14Q124 -14 81 54T37 261Q37 311 43 362T70 455T128 523T228 550Q289 550 325 526T379 465T402 381T407 292V258H125ZM319 324V353Q319 375 315 398T301 441T272 472T226 484Q193 484 174 467T144 426T131 380T128 344V324H319ZM266 751H364L256 609H196L266 751Z"  />
<glyph unicode="&#xEA;" d="M125 258Q125 227 126 191T138 124T168 73T228 52Q258 52 276 65T303 98T316 139T319 176H403Q403 155 396 123T368 60T313 8T223 -14Q124 -14 81 54T37 261Q37 311 43 362T70 455T128 523T228 550Q289 550 325 526T379 465T402 381T407 292V258H125ZM319 324V353Q319 375 315 398T301 441T272 472T226 484Q193 484 174 467T144 426T131 380T128 344V324H319ZM190 751H267L367 609H289L228 697L167 609H89L190 751Z"  />
<glyph unicode="&#xEB;" d="M125 258Q125 227 126 191T138 124T168 73T228 52Q258 52 276 65T303 98T316 139T319 176H403Q403 155 396 123T368 60T313 8T223 -14Q124 -14 81 54T37 261Q37 311 43 362T70 455T128 523T228 550Q289 550 325 526T379 465T402 381T407 292V258H125ZM319 324V353Q319 375 315 398T301 441T272 472T226 484Q193 484 174 467T144 426T131 380T128 344V324H319ZM271 731H349V630H271V731ZM109 731H187V630H109V731Z"  />
<glyph unicode="&#xEC;" horiz-adv-x="204" d="M60 536H144V0H60V536ZM75 751L145 609H85L-23 751H75Z"  />
<glyph unicode="&#xED;" horiz-adv-x="204" d="M60 536H144V0H60V536ZM130 751H228L120 609H60L130 751Z"  />
<glyph unicode="&#xEE;" horiz-adv-x="204" d="M60 536H144V0H60V536ZM64 751H141L241 609H163L102 697L41 609H-37L64 751Z"  />
<glyph unicode="&#xEF;" horiz-adv-x="204" d="M60 536H144V0H60V536ZM144 731H222V630H144V731ZM-18 731H60V630H-18V731Z"  />
<glyph unicode="&#xF0;" d="M82 637L153 677Q136 694 117 710T76 744L140 772Q160 756 177 741T212 711L286 753L324 711L254 671Q292 633 322 592T372 502T404 396T415 268Q415 211 407 160T376 71T317 9T222 -14Q164 -14 127 9T68 70T38 160T29 268Q29 322 37 371T67 456T126 514T222 536Q236 536 251 532T281 519H283Q263 550 241 579T193 636L120 595L82 637ZM220 470Q188 470 168 452T137 405T121 340T117 268Q117 224 121 185T136 117T167 70T220 52Q253 52 274 69T307 116T323 185T327 268Q327 304 323 340T308 405T275 452T220 470Z"  />
<glyph unicode="&#xF1;" horiz-adv-x="463" d="M55 536H135V473H137Q154 510 191 530T267 550Q320 550 348 533T390 489T406 434T408 380V0H324V370Q324 385 323 404T313 439T289 467T245 478Q228 478 210 472T175 453T149 420T139 370V0H55V536ZM378 739Q378 720 373 701T357 665T330 639T292 628Q276 628 259 634T227 647T198 660T177 666Q157 666 149 651T138 621H84Q84 643 91 663T110 698T140 723T177 732Q191 732 206 727T237 713Q252 706 265 700T289 694Q308 694 314 709T324 739H378Z"  />
<glyph unicode="&#xF2;" d="M29 268Q29 325 37 376T67 465T126 527T222 550Q280 550 317 527T376 466T406 376T415 268Q415 211 407 160T376 71T317 9T222 -14Q164 -14 127 9T68 70T38 160T29 268ZM220 52Q253 52 274 69T307 116T323 185T327 268Q327 311 323 350T308 419T275 466T220 484Q188 484 168 467T137 420T121 351T117 268Q117 224 121 185T136 117T167 70T220 52ZM189 751L259 609H199L91 751H189Z"  />
<glyph unicode="&#xF3;" d="M29 268Q29 325 37 376T67 465T126 527T222 550Q280 550 317 527T376 466T406 376T415 268Q415 211 407 160T376 71T317 9T222 -14Q164 -14 127 9T68 70T38 160T29 268ZM220 52Q253 52 274 69T307 116T323 185T327 268Q327 311 323 350T308 419T275 466T220 484Q188 484 168 467T137 420T121 351T117 268Q117 224 121 185T136 117T167 70T220 52ZM259 751H357L249 609H189L259 751Z"  />
<glyph unicode="&#xF4;" d="M29 268Q29 325 37 376T67 465T126 527T222 550Q280 550 317 527T376 466T406 376T415 268Q415 211 407 160T376 71T317 9T222 -14Q164 -14 127 9T68 70T38 160T29 268ZM220 52Q253 52 274 69T307 116T323 185T327 268Q327 311 323 350T308 419T275 466T220 484Q188 484 168 467T137 420T121 351T117 268Q117 224 121 185T136 117T167 70T220 52ZM184 751H261L361 609H283L222 697L161 609H83L184 751Z"  />
<glyph unicode="&#xF5;" d="M29 268Q29 325 37 376T67 465T126 527T222 550Q280 550 317 527T376 466T406 376T415 268Q415 211 407 160T376 71T317 9T222 -14Q164 -14 127 9T68 70T38 160T29 268ZM220 52Q253 52 274 69T307 116T323 185T327 268Q327 311 323 350T308 419T275 466T220 484Q188 484 168 467T137 420T121 351T117 268Q117 224 121 185T136 117T167 70T220 52ZM369 739Q369 720 364 701T348 665T321 639T283 628Q267 628 250 634T218 647T189 660T168 666Q148 666 140 651T129 621H75Q75 643 82 663T101 698T131 723T168 732Q182 732 197 727T228 713Q243 706 256 700T280 694Q299 694 305 709T315 739H369Z"  />
<glyph unicode="&#xF6;" d="M29 268Q29 325 37 376T67 465T126 527T222 550Q280 550 317 527T376 466T406 376T415 268Q415 211 407 160T376 71T317 9T222 -14Q164 -14 127 9T68 70T38 160T29 268ZM220 52Q253 52 274 69T307 116T323 185T327 268Q327 311 323 350T308 419T275 466T220 484Q188 484 168 467T137 420T121 351T117 268Q117 224 121 185T136 117T167 70T220 52ZM264 731H342V630H264V731ZM102 731H180V630H102V731Z"  />
<glyph unicode="&#xF7;" horiz-adv-x="600" d="M244 42Q244 65 260 81T300 98Q323 98 339 82T356 42Q356 19 340 3T300 -14Q277 -14 261 2T244 42ZM244 464Q244 487 260 503T300 520Q323 520 339 504T356 464Q356 441 340 425T300 408Q277 408 261 424T244 464ZM47 286H553V220H47V286Z"  />
<glyph unicode="&#xF8;" d="M96 36Q58 74 44 133T29 268Q29 325 37 376T67 465T126 527T222 550Q271 550 306 532L332 593L380 572L350 501Q388 459 401 400T415 268Q415 211 407 160T376 71T317 9T222 -14Q172 -14 138 4L111 -59L64 -40L96 36ZM277 463Q253 484 220 484Q188 484 168 467T137 420T121 351T117 268Q117 229 120 193T134 126L277 463ZM167 71Q187 52 220 52Q253 52 274 69T307 116T323 185T327 268Q327 306 324 342T310 407L167 71Z"  />
<glyph unicode="&#xF9;" horiz-adv-x="463" d="M408 0H328V63H326Q309 26 272 6T196 -14Q143 -14 115 3T73 47T57 102T55 156V536H139V166Q139 151 140 132T150 97T173 69T218 58Q235 58 253 64T288 83T314 116T324 166V536H408V0ZM197 751L267 609H207L99 751H197Z"  />
<glyph unicode="&#xFA;" horiz-adv-x="463" d="M408 0H328V63H326Q309 26 272 6T196 -14Q143 -14 115 3T73 47T57 102T55 156V536H139V166Q139 151 140 132T150 97T173 69T218 58Q235 58 253 64T288 83T314 116T324 166V536H408V0ZM265 751H363L255 609H195L265 751Z"  />
<glyph unicode="&#xFB;" horiz-adv-x="463" d="M408 0H328V63H326Q309 26 272 6T196 -14Q143 -14 115 3T73 47T57 102T55 156V536H139V166Q139 151 140 132T150 97T173 69T218 58Q235 58 253 64T288 83T314 116T324 166V536H408V0ZM194 751H271L371 609H293L232 697L171 609H93L194 751Z"  />
<glyph unicode="&#xFC;" horiz-adv-x="463" d="M408 0H328V63H326Q309 26 272 6T196 -14Q143 -14 115 3T73 47T57 102T55 156V536H139V166Q139 151 140 132T150 97T173 69T218 58Q235 58 253 64T288 83T314 116T324 166V536H408V0ZM273 731H351V630H273V731ZM111 731H189V630H111V731Z"  />
<glyph unicode="&#xFD;" horiz-adv-x="406" d="M10 536H102L208 106H210L304 536H396L241 -36Q233 -64 224 -89T200 -133T160 -164T98 -176Q73 -176 61 -175T37 -173V-107Q55 -110 86 -110Q115 -110 129 -95T152 -58L168 -11L10 536ZM246 751H344L236 609H176L246 751Z"  />
<glyph unicode="&#xFE;" horiz-adv-x="463" d="M55 714H139V475H141Q146 492 157 506T185 529T218 544T253 550Q301 550 334 530T388 474T418 388T428 278Q428 232 420 181T393 87T339 15T253 -14Q217 -14 186 6T141 61H139V-176H55V714ZM134 268Q134 229 138 192T154 124T187 76T242 58Q271 58 290 73T320 116T335 185T340 278Q340 322 336 359T320 422T290 463T242 478Q207 478 186 463T154 419T138 353T134 268Z"  />
<glyph unicode="&#xFF;" horiz-adv-x="406" d="M10 536H102L208 106H210L304 536H396L241 -36Q233 -64 224 -89T200 -133T160 -164T98 -176Q73 -176 61 -175T37 -173V-107Q55 -110 86 -110Q115 -110 129 -95T152 -58L168 -11L10 536ZM252 731H330V630H252V731ZM90 731H168V630H90V731Z"  />
<glyph unicode="&#x131;" horiz-adv-x="204" d="M60 536H144V0H60V536Z"  />
<glyph unicode="&#x152;" horiz-adv-x="796" d="M412 463Q412 501 410 536T394 597T354 640T278 656Q231 656 203 633T160 569T141 474T136 357Q136 295 140 241T160 146T203 82T278 58Q321 58 347 72T387 110T407 165T412 232V463ZM500 78H772V0H414V63H412Q398 27 361 7T278 -14Q204 -14 159 17T89 99T56 218T48 357Q48 424 56 490T89 610T159 695T278 728Q297 728 318 724T357 711T391 689T416 659H418V714H760V636H500V412H744V334H500V78Z"  />
<glyph unicode="&#x153;" horiz-adv-x="722" d="M413 324H595V353Q595 375 591 398T577 441T550 472T506 484Q475 484 457 467T429 426T416 380T413 344V324ZM332 268Q332 309 328 348T313 417T281 465T227 484Q196 484 177 466T146 417T131 348T127 268Q127 227 131 188T146 119T176 71T227 52Q260 52 280 70T312 119T328 188T332 268ZM683 258H410Q410 227 411 191T422 124T450 73T504 52Q534 52 552 65T579 98T592 139T595 176H679Q679 155 672 123T645 60T594 8T510 -14Q468 -14 441 -1T398 28T376 60T368 78Q349 35 312 11T227 -14Q171 -14 135 9T77 72T48 163T39 268Q39 322 47 373T77 463T134 526T227 550Q283 550 316 528T374 459Q393 501 431 525T514 550Q572 550 605 526T656 465T678 381T683 292V258Z"  />
<glyph unicode="&#x160;" horiz-adv-x="500" d="M361 529Q361 557 356 580T337 620T303 646T250 656Q193 656 163 627T132 540Q132 490 157 463T219 420T300 392T381 358T444 300T469 198Q469 136 449 95T396 30T325 -4T247 -14Q184 -14 143 2T77 48T42 122T31 224H119Q119 194 122 165T138 111T178 73T253 58Q279 58 302 67T341 92T367 132T377 184Q377 222 363 246T325 286T271 313T209 335T147 359T93 394T55 449T40 531Q40 556 47 589T76 654T140 706T249 728Q352 728 399 679T449 529H361ZM292 773H215L115 915H193L254 827L315 915H393L292 773Z"  />
<glyph unicode="&#x161;" horiz-adv-x="407" d="M285 379Q285 430 269 457T206 484Q196 484 181 482T153 471T129 447T119 402Q119 378 130 363T160 338T202 320T251 305Q275 297 298 288T340 262T370 220T382 154Q382 112 369 81T333 28T278 -3T209 -14Q141 -14 104 8T49 60T28 123T25 176H109Q109 152 113 130T128 90T158 62T209 52Q219 52 234 55T263 68T288 95T298 141Q298 168 287 185T257 214T215 234T167 250Q143 258 119 267T77 293T47 335T35 402Q35 439 48 467T85 513T140 541T206 550Q264 550 297 532T346 488T365 433T369 379H285ZM243 609H166L66 751H144L205 663L266 751H344L243 609Z"  />
<glyph unicode="&#x178;" horiz-adv-x="462" d="M-2 714H95L231 380L372 714H464L275 280V0H187V280L-2 714ZM272 895H350V794H272V895ZM110 895H188V794H110V895Z"  />
<glyph unicode="&#x17D;" horiz-adv-x="463" d="M23 74L344 636H41V714H436V633L115 78H440V0H23V74ZM272 773H195L95 915H173L234 827L295 915H373L272 773Z"  />
<glyph unicode="&#x17E;" horiz-adv-x="389" d="M39 536H362V466L122 72H360V0H27V66L270 464H39V536ZM236 609H159L59 751H137L198 663L259 751H337L236 609Z"  />
<glyph unicode="&#x192;" horiz-adv-x="480" d="M-3 -106Q3 -108 16 -109T46 -110Q63 -110 75 -106T97 -92T113 -64T125 -20L204 380H100L111 440H215L248 596Q262 663 304 688T414 714Q447 714 462 710L448 644Q443 646 434 647T413 648Q385 648 369 640T342 615T326 574T314 518L299 440H408L397 380H288L208 -31Q194 -103 155 -139T40 -176Q25 -176 11 -175T-17 -172L-3 -106Z"  />
<glyph unicode="&#x2C6;" horiz-adv-x="204" d="M64 751H141L241 609H163L102 697L41 609H-37L64 751Z"  />
<glyph unicode="&#x2C7;" horiz-adv-x="204" d="M140 609H63L-37 751H41L102 663L163 751H241L140 609Z"  />
<glyph unicode="&#x2DA;" horiz-adv-x="204" d="M45 690Q45 667 62 650T102 633Q125 633 142 650T159 690Q159 713 142 730T102 747Q79 747 62 730T45 690ZM3 690Q3 732 31 760T102 789Q144 789 172 761T201 690Q201 648 173 620T102 591Q60 591 32 619T3 690Z"  />
<glyph unicode="&#x2DC;" horiz-adv-x="204" d="M249 739Q249 720 244 701T228 665T201 639T163 628Q147 628 130 634T98 647T69 660T48 666Q28 666 20 651T9 621H-45Q-45 643 -38 663T-19 698T11 723T48 732Q62 732 77 727T108 713Q123 706 136 700T160 694Q179 694 185 709T195 739H249Z"  />
<glyph unicode="&#x2013;" horiz-adv-x="500" d="M0 320H500V248H0V320Z"  />
<glyph unicode="&#x2014;" horiz-adv-x="1000" d="M0 320H1000V248H0V320Z"  />
<glyph unicode="&#x2018;" horiz-adv-x="240" d="M166 460H74V547Q74 575 76 601T88 650T115 688T166 714V667Q140 654 131 637T122 590V566H166V460Z"  />
<glyph unicode="&#x2019;" horiz-adv-x="240" d="M74 714H166V627Q166 598 164 572T152 524T125 486T74 460V507Q100 520 109 537T118 584V608H74V714Z"  />
<glyph unicode="&#x201A;" horiz-adv-x="240" d="M74 106H166V19Q166 -10 164 -36T152 -84T125 -122T74 -148V-101Q100 -88 109 -71T118 -24V0H74V106Z"  />
<glyph unicode="&#x201C;" horiz-adv-x="407" d="M171 460H79V547Q79 575 81 601T93 650T120 688T171 714V667Q145 654 136 637T127 590V566H171V460ZM328 460H236V547Q236 575 238 601T250 650T277 688T328 714V667Q302 654 293 637T284 590V566H328V460Z"  />
<glyph unicode="&#x201D;" horiz-adv-x="407" d="M171 627Q171 598 169 572T157 524T130 486T79 460V507Q105 520 114 537T123 584V608H79V714H171V627ZM328 627Q328 598 326 572T314 524T287 486T236 460V507Q262 520 271 537T280 584V608H236V714H328V627Z"  />
<glyph unicode="&#x201E;" horiz-adv-x="407" d="M171 19Q171 -10 169 -36T157 -84T130 -122T79 -148V-101Q105 -88 114 -71T123 -24V0H79V106H171V19ZM328 19Q328 -10 326 -36T314 -84T287 -122T236 -148V-101Q262 -88 271 -71T280 -24V0H236V106H328V19Z"  />
<glyph unicode="&#x2020;" horiz-adv-x="482" d="M199 714H283V508H455V436H283V-140H199V436H27V508H199V714Z"  />
<glyph unicode="&#x2021;" horiz-adv-x="482" d="M199 714H283V521H455V449H283V132H455V60H283V-140H199V60H27V132H199V449H27V521H199V714Z"  />
<glyph unicode="&#x2022;" horiz-adv-x="500" d="M72 357Q72 394 86 426T124 483T180 521T250 535Q287 535 319 521T376 483T414 427T428 357Q428 320 414 288T376 231T320 193T250 179Q213 179 181 193T124 231T86 287T72 357Z"  />
<glyph unicode="&#x2026;" horiz-adv-x="1000" d="M787 106H879V0H787V106ZM454 106H546V0H454V106ZM121 106H213V0H121V106Z"  />
<glyph unicode="&#x2030;" horiz-adv-x="1037" d="M551 -14Q506 -14 480 2T441 44T424 105T420 178Q420 215 423 250T440 311T480 354T551 370Q596 370 622 354T661 312T678 250T682 178Q682 140 679 106T662 45T622 2T551 -14ZM551 40Q572 40 584 50T601 78T608 121T610 178Q610 209 609 234T602 278T584 306T551 316Q530 316 518 306T501 278T494 235T492 178Q492 147 493 122T500 78T518 50T551 40ZM177 324Q132 324 106 340T67 382T50 443T46 516Q46 553 49 588T66 649T106 692T177 708Q222 708 248 692T287 650T304 588T308 516Q308 478 305 444T288 383T248 340T177 324ZM860 -14Q815 -14 789 2T750 44T733 105T729 178Q729 215 732 250T749 311T789 354T860 370Q905 370 931 354T970 312T987 250T991 178Q991 140 988 106T971 45T931 2T860 -14ZM177 378Q198 378 210 388T227 416T234 459T236 516Q236 547 235 572T228 616T210 644T177 654Q156 654 144 644T127 616T120 573T118 516Q118 485 119 460T126 416T144 388T177 378ZM479 708H549L239 -14H169L479 708ZM860 40Q881 40 893 50T910 78T917 121T919 178Q919 209 918 234T911 278T893 306T860 316Q839 316 827 306T810 278T803 235T801 178Q801 147 802 122T809 78T827 50T860 40Z"  />
<glyph unicode="&#x2039;" horiz-adv-x="240" d="M49 323L191 466V378L97 284L191 190V102L49 245V323Z"  />
<glyph unicode="&#x203A;" horiz-adv-x="240" d="M191 245L49 102V190L143 284L49 378V466L191 323V245Z"  />
<glyph unicode="&#x20AC;" horiz-adv-x="480" d="M433 590Q406 613 379 627T316 642Q274 642 248 625T207 581T186 519T176 451H403L382 391H172L171 336H366L345 276H172Q173 241 178 202T197 130T239 76T311 54Q354 54 388 72T455 116V29Q419 6 383 -4T304 -14Q238 -14 196 10T129 75T94 168T80 276H19L40 336H79L80 391H18L39 451H83Q88 503 102 550T142 633T210 690T312 711Q357 711 392 698T465 661L433 590Z"  />
<glyph unicode="&#x2122;" horiz-adv-x="990" d="M848 642H846L707 302H668L529 642H527V302H461V714H559L689 398L816 714H914V302H848V642ZM185 654H52V714H381V654H251V302H185V654Z"  />

</font>
</defs>
</svg>
