<?xml version="1.0" encoding="UTF-8" standalone="no"?>
<svg
   xmlns:dc="http://purl.org/dc/elements/1.1/"
   xmlns:cc="http://creativecommons.org/ns#"
   xmlns:rdf="http://www.w3.org/1999/02/22-rdf-syntax-ns#"
   xmlns:svg="http://www.w3.org/2000/svg"
   xmlns="http://www.w3.org/2000/svg"
   viewBox="0 0 2465.9126 499.71249"
   height="499.71249"
   width="2465.9126"
   xml:space="preserve"
   version="1.1"
   id="svg2"><metadata
     id="metadata8"><rdf:RDF><cc:Work
         rdf:about=""><dc:format>image/svg+xml</dc:format><dc:type
           rdf:resource="http://purl.org/dc/dcmitype/StillImage" /></cc:Work></rdf:RDF></metadata><defs
     id="defs6" /><g
     transform="matrix(1.25,0,0,-1.25,0,499.7125)"
     id="g10"><g
       transform="scale(0.134492,0.134492)"
       id="g12"><path
         id="path14"
         style="fill:#f14b1c;fill-opacity:1;fill-rule:nonzero;stroke:none"
         d="m 6002.36,2546.73 c -588.72,567.31 -1515.31,567.31 -2104.04,0 l 0,-2113.382 c 588.73,-575.719 1515.32,-567.387 2104.04,0 l 0,660.362 -481.2,0 0,-417.776 c -255.98,-258.391 -895.89,-248.282 -1141.62,0 l 0,1622.356 c 258.37,261.31 883.28,256.54 1141.62,0 l 0,-414.56 481.2,0 0,663" /><path
         id="path16"
         style="fill:#f14b1c;fill-opacity:1;fill-rule:nonzero;stroke:none"
         d="m 8200.63,486.379 -944.27,0 0,2004.131 944.27,0 c 300.24,-525.47 300.24,-1478.65 0,-2004.131 z m 334.14,2485.831 -1760.11,0 0,-2965.13187 1760.11,0 c 496.98,869.70287 496.98,2095.43187 0,2965.13187" /><path
         id="path18"
         style="fill:#f14b1c;fill-opacity:1;fill-rule:nonzero;stroke:none"
         d="m 10133.5,2297.49 c 277.6,277.58 903,238.66 1141.6,0 l 0,-1049.06 -1142.3,0 0.7,1049.06 z m 0,-1531.506 1141.6,0 0,-761.49181 481.2,0.84765 0,2542.05016 c -588.7,567.29 -1515.3,566.45 -2103.99,-0.9 l 0,-2541.99781 481.19,0 0,761.49181" /><path
         id="path20"
         style="fill:#f14b1c;fill-opacity:1;fill-rule:nonzero;stroke:none"
         d="m 13992.4,1348.42 -1000.5,0 0,1142.31 1000.5,-0.73 c 277.7,-277.57 238.7,-902.93 0,-1141.58 z m 255.2,1624.01 -1735.8,0 0,-2968.43 481.7,0 0,861.723 1254.1,0 c 560.5,581.357 560.5,1525.357 0,2106.707" /><path
         id="path22"
         style="fill:#f14b1c;fill-opacity:1;fill-rule:nonzero;stroke:none"
         d="m 2892.36,867.152 -550.22,0 0,1342.308 -200.75,-50.88 0,-1291.428 -505.61,0 0,1189.678 -215.62,-50.88 0,-1138.798 -498.172,0 0,1087.918 -215.629,-50.87 0,-821.42 -253.617,0 -147.89,630.82 0,750.24 357.753,187.8 1926.955,0 302.8,-286.72 0,-1497.768 z m 0,-387.519 -809.65,-153.563 -170.44,355.196 980.09,0 0,-201.633 z m -200.69,2476.857 -2150.037,0 L 0,2621.16 0,1649.41 221.605,770.492 l 395.532,0 0,-208.191 1015.313,0 L 1897.89,0 l 1306.76,241.777 0,2212.773 -512.98,501.94" /></g></g></svg>