<?xml version="1.0" encoding="utf-8"?>
<!-- Generator: Adobe Illustrator 23.0.0, SVG Export Plug-In . SVG Version: 6.00 Build 0)  -->
<svg version="1.1" id="Layer_1" xmlns="http://www.w3.org/2000/svg" xmlns:xlink="http://www.w3.org/1999/xlink" x="0px" y="0px"
	 viewBox="0 0 590 164" style="enable-background:new 0 0 726 164;" xml:space="preserve">
<style type="text/css">
	.st0{fill:#FFFFFF;}
</style>
  <g>
    <path class="st0" d="M116.2,24.1c-32.2-31-82.9-31-115,0v115.6c32.2,31.5,82.9,31,115,0v-36.1H89.8v22.8c-14,14.1-49,13.6-62.4,0
			V37.7c14.1-14.3,48.3-14,62.4,0v22.7h26.3V24.1z"/>
		<path class="st0" d="M254.6,0.9h-96.2V163h96.2C281.8,115.4,281.8,48.4,254.6,0.9z M236.4,136.8h-51.6V27.2h51.6
			C252.8,55.9,252.8,108,236.4,136.8z"/>
		<path class="st0" d="M342.1,121.5h62.4v41.6l26.3,0v-139c-32.2-31-82.9-31-115,0v139h26.3V121.5z M342.1,37.7
			c15.2-15.2,49.4-13.1,62.4,0v57.4H342L342.1,37.7z"/>
		<path class="st0" d="M567,0.8h-94.9v162.3h26.3V116H567C597.7,84.2,597.7,32.6,567,0.8z M553.1,89.6h-54.7V27.2l54.7,0
			C568.2,42.4,566.1,76.6,553.1,89.6z"/>
	</g>
</svg>
