<?xml version="1.0" encoding="UTF-8" standalone="no"?>
<!-- Created with Inkscape (http://www.inkscape.org/) -->
<svg
   xmlns:svg="http://www.w3.org/2000/svg"
   xmlns="http://www.w3.org/2000/svg"
   version="1.0"
   width="162.5"
   height="162.5"
   id="svg101">
  <defs
     id="defs4" />
  <path
     d="M 10.1562,34.5312 C 10.1562,34.5312 35.0391,9.64844 35.0391,9.64844 C 35.0391,9.64844 95.6641,70.9917 95.6641,70.9917 C 95.6641,70.9917 93.5713,88.1807 93.5713,88.1807 C 93.5713,88.1807 131.729,126.724 131.729,126.724 C 131.729,126.724 137.192,127.529 137.192,127.529 C 137.192,127.529 142.866,133.499 142.866,133.499 C 142.866,133.499 133.576,143.086 133.576,143.086 C 133.576,143.086 127.841,137.475 127.841,137.475 C 127.841,137.475 126.949,130.996 126.949,130.996 C 126.949,130.996 88.8522,92.6023 88.8522,92.6023 C 88.8522,92.6023 70.7198,95.6385 70.7198,95.6385 C 70.7198,95.6385 9.64844,35.5469 10.1562,34.5312 z "
     transform="translate(2.3277,2.7247)"
     style="font-size:12px;fill:#f0f0f8;fill-opacity:0.19607795;fill-rule:evenodd;stroke:#4a4b4f;stroke-width:12.5;stroke-linecap:round;stroke-linejoin:round"
     id="path751" />
</svg>
