<?xml version="1.0" encoding="UTF-8" standalone="no"?>
<!-- Created with Inkscape (http://www.inkscape.org/) -->
<svg
   xmlns:svg="http://www.w3.org/2000/svg"
   xmlns="http://www.w3.org/2000/svg"
   version="1.0"
   width="162.5"
   height="162.5"
   id="svg101">
  <defs
     id="defs6" />
  <path
     d="M 28.4375,153.867 C 28.4375,153.867 138.125,153.867 138.125,153.867 C 138.125,153.867 138.633,33.5157 138.633,33.5157 C 138.633,33.5157 110.703,10.1562 110.703,10.1562 C 110.703,10.1562 28.9453,10.1562 28.9453,10.1562 C 28.9453,10.1562 28.9453,154.883 28.4375,153.867 z "
     transform="translate(1.01562,0)"
     style="font-size:12px;fill:#f0f0f8;fill-opacity:0.19607795;fill-rule:evenodd;stroke:#4a4b4f;stroke-width:12.5;stroke-linecap:round;stroke-linejoin:round"
     id="path218" />
  <path
     d="M 108.672,10.6641 C 108.672,10.6641 109.18,36.5625 109.18,36.5625 C 109.18,36.5625 140.664,36.5625 140.664,36.5625"
     transform="translate(-3.04688,3.04688)"
     style="font-size:12px;fill:#f0f0f8;fill-opacity:0.19607795;fill-rule:evenodd;stroke:#4a4b4f;stroke-width:6.25;stroke-linecap:round;stroke-linejoin:round"
     id="path219" />
  <path
     d="M 41.6407,132.539 C 31.4844,115.273 129.493,100.546 115.782,114.257 C 99.5318,128.984 85.3125,52.3046 93.9454,52.3046 C 101.055,52.3046 50.7812,145.742 41.6407,132.539 z "
     transform="translate(1.52344,-6.09375)"
     style="font-size:12px;fill:none;fill-rule:evenodd;stroke:#ff0000;stroke-width:6.25;stroke-linecap:round;stroke-linejoin:round"
     id="path1503" />
</svg>
