<svg xmlns="http://www.w3.org/2000/svg">
<defs>
<font horiz-adv-x="515" id="7816f72f-f47e-4715-8cd7-960e3723846a">
<font-face font-family="" panose-1="2 11 4 3 2 2 2 2 2 4" ascent="967" descent="-214" units-per-em="1000" alphabetic="0">
</font-face>
<missing-glyph horiz-adv-x="278" />

<glyph unicode="&#xA;" />
<glyph unicode="&#xD;" />
<glyph unicode=" " horiz-adv-x="278" />
<glyph unicode="!" horiz-adv-x="241" d="M79 0V106H163V0H79ZM87 501V714H155V501L140 178H102L87 501Z"  />
<glyph unicode="&quot;" horiz-adv-x="370" d="M220 714H283V471H220V714ZM87 714H150V471H87V714Z"  />
<glyph unicode="#" horiz-adv-x="556" d="M223 424L201 268H342L364 424H223ZM497 223H386L355 0H305L336 223H195L164 0H114L145 223H35V268H151L173 424H63V469H179L210 691H260L229 469H370L401 691H451L420 469H525V424H414L392 268H497V223Z"  />
<glyph unicode="$" horiz-adv-x="556" d="M92 228Q93 141 135 94T257 38V334Q215 343 177 356T110 391T64 447T47 534Q47 579 63 615T108 676T175 715T257 729V807H296V729Q339 729 378 714T446 670T492 601T508 512H445Q444 587 403 631T296 676V388Q339 379 380 366T454 330T507 272T527 185Q527 136 508 99T456 36T382 -2T296 -15V-100H257V-14Q140 -3 87 55T29 228H92ZM257 676Q227 676 201 668T154 641T122 595T110 527Q110 492 122 470T155 434T202 412T257 397V676ZM296 38Q328 38 358 46T411 72T449 117T464 184Q464 220 449 244T409 283T355 309T296 326V38Z"  />
<glyph unicode="%" horiz-adv-x="889" d="M228 706Q270 706 300 692T350 652T378 592T387 517Q387 477 378 443T350 383T301 343T228 328Q186 328 156 342T106 382T78 442T69 517Q69 557 78 591T106 651T155 691T228 706ZM667 318Q635 318 615 305T582 270T566 223T561 173Q561 149 565 124T582 78T614 44T667 30Q698 30 718 43T751 78T768 124T773 173Q773 197 768 222T751 269T719 304T667 318ZM667 363Q709 363 739 349T789 309T817 249T826 174Q826 134 817 100T789 40T740 0T667 -15Q625 -15 595 -1T545 39T517 99T508 174Q508 214 517 248T545 308T594 348T667 363ZM643 725H690L238 -34H190L643 725ZM228 661Q196 661 176 648T143 613T127 566T122 516Q122 492 126 467T143 421T175 387T228 373Q259 373 279 386T312 421T329 467T334 516Q334 540 329 565T312 612T280 647T228 661Z"  />
<glyph unicode="&amp;" horiz-adv-x="611" d="M284 661Q245 661 217 638T189 569Q189 550 197 531T217 493T243 457T269 425Q288 437 307 451T343 482T369 521T379 569Q379 614 351 637T284 661ZM465 93Q426 44 372 15T255 -15Q209 -15 170 -2T101 36T56 99T39 185Q39 223 55 255T96 313T153 360T214 397Q199 416 184 435T156 476T135 520T126 569Q126 602 138 628T172 674T222 703T284 714Q317 714 345 704T395 674T429 629T442 569Q442 536 430 509T399 460T354 420T302 384L458 196Q471 222 475 248T479 316H542Q542 286 534 239T500 145L620 0H541L465 93ZM248 356Q222 342 196 325T149 286T115 238T102 179Q102 147 115 122T149 77T199 48T257 38Q311 38 353 67T426 140L248 356Z"  />
<glyph unicode="&apos;" horiz-adv-x="278" d="M108 714H171V471H108V714Z"  />
<glyph unicode="(" horiz-adv-x="241" d="M192 -191Q159 -136 133 -82T88 27T61 142T51 266Q51 394 88 510T192 729H242Q175 622 145 499T114 243Q114 189 123 132T149 18T189 -91T242 -191H192Z"  />
<glyph unicode=")" horiz-adv-x="241" d="M49 729Q82 674 108 620T153 511T180 396T190 272Q190 144 153 28T49 -191H-1Q66 -84 96 39T127 295Q127 349 118 406T92 520T51 629T-1 729H49Z"  />
<glyph unicode="*" horiz-adv-x="352" d="M27 595L41 632L156 591V714H195V591L310 632L325 595L207 556L279 458L247 435L174 535L101 435L69 458L142 556L27 595Z"  />
<glyph unicode="+" horiz-adv-x="600" d="M274 503H327V278H552V225H327V0H274V225H49V278H274V503Z"  />
<glyph unicode="&#x2c;" horiz-adv-x="278" d="M181 106V-1Q181 -23 176 -44T159 -84T132 -117T93 -137V-94Q105 -90 114 -79T129 -55T137 -27T139 0H97V106H181Z"  />
<glyph unicode="-" horiz-adv-x="370" d="M60 246V304H310V246H60Z"  />
<glyph unicode="." horiz-adv-x="278" d="M97 0V106H181V0H97Z"  />
<glyph unicode="/" horiz-adv-x="333" d="M-13 -15L295 729H346L41 -15H-13Z"  />
<glyph unicode="0" horiz-adv-x="556" d="M278 706Q354 706 402 673T476 587T512 471T522 346Q522 284 513 220T477 104T402 19T278 -15Q201 -15 154 18T80 104T44 220T34 345Q34 406 43 470T79 587T153 672T278 706ZM278 653Q218 653 182 622T128 545T103 445T97 346Q97 300 103 247T127 147T182 69T278 38Q338 38 374 69T428 146T453 246T459 346Q459 391 453 445T429 545T374 622T278 653Z"  />
<glyph unicode="1" horiz-adv-x="556" d="M97 565Q138 566 171 569T229 585T270 625T294 700H345V0H282V520H97V565Z"  />
<glyph unicode="2" horiz-adv-x="556" d="M497 0H36Q37 52 54 92T99 164T162 222T234 273T307 323T373 378Q402 407 416 437T431 510Q431 544 419 570T385 615T335 643T274 653Q231 653 201 637T151 594T124 532T116 458H53Q52 512 65 557T107 636T177 687T277 706Q323 706 362 694T431 656T477 595T494 509Q494 465 480 429T441 363T384 308T318 260Q292 243 259 223T194 177T138 123T108 58H497V0Z"  />
<glyph unicode="3" horiz-adv-x="556" d="M96 223Q94 181 105 147T139 89T195 52T271 38Q305 38 337 48T395 78T435 126T450 193Q450 230 437 258T401 304T348 332T282 341H229V394H282Q306 394 331 401T377 424T411 464T424 521Q424 555 412 580T379 621T330 645T271 653Q232 653 202 640T152 604T121 548T112 476H49Q49 525 64 567T108 640T178 688T270 706Q311 706 350 696T419 664T468 608T487 528Q487 471 457 429T369 373V371Q438 360 475 314T513 198Q513 147 494 107T441 40T364 -1T272 -15Q218 -15 173 1T95 47T46 122T33 223H96Z"  />
<glyph unicode="4" horiz-adv-x="556" d="M353 227V608H351L87 227H353ZM30 235L354 700H411V227H516V174H411V0H353V174H30V235Z"  />
<glyph unicode="5" horiz-adv-x="556" d="M99 200Q100 164 113 134T150 83T204 50T271 38Q311 38 343 53T399 95T434 156T446 229Q446 268 433 301T396 358T339 397T267 411Q220 411 179 390T111 328H57L125 691H475V633H169L124 401L126 399Q152 430 192 447T274 464Q328 464 371 446T445 396T492 320T509 222Q509 171 490 128T438 53T361 3T266 -15Q217 -15 176 0T104 42T55 110T36 200H99Z"  />
<glyph unicode="6" horiz-adv-x="556" d="M442 523Q434 581 396 617T296 653Q235 653 197 622T138 544T110 443T103 340H105Q130 392 180 424T291 456Q343 456 386 439T459 390T505 316T522 222Q522 171 505 128T456 53T381 3T285 -15Q221 -15 175 4T99 68T55 184T40 357Q40 378 42 412T54 484T79 562T123 634T192 686T290 706Q383 706 438 661T505 523H442ZM290 403Q249 403 217 389T162 349T128 291T116 218Q116 181 126 148T157 91T212 52T291 38Q328 38 359 52T412 91T447 149T459 218Q459 256 448 290T415 349T362 388T290 403Z"  />
<glyph unicode="7" horiz-adv-x="556" d="M51 691H501V633Q468 599 422 542T333 405T257 224T218 0H150Q156 89 174 168T227 322T313 474T438 633H51V691Z"  />
<glyph unicode="8" horiz-adv-x="556" d="M278 401Q307 400 334 407T381 431T414 472T427 531Q427 561 416 584T384 622T337 645T278 653Q249 653 222 645T174 622T141 584T128 531Q128 496 141 471T175 430T223 407T278 401ZM490 531Q490 474 460 434T376 377V375Q444 361 481 314T519 196Q519 143 500 104T448 38T371 -2T278 -15Q229 -15 185 -2T108 37T56 103T37 196Q39 265 76 314T179 375V377Q124 394 95 433T65 531Q65 576 83 609T132 663T200 695T277 706Q316 706 354 696T422 664T471 609T490 531ZM278 38Q315 38 347 47T404 76T442 126T456 196Q456 234 442 262T403 310T346 339T278 348Q242 349 210 340T153 311T115 264T100 196Q100 157 114 127T152 78T208 48T278 38Z"  />
<glyph unicode="9" horiz-adv-x="556" d="M114 168Q122 110 160 74T260 38Q321 38 359 69T418 147T446 248T453 351H451Q426 299 376 267T265 235Q212 235 170 252T97 301T51 375T34 469Q34 520 51 563T100 638T175 688T271 706Q335 706 381 687T457 623T501 507T516 334Q516 313 514 279T502 207T477 129T433 57T364 5T266 -15Q173 -15 118 30T51 168H114ZM266 288Q307 288 339 302T394 342T428 400T440 473Q440 510 430 543T399 600T344 639T265 653Q227 653 197 639T144 600T109 542T97 473Q97 435 108 401T141 342T194 303T266 288Z"  />
<glyph unicode=":" horiz-adv-x="278" d="M97 0V106H181V0H97ZM97 394V500H181V394H97Z"  />
<glyph unicode=";" horiz-adv-x="278" d="M97 394V500H181V394H97ZM181 106V-1Q181 -23 176 -44T159 -84T132 -117T93 -137V-94Q105 -90 114 -79T129 -55T137 -27T139 0H97V106H181Z"  />
<glyph unicode="&lt;" horiz-adv-x="600" d="M554 -8L46 226V280L554 514V459L108 253L554 47V-8Z"  />
<glyph unicode="=" horiz-adv-x="600" d="M552 128H49V181H552V128ZM552 325H49V378H552V325Z"  />
<glyph unicode="&gt;" horiz-adv-x="600" d="M492 253L46 459V514L554 280V226L46 -8V47L492 253Z"  />
<glyph unicode="?" horiz-adv-x="537" d="M231 106H315V0H231V106ZM54 494Q54 547 69 590T113 664T184 712T281 729Q323 729 359 717T424 680T468 622T484 544Q484 488 460 449T397 374Q365 342 347 325T320 291T308 249T304 179H241Q240 225 246 256T266 312T302 360T356 412Q384 438 402 470T421 541Q421 571 410 596T379 638T333 666T278 676Q237 676 207 662T156 624T126 566T117 494H54Z"  />
<glyph unicode="@" horiz-adv-x="800" d="M518 256Q513 240 510 225T507 199T513 180T531 173Q564 173 595 196T649 255T686 335T700 421Q700 483 678 532T616 614T526 666T416 684Q346 684 288 658T188 588T123 483T100 353Q100 285 124 226T190 124T291 55T418 30Q455 30 491 39T562 65T625 107T676 163H727Q704 122 671 89T597 33T511 -2T418 -15Q337 -15 269 14T152 93T75 212T47 360Q47 438 75 505T154 622T270 700T414 729Q486 729 548 707T655 643T727 544T753 418Q753 358 733 305T679 213T605 151T521 128Q495 128 476 145T454 195H452Q429 171 396 150T325 129Q294 129 270 140T228 172T202 218T193 274Q193 326 210 377T258 470T333 537T430 563Q463 563 491 544T536 479L561 544H614L518 256ZM426 510Q388 510 357 487T303 430T268 355T256 279Q256 234 279 208T339 182Q374 182 404 206T456 266T492 343T505 417Q505 435 498 451T480 481T455 502T426 510Z"  />
<glyph unicode="A" horiz-adv-x="630" d="M173 280H454L316 646L173 280ZM281 714H357L637 0H564L477 222H152L66 0H-7L281 714Z"  />
<glyph unicode="B" horiz-adv-x="667" d="M140 401H374Q415 401 445 410T495 436T525 475T535 522Q535 656 374 656H140V401ZM72 714H374Q419 714 460 706T533 677T584 623T603 539Q603 511 594 485T569 437T530 400T479 379V377Q548 368 589 321T630 203Q630 177 623 143T589 76T512 22T374 0H72V714ZM140 58H374Q412 58 446 64T506 88T547 133T562 205Q562 274 513 308T374 343H140V58Z"  />
<glyph unicode="C" horiz-adv-x="704" d="M594 498Q585 539 565 571T515 626T450 659T375 671Q304 671 253 644T170 573T122 472T106 357Q106 298 121 242T169 142T253 70T375 43Q424 43 464 61T534 110T581 182T604 272H672Q665 206 641 153T579 63T490 5T375 -15Q291 -15 228 15T122 97T59 216T38 357Q38 430 59 497T122 616T227 698T375 729Q426 729 474 714T562 670T628 597T662 498H594Z"  />
<glyph unicode="D" horiz-adv-x="685" d="M72 714H319Q481 710 564 622T647 357Q647 180 564 92T319 0H72V714ZM140 58H285Q362 58 417 74T509 127T562 220T579 357Q579 437 562 494T509 587T418 639T285 656H140V58Z"  />
<glyph unicode="E" horiz-adv-x="593" d="M72 714H565V656H140V398H538V340H140V58H570V0H72V714Z"  />
<glyph unicode="F" horiz-adv-x="537" d="M72 714H525V656H140V398H482V340H140V0H72V714Z"  />
<glyph unicode="G" horiz-adv-x="741" d="M682 0H633L624 130H622Q604 92 578 65T519 20T451 -6T375 -15Q291 -15 228 15T122 97T59 216T38 357Q38 430 59 497T122 616T227 698T375 729Q431 729 481 714T570 669T636 595T673 492H605Q602 523 585 554T538 612T467 654T375 671Q304 671 253 644T170 573T122 472T106 357Q106 298 121 242T169 142T253 70T375 43Q434 43 480 62T559 117T607 200T622 305H379V363H682V0Z"  />
<glyph unicode="H" horiz-adv-x="704" d="M72 714H140V404H564V714H632V0H564V346H140V0H72V714Z"  />
<glyph unicode="I" horiz-adv-x="222" d="M77 714H145V0H77V714Z"  />
<glyph unicode="J" horiz-adv-x="500" d="M360 714H428V199Q428 145 417 105T382 38T318 -2T220 -15Q158 -15 120 5T59 60T29 138T21 229H89Q90 206 91 174T105 113T145 64T226 43Q266 43 292 53T333 86T354 144T360 228V714Z"  />
<glyph unicode="K" horiz-adv-x="648" d="M72 714H140V330L555 714H647L328 419L662 0H574L277 372L140 245V0H72V714Z"  />
<glyph unicode="L" horiz-adv-x="537" d="M72 714H140V58H540V0H72V714Z"  />
<glyph unicode="M" horiz-adv-x="833" d="M70 714H170L417 88L663 714H763V0H695V617H693L449 0H385L140 617H138V0H70V714Z"  />
<glyph unicode="N" horiz-adv-x="704" d="M71 714H147L563 110H565V714H633V0H557L141 604H139V0H71V714Z"  />
<glyph unicode="O" horiz-adv-x="741" d="M102 357Q102 298 117 242T165 142T249 70T371 43Q441 43 492 70T575 141T623 242T639 357Q639 415 624 471T576 572T492 644T371 671Q300 671 249 644T166 573T118 472T102 357ZM34 357Q34 430 55 497T118 616T223 698T371 729Q455 729 518 699T623 617T686 498T707 357Q707 284 686 217T623 98T518 16T371 -15Q287 -15 224 15T118 97T55 216T34 357Z"  />
<glyph unicode="P" horiz-adv-x="630" d="M140 364H374Q445 364 489 400T533 510Q533 584 489 620T374 656H140V364ZM72 714H389Q437 714 476 701T543 661T586 596T601 510Q601 462 586 424T543 360T476 320T389 306H140V0H72V714Z"  />
<glyph unicode="Q" horiz-adv-x="741" d="M667 -46L556 38Q519 12 473 -1T371 -15Q287 -15 224 15T118 97T55 216T34 357Q34 430 55 497T118 616T223 698T371 729Q455 729 518 699T623 617T686 498T707 357Q707 274 680 200T599 74L701 -4L667 -46ZM548 113Q596 158 617 223T639 357Q639 415 624 471T576 572T492 644T371 671Q300 671 249 644T166 573T118 472T102 357Q102 298 117 242T165 142T249 70T371 43Q448 43 503 78L409 149L444 192L548 113Z"  />
<glyph unicode="R" horiz-adv-x="667" d="M140 375H394Q425 375 453 384T502 412T535 455T548 514Q548 580 510 618T394 656H140V375ZM72 714H399Q443 714 482 703T551 670T598 612T616 528Q616 460 581 410T477 346V344Q512 339 535 326T572 291T593 243T602 183Q603 165 604 139T608 87T617 37T635 0H560Q554 10 551 24T545 54T543 85T541 111Q539 148 535 186T516 253T474 301T398 317H140V0H72V714Z"  />
<glyph unicode="S" horiz-adv-x="630" d="M104 235Q103 180 121 143T170 84T245 53T337 43Q365 43 398 51T459 76T507 121T526 188Q526 218 513 240T478 277T430 301T379 317L220 356Q188 364 159 376T108 408T73 457T59 528Q59 554 69 589T106 655T182 707T305 729Q358 729 406 715T490 673T548 604T569 507H501Q499 548 483 578T440 629T379 660T306 671Q271 671 239 664T182 640T142 596T127 529Q127 504 135 486T159 455T193 434T235 420L409 377Q447 367 480 353T539 317T579 264T594 189Q594 177 592 157T580 115T553 69T505 27T429 -3T321 -15Q258 -15 204 -1T112 44T54 122T36 235H104Z"  />
<glyph unicode="T" horiz-adv-x="556" d="M-5 714H561V656H312V0H244V656H-5V714Z"  />
<glyph unicode="U" horiz-adv-x="685" d="M65 714H133V272Q133 210 147 167T188 96T254 56T342 43Q391 43 430 55T497 95T538 166T552 272V714H620V257Q620 202 605 153T556 66T470 7T342 -15Q268 -15 216 7T130 66T81 152T65 257V714Z"  />
<glyph unicode="V" horiz-adv-x="593" d="M-7 714H66L298 75H300L530 714H602L337 0H258L-7 714Z"  />
<glyph unicode="W" horiz-adv-x="907" d="M0 714H73L235 89H237L411 714H496L671 89H673L836 714H904L707 0H635L454 639H452L272 0H198L0 714Z"  />
<glyph unicode="X" horiz-adv-x="574" d="M3 714H83L285 415L494 714H570L326 366L584 0H502L285 315L65 0H-12L245 368L3 714Z"  />
<glyph unicode="Y" horiz-adv-x="611" d="M271 294L-10 714H71L306 352L540 714H621L339 294V0H271V294Z"  />
<glyph unicode="Z" horiz-adv-x="574" d="M37 714H551V654L81 58H561V0H5V60L475 656H37V714Z"  />
<glyph unicode="[" horiz-adv-x="241" d="M76 -191V729H237V676H139V-138H237V-191H76Z"  />
<glyph unicode="\" horiz-adv-x="333" d="M292 -15L-13 729H38L346 -15H292Z"  />
<glyph unicode="]" horiz-adv-x="241" d="M165 729V-191H4V-138H102V676H4V729H165Z"  />
<glyph unicode="^" horiz-adv-x="600" d="M44 238L274 691H326L556 238H499L299 628L102 238H44Z"  />
<glyph unicode="_" horiz-adv-x="500" d="M0 -125V-75H500V-125H0Z"  />
<glyph unicode="`" horiz-adv-x="185" d="M-31 729H47L152 588H101L-31 729Z"  />
<glyph unicode="a" horiz-adv-x="519" d="M54 358Q59 449 116 490T263 531Q297 531 331 525T392 500T436 450T453 365V91Q453 53 490 53Q500 53 510 57V4Q499 2 491 1T469 0Q445 0 431 6T408 25T398 53T395 90H393Q376 65 359 46T320 13T270 -8T205 -15Q169 -15 138 -6T83 21T46 68T32 136Q32 190 56 220T119 267T208 289T309 302Q328 304 343 307T369 318T384 338T390 372Q390 404 380 424T351 457T308 473T255 478Q196 478 158 450T117 358H54ZM390 282H388Q382 271 365 266T335 259Q295 252 253 247T175 230T118 199T95 140Q95 116 104 98T130 66T167 45T210 38Q246 38 279 49T336 81T375 132T390 200V282Z"  />
<glyph unicode="b" horiz-adv-x="574" d="M60 714H123V418H125Q135 446 153 467T196 502T247 523T304 531Q363 531 406 509T479 450T522 363T536 258Q536 203 522 154T479 67T407 7T304 -15Q241 -15 192 15T120 98H118V0H60V714ZM473 258Q473 298 464 337T434 408T381 458T304 478Q254 478 220 459T164 408T133 338T123 258Q123 218 132 179T163 108T219 58T304 38Q349 38 381 57T433 108T463 178T473 258Z"  />
<glyph unicode="c" horiz-adv-x="519" d="M424 354Q411 412 376 445T278 478Q233 478 199 459T143 409T109 339T97 258Q97 217 108 178T142 107T199 57T278 38Q307 38 333 49T379 79T412 126T428 185H491Q478 91 422 38T278 -15Q219 -15 174 7T97 66T50 152T34 258Q34 313 50 363T97 450T173 509T278 531Q361 531 418 487T487 354H424Z"  />
<glyph unicode="d" horiz-adv-x="574" d="M514 0H456V98H454Q444 73 425 52T380 16T327 -7T270 -15Q211 -15 168 7T95 66T52 153T38 258Q38 313 52 362T95 449T167 509T270 531Q299 531 326 524T378 502T420 467T449 418H451V714H514V0ZM101 258Q101 218 110 179T140 108T193 58T270 38Q320 38 354 57T410 108T441 178T451 258Q451 298 442 337T411 408T355 458T270 478Q225 478 193 459T141 408T111 338T101 258Z"  />
<glyph unicode="e" horiz-adv-x="519" d="M431 294Q430 330 419 363T386 421T335 462T267 478Q228 478 198 463T147 422T114 363T97 294H431ZM97 241Q97 206 107 170T137 105T189 57T267 38Q336 38 375 74T429 170H492Q472 82 419 34T267 -15Q205 -15 161 7T89 66T48 153T34 258Q34 309 47 358T89 445T161 507T267 531Q329 531 373 506T444 441T484 348T494 241H97Z"  />
<glyph unicode="f" horiz-adv-x="259" d="M259 463H157V0H94V463H6V516H94V563Q94 596 99 624T118 672T156 703T219 714Q233 714 245 713T272 710V656Q259 658 248 659T226 661Q200 661 186 653T166 632T158 600T157 561V516H259V463Z"  />
<glyph unicode="g" horiz-adv-x="556" d="M496 42Q496 -16 484 -62T444 -140T374 -189T267 -206Q228 -206 191 -197T125 -169T76 -121T53 -50H116Q121 -79 135 -98T170 -130T216 -147T267 -153Q355 -153 394 -103T433 42V112H431Q409 64 366 35T267 6Q205 6 161 26T89 83T47 167T34 271Q34 324 49 371T94 454T167 510T267 531Q324 531 368 501T431 427H433V516H496V42ZM267 59Q308 59 339 76T391 122T422 188T433 264Q433 302 424 340T395 409T344 459T267 478Q222 478 190 460T137 411T107 343T97 264Q97 225 107 188T138 123T191 77T267 59Z"  />
<glyph unicode="h" horiz-adv-x="537" d="M59 714H122V427H124Q133 450 149 469T188 502T236 523T289 531Q343 531 379 517T438 478T469 415T478 332V0H415V322Q415 355 409 383T388 433T348 466T284 478Q246 478 217 465T166 428T134 372T122 301V0H59V714Z"  />
<glyph unicode="i" horiz-adv-x="185" d="M61 714H124V613H61V714ZM61 516H124V0H61V516Z"  />
<glyph unicode="j" horiz-adv-x="185" d="M61 714H124V613H61V714ZM61 516H124V-48Q124 -77 120 -103T103 -148T69 -179T14 -191Q3 -191 -8 -190T-30 -189V-137Q-22 -138 -13 -138T4 -138Q41 -138 51 -117T61 -63V516Z"  />
<glyph unicode="k" horiz-adv-x="500" d="M60 714H123V266L409 516H493L273 325L508 0H429L225 281L123 196V0H60V714Z"  />
<glyph unicode="l" horiz-adv-x="185" d="M61 714H124V0H61V714Z"  />
<glyph unicode="m" horiz-adv-x="833" d="M60 516H118V429H121Q146 476 187 503T290 531Q341 531 382 506T438 430Q461 481 506 506T602 531Q773 531 773 350V0H710V347Q710 411 683 444T588 478Q547 478 520 463T477 421T455 362T448 292V0H385V350Q385 376 380 399T362 440T328 468T277 478Q236 478 207 464T160 424T132 363T123 288V0H60V516Z"  />
<glyph unicode="n" horiz-adv-x="537" d="M59 516H122V427H124Q133 450 149 469T188 502T236 523T289 531Q343 531 379 517T438 478T469 415T478 332V0H415V322Q415 355 409 383T388 433T348 466T284 478Q246 478 217 465T166 428T134 372T122 301V0H59V516Z"  />
<glyph unicode="o" horiz-adv-x="556" d="M278 478Q233 478 199 459T143 409T109 339T97 258Q97 217 108 178T142 107T199 57T278 38Q323 38 357 57T413 107T447 177T459 258Q459 299 448 338T414 409T357 459T278 478ZM278 531Q337 531 382 509T459 450T506 363T522 258Q522 202 506 153T459 66T383 7T278 -15Q219 -15 174 7T97 66T50 152T34 258Q34 313 50 363T97 450T173 509T278 531Z"  />
<glyph unicode="p" horiz-adv-x="574" d="M60 516H118V418H120Q142 471 191 501T304 531Q363 531 406 509T479 450T522 363T536 258Q536 203 522 154T479 67T407 7T304 -15Q275 -15 248 -8T196 13T154 49T125 98H123V-191H60V516ZM473 258Q473 298 464 337T434 408T381 458T304 478Q252 478 217 460T161 412T132 342T123 258Q123 218 132 179T163 108T219 58T304 38Q349 38 381 57T433 108T463 178T473 258Z"  />
<glyph unicode="q" horiz-adv-x="574" d="M514 -191H451V98H449Q439 70 421 49T378 14T327 -8T270 -15Q211 -15 168 7T95 66T52 153T38 258Q38 313 52 362T95 449T167 509T270 531Q298 531 326 523T380 500T424 464T454 418H456V516H514V-191ZM101 258Q101 218 110 179T140 108T193 58T270 38Q320 38 354 57T410 108T441 178T451 258Q451 298 442 337T411 408T355 458T270 478Q225 478 193 459T141 408T111 338T101 258Z"  />
<glyph unicode="r" horiz-adv-x="315" d="M60 516H118V395H120Q144 458 194 492T315 523V460Q272 462 237 449T177 410T137 350T123 275V0H60V516Z"  />
<glyph unicode="s" horiz-adv-x="481" d="M369 365Q368 394 357 415T328 451T285 471T234 478Q213 478 192 474T152 459T123 431T112 389Q112 368 122 354T149 329T184 313T219 302L303 283Q330 279 356 269T403 241T437 199T450 140Q450 98 431 69T383 21T316 -6T243 -15Q152 -15 96 28T31 167H94Q98 103 140 71T246 38Q268 38 293 43T339 60T373 90T387 136Q387 158 378 174T352 200T316 218T274 230L193 248Q162 256 136 266T91 292T60 330T49 386Q49 425 66 453T112 498T174 523T243 531Q282 531 315 521T374 490T415 438T432 365H369Z"  />
<glyph unicode="t" horiz-adv-x="296" d="M160 516H265V463H160V115Q160 84 168 67T211 47Q238 47 265 50V-4Q251 -4 237 -5T209 -6Q146 -6 121 19T97 110V463H7V516H97V671H160V516Z"  />
<glyph unicode="u" horiz-adv-x="537" d="M478 0H420V93H418Q393 41 346 13T240 -15Q191 -15 157 -2T101 37T69 99T59 181V516H122V180Q124 110 154 74T260 38Q300 38 329 55T378 102T406 168T415 245V516H478V0Z"  />
<glyph unicode="v" horiz-adv-x="463" d="M2 516H72L234 63H236L396 516H461L268 0H201L2 516Z"  />
<glyph unicode="w" horiz-adv-x="741" d="M8 516H75L207 74H209L335 516H406L532 74H534L666 516H733L567 0H498L371 434H369L243 0H174L8 516Z"  />
<glyph unicode="x" horiz-adv-x="481" d="M201 268L16 516H95L242 320L386 516H465L279 269L480 0H400L238 217L79 0H1L201 268Z"  />
<glyph unicode="y" horiz-adv-x="463" d="M2 516H69L239 76L398 516H461L237 -79Q223 -112 212 -133T185 -167T151 -185T101 -191Q82 -190 72 -190T53 -186V-133Q64 -135 74 -136T96 -138Q117 -138 130 -132T154 -116T171 -90T186 -57L208 2L2 516Z"  />
<glyph unicode="z" horiz-adv-x="463" d="M91 53H446V0H15V51L352 463H38V516H432V471L91 53Z"  />
<glyph unicode="{" horiz-adv-x="333" d="M243 -191Q201 -191 178 -157T155 -66V82Q155 112 152 141T141 192T119 228T83 242V295Q105 295 119 308T141 344T152 396T155 455V604Q155 661 178 695T243 729H293V676H273Q258 676 248 668T231 645T221 612T218 573V432Q218 391 209 362T188 313T165 283T148 270V268Q153 265 164 255T188 226T209 177T218 106V-35Q218 -55 221 -74T230 -107T247 -129T273 -138H293V-191H243Z"  />
<glyph unicode="|" horiz-adv-x="222" d="M85 786H138V-214H85V786Z"  />
<glyph unicode="}" horiz-adv-x="333" d="M90 729Q132 729 155 695T178 604V456Q178 426 181 397T192 346T214 310T250 296V243Q228 243 214 230T192 194T181 142T178 83V-66Q178 -123 155 -157T90 -191H40V-138H60Q75 -138 85 -130T102 -107T112 -74T115 -35V106Q115 147 124 176T145 225T168 255T185 268V270Q180 273 169 283T145 312T124 361T115 432V573Q115 593 112 611T103 644T86 667T60 676H40V729H90Z"  />
<glyph unicode="~" horiz-adv-x="600" d="M531 279Q520 263 508 248T481 220T448 201T406 193Q376 193 349 203T296 226Q270 238 244 248T189 258Q156 258 137 237T105 189L69 225Q77 241 88 256T115 284T149 303T194 311Q222 311 251 301T309 279Q338 266 363 256T407 246Q437 246 457 267T495 315L531 279Z"  />
<glyph unicode="&#xA0;" horiz-adv-x="278" />
<glyph unicode="&#xA1;" horiz-adv-x="241" d="M163 516V410H79V516H163ZM155 15V-191H87V15L102 338H140L155 15Z"  />
<glyph unicode="&#xA2;" horiz-adv-x="556" d="M444 354Q432 410 399 443T309 478V38Q336 39 360 51T402 82T433 128T448 185H511Q499 94 445 41T309 -15V-116H270V-14Q217 -9 177 14T110 75T68 159T54 258Q54 310 68 357T109 440T177 500T270 529V618H309V531Q348 530 382 518T442 484T485 430T507 354H444ZM270 476Q231 470 203 450T155 399T127 333T117 258Q117 220 126 184T155 117T202 66T270 39V476Z"  />
<glyph unicode="&#xA3;" horiz-adv-x="556" d="M46 362H109Q86 399 70 438T54 523Q54 577 73 615T125 679T198 717T282 729Q393 729 454 666T514 492H451Q451 532 441 566T409 624T356 662T282 676Q250 676 221 667T168 638T131 589T117 519Q117 493 122 474T137 437T156 402T176 362H336V330H194Q205 312 211 283T218 233Q218 205 209 179T184 130T149 87T108 51L110 49Q132 60 156 69T207 79Q240 79 264 73T309 59Q330 51 350 45T395 38Q427 38 458 54T510 94L542 46Q509 17 475 1T396 -15Q364 -15 339 -10T290 4T244 19T189 26Q170 26 156 23T130 15T106 2T79 -15L43 39Q65 57 85 77T121 120T146 169T155 225Q155 248 147 279T127 330H46V362Z"  />
<glyph unicode="&#xA4;" horiz-adv-x="556" d="M94 346Q94 306 108 271T148 211T207 171T279 156Q317 156 351 170T410 210T449 271T464 346Q464 386 450 421T410 481T351 521T279 536Q241 536 207 522T148 482T109 421T94 346ZM86 193Q60 225 46 263T31 346Q31 390 45 429T85 500L29 556L67 594L123 538Q154 564 194 579T279 594Q323 594 361 580T432 539L487 594L525 556L471 502Q497 470 512 431T527 346Q527 301 512 262T471 190L525 136L487 98L432 153Q401 127 363 113T279 98Q234 98 195 113T123 154L67 98L29 136L86 193Z"  />
<glyph unicode="&#xA5;" horiz-adv-x="556" d="M110 349H216L6 714H78L277 349L478 714H547L336 349H445V304H314L308 294V221H445V176H308V0H245V176H110V221H245V294L239 304H110V349Z"  />
<glyph unicode="&#xA6;" horiz-adv-x="222" d="M85 661H138V411H85V661ZM85 161H138V-89H85V161Z"  />
<glyph unicode="&#xA7;" horiz-adv-x="556" d="M511 231Q511 206 503 185T479 145T444 114T402 91Q452 47 452 -18Q452 -53 438 -79T399 -124T345 -151T283 -161Q198 -161 148 -116T98 16H161Q160 -10 168 -32T191 -71T229 -98T277 -108Q298 -108 318 -103T354 -87T379 -60T389 -19Q389 19 364 46T300 96T217 142T134 191T71 253T45 337Q45 362 53 383T77 423T112 454T154 477Q104 521 104 586Q104 620 118 647T157 692T211 719T273 729Q358 729 408 684T458 552H395Q396 577 388 600T365 639T327 666T279 676Q258 676 238 671T202 655T177 628T167 587Q167 549 192 522T256 472T339 426T422 377T485 315T511 231ZM448 230Q448 270 420 300T351 356T266 403T190 447Q154 432 131 407T108 339Q108 301 136 271T204 215T288 167T364 122Q400 137 424 162T448 230Z"  />
<glyph unicode="&#xA8;" horiz-adv-x="185" d="M-30 610V711H38V610H-30ZM147 610V711H215V610H147Z"  />
<glyph unicode="&#xA9;" horiz-adv-x="800" d="M543 435Q534 480 500 510T410 541Q369 541 339 527T287 488T256 430T245 357Q245 318 255 285T287 226T338 187T410 173Q465 173 499 203T543 279H594Q589 243 573 215T532 167T476 138T409 128Q358 128 318 145T250 193T207 265T192 357Q192 406 207 448T249 521T317 569T409 586Q444 586 475 576T532 547T573 500T594 435H543ZM714 357Q714 424 690 482T624 583T525 651T400 676Q332 676 275 651T175 583T110 482T86 357Q86 290 109 232T175 131T274 63T400 38Q467 38 524 63T624 131T690 232T714 357ZM772 357Q772 279 744 211T665 93T547 14T400 -15Q321 -15 253 13T135 92T57 211T28 357Q28 435 56 503T135 621T253 700T400 729Q479 729 547 701T665 622T743 503T772 357Z"  />
<glyph unicode="&#xAA;" horiz-adv-x="311" d="M7 597Q10 655 48 680T147 706Q171 706 194 702T236 687T264 657T275 606V434Q277 411 300 411Q307 411 313 414V380Q308 379 301 378T286 377Q255 377 247 391T238 433H236Q195 368 113 368Q62 368 29 390T-5 464Q-5 499 10 518T51 548T109 562T175 569Q201 572 214 577T228 600Q228 620 221 633T202 653T174 664T140 667Q105 667 80 650T54 597H7ZM228 549H226Q223 542 212 540T192 535Q162 530 135 527T87 517T54 499T42 466Q42 452 48 442T65 423T87 411T111 407Q134 407 155 413T193 432T218 462T228 502V549Z"  />
<glyph unicode="&#xAB;" horiz-adv-x="426" d="M60 244V306L193 431V364L99 275L193 186V119L60 244ZM221 244V306L354 431V364L260 275L354 186V119L221 244Z"  />
<glyph unicode="&#xAC;" horiz-adv-x="600" d="M499 325H49V378H552V111H499V325Z"  />
<glyph unicode="&#xAD;" horiz-adv-x="370" d="M60 246V304H310V246H60Z"  />
<glyph unicode="&#xAE;" horiz-adv-x="800" d="M388 378Q412 378 435 379T477 388T506 410T517 453Q517 475 509 489T486 512T453 524T415 527H318V378H388ZM318 142H265V572H430Q503 572 536 542T570 453Q570 424 562 404T538 369T504 346T462 333L590 142H528L407 333H318V142ZM400 676Q332 676 275 651T175 583T110 482T86 357Q86 290 109 232T175 131T274 63T400 38Q467 38 524 63T624 131T690 232T714 357Q714 424 690 482T624 583T525 651T400 676ZM400 729Q479 729 547 701T665 622T743 503T772 357Q772 279 744 211T665 93T547 14T400 -15Q321 -15 253 13T135 92T57 211T28 357Q28 435 56 503T135 621T253 700T400 729Z"  />
<glyph unicode="&#xAF;" horiz-adv-x="185" d="M-72 638V683H257V638H-72Z"  />
<glyph unicode="&#xB0;" horiz-adv-x="400" d="M95 562Q95 540 103 521T125 488T159 465T200 457Q222 457 241 465T274 487T296 521T305 562Q305 584 297 603T274 636T241 658T200 667Q178 667 159 659T126 636T103 603T95 562ZM56 562Q56 592 67 618T97 663T143 694T200 706Q230 706 256 695T301 664T332 618T344 562Q344 532 333 506T302 460T256 429T200 418Q170 418 144 429T98 459T67 505T56 562Z"  />
<glyph unicode="&#xB1;" horiz-adv-x="600" d="M49 53H552V0H49V53ZM274 503H327V323H552V270H327V90H274V270H50V323H274V503Z"  />
<glyph unicode="&#xB2;" horiz-adv-x="333" d="M24 553Q22 622 59 664T174 706Q237 706 278 676T320 581Q320 555 311 533T285 493T248 460T205 432Q188 421 168 410T127 385T91 354T69 313H317V274H15Q16 322 39 354T96 411T167 457T234 505Q253 523 263 541T273 585Q273 604 265 619T242 645T210 661T170 667Q143 667 124 658T93 632T76 596T71 553H24Z"  />
<glyph unicode="&#xB3;" horiz-adv-x="333" d="M135 517H170Q186 517 202 521T232 535T254 558T263 591Q263 630 234 648T165 667Q116 667 90 638T65 564H18Q19 627 57 666T165 706Q193 706 219 700T265 680T298 645T310 595Q310 560 290 535T233 502V500Q278 494 302 467T327 397Q327 365 314 340T280 299T229 274T166 265Q92 265 48 303T8 412H55Q53 364 82 334T165 304Q186 304 207 310T244 327T270 356T280 394Q280 436 248 457T170 478H135V517Z"  />
<glyph unicode="&#xB4;" horiz-adv-x="185" d="M84 590H33L138 731H216L84 590Z"  />
<glyph unicode="&#xB5;" horiz-adv-x="537" d="M478 0H420V93H418Q393 41 346 13T240 -15Q208 -15 178 -7T123 20V-191H59V516H122V180Q124 110 154 74T260 38Q300 38 329 55T378 102T406 168T415 245V516H478V0Z"  />
<glyph unicode="&#xB6;" horiz-adv-x="600" d="M273 328Q229 328 191 343T126 384T82 444T66 518Q66 613 124 663T289 714H519V-177H456V661H336V-177H273V328Z"  />
<glyph unicode="&#xB7;" horiz-adv-x="278" d="M139 375Q163 375 180 357T198 315Q198 292 180 275T139 257Q115 257 98 275T80 317Q80 340 98 357T139 375Z"  />
<glyph unicode="&#xB8;" horiz-adv-x="185" d="M126 0L82 -54Q96 -51 107 -51T132 -51T160 -59T186 -80T198 -117Q198 -140 188 -156T162 -182T127 -198T88 -203Q64 -203 40 -198T-6 -182L8 -150Q21 -155 43 -159T87 -164Q108 -164 124 -154T140 -121Q140 -103 127 -93T97 -83Q62 -83 46 -91L30 -76L91 0H126Z"  />
<glyph unicode="&#xB9;" horiz-adv-x="333" d="M35 623Q62 624 83 626T121 635T147 656T163 697H203V274H156V584H35V623Z"  />
<glyph unicode="&#xBA;" horiz-adv-x="334" d="M167 407Q196 407 218 418T254 448T276 489T284 537Q284 561 277 584T255 626T218 655T167 667Q138 667 116 656T80 626T58 585T50 537Q50 513 57 490T79 448T116 419T167 407ZM162 368Q123 368 94 381T44 417T14 471T3 537Q3 572 13 603T44 657T93 693T162 706Q204 706 236 693T289 657T320 603T331 537Q331 502 321 471T289 417T236 381T162 368Z"  />
<glyph unicode="&#xBB;" horiz-adv-x="426" d="M72 186L166 275L72 364V431L205 306V244L72 119V186ZM233 186L327 275L233 364V431L366 306V244L233 119V186Z"  />
<glyph unicode="&#xBC;" horiz-adv-x="834" d="M478 139H642V355H640L478 139ZM642 100H432V139L645 423H689V139H757V100H689V0H642V100ZM48 623Q75 624 96 626T134 635T160 656T176 697H216V274H169V584H48V623ZM586 725H633L181 -34H133L586 725Z"  />
<glyph unicode="&#xBD;" horiz-adv-x="834" d="M489 279Q487 348 524 390T639 432Q702 432 743 402T785 307Q785 281 776 259T750 219T713 186T670 158Q653 147 633 136T592 111T556 80T534 39H782V0H480Q481 48 504 80T561 137T632 183T699 231Q718 249 728 267T738 311Q738 330 730 345T707 371T675 387T635 393Q608 393 589 384T558 358T541 322T536 279H489ZM48 623Q75 624 96 626T134 635T160 656T176 697H216V274H169V584H48V623ZM586 725H633L181 -34H133L586 725Z"  />
<glyph unicode="&#xBE;" horiz-adv-x="834" d="M478 139H642V355H640L478 139ZM642 100H432V139L645 423H689V139H757V100H689V0H642V100ZM626 725H673L221 -34H173L626 725ZM135 517H170Q186 517 202 521T232 535T254 558T263 591Q263 630 234 648T165 667Q116 667 90 638T65 564H18Q19 627 57 666T165 706Q193 706 219 700T265 680T298 645T310 595Q310 560 290 535T233 502V500Q278 494 302 467T327 397Q327 365 314 340T280 299T229 274T166 265Q92 265 48 303T8 412H55Q53 364 82 334T165 304Q186 304 207 310T244 327T270 356T280 394Q280 436 248 457T170 478H135V517Z"  />
<glyph unicode="&#xBF;" horiz-adv-x="537" d="M307 410H223V516H307V410ZM484 29Q484 -24 469 -67T425 -142T354 -189T257 -206Q215 -206 179 -194T114 -157T70 -99T54 -21Q54 35 78 74T141 149Q173 181 191 198T218 232T230 274T234 344H297Q298 298 292 267T272 211T236 163T182 111Q154 85 136 53T117 -18Q117 -48 128 -73T159 -115T205 -143T260 -153Q301 -153 331 -139T382 -101T412 -43T421 29H484Z"  />
<glyph unicode="&#xC0;" horiz-adv-x="630" d="M173 280H454L316 646L173 280ZM281 714H357L637 0H564L477 222H152L66 0H-7L281 714ZM175 919H253L358 778H307L175 919Z"  />
<glyph unicode="&#xC1;" horiz-adv-x="630" d="M173 280H454L316 646L173 280ZM281 714H357L637 0H564L477 222H152L66 0H-7L281 714ZM332 780H281L386 921H464L332 780Z"  />
<glyph unicode="&#xC2;" horiz-adv-x="630" d="M173 280H454L316 646L173 280ZM281 714H357L637 0H564L477 222H152L66 0H-7L281 714ZM465 779H400L314 881L226 779H168L282 920H351L465 779Z"  />
<glyph unicode="&#xC3;" horiz-adv-x="630" d="M173 280H454L316 646L173 280ZM281 714H357L637 0H564L477 222H152L66 0H-7L281 714ZM474 900Q471 883 465 866T448 836T422 814T387 805Q367 805 348 812T312 828T280 844T249 851Q229 851 217 838T199 800H160Q162 818 169 835T187 865T213 887T249 896Q271 896 289 889T324 873T355 858T384 852Q407 852 418 866T436 900H474Z"  />
<glyph unicode="&#xC4;" horiz-adv-x="630" d="M173 280H454L316 646L173 280ZM281 714H357L637 0H564L477 222H152L66 0H-7L281 714ZM194 800V901H262V800H194ZM371 800V901H439V800H371Z"  />
<glyph unicode="&#xC5;" horiz-adv-x="630" d="M173 280H454L316 646L173 280ZM281 714H357L637 0H564L477 222H152L66 0H-7L281 714ZM250 860Q250 831 269 812T318 792Q347 792 366 811T386 860Q386 889 367 908T318 928Q289 928 270 909T250 860ZM211 860Q211 882 219 901T242 935T276 958T318 967Q340 967 359 959T393 936T416 902T425 860Q425 838 417 819T394 785T360 762T318 753Q296 753 277 761T243 784T220 818T211 860Z"  />
<glyph unicode="&#xC6;" horiz-adv-x="907" d="M445 284V656H405L216 284H445ZM513 58H884V0H445V226H186L70 0H-7L367 714H880V656H513V398H857V340H513V58Z"  />
<glyph unicode="&#xC7;" horiz-adv-x="704" d="M594 498Q585 539 565 571T515 626T450 659T375 671Q304 671 253 644T170 573T122 472T106 357Q106 298 121 242T169 142T253 70T375 43Q424 43 464 61T534 110T581 182T604 272H672Q665 206 641 153T579 63T490 5T375 -15H374L342 -54Q356 -51 367 -51T392 -51T420 -59T446 -80T458 -117Q458 -140 448 -156T422 -182T387 -198T348 -203Q324 -203 300 -198T254 -182L268 -150Q281 -155 303 -159T347 -164Q368 -164 384 -154T400 -121Q400 -103 387 -93T357 -83Q322 -83 306 -91L290 -76L340 -13Q277 -8 227 15Q164 46 122 97T59 216T38 357Q38 430 59 497T122 616T227 698T375 729Q426 729 474 714T562 670T628 597T662 498H594Z"  />
<glyph unicode="&#xC8;" horiz-adv-x="593" d="M72 714H565V656H140V398H538V340H140V58H570V0H72V714ZM184 919H262L367 778H316L184 919Z"  />
<glyph unicode="&#xC9;" horiz-adv-x="593" d="M72 714H565V656H140V398H538V340H140V58H570V0H72V714ZM331 780H280L385 921H463L331 780Z"  />
<glyph unicode="&#xCA;" horiz-adv-x="593" d="M72 714H565V656H140V398H538V340H140V58H570V0H72V714ZM469 779H404L318 881L230 779H172L286 920H355L469 779Z"  />
<glyph unicode="&#xCB;" horiz-adv-x="593" d="M72 714H565V656H140V398H538V340H140V58H570V0H72V714ZM195 800V901H263V800H195ZM372 800V901H440V800H372Z"  />
<glyph unicode="&#xCC;" horiz-adv-x="222" d="M77 714H145V0H77V714ZM-36 919H42L147 778H96L-36 919Z"  />
<glyph unicode="&#xCD;" horiz-adv-x="222" d="M77 714H145V0H77V714ZM128 780H77L182 921H260L128 780Z"  />
<glyph unicode="&#xCE;" horiz-adv-x="222" d="M77 714H145V0H77V714ZM260 779H195L109 881L21 779H-37L77 920H146L260 779Z"  />
<glyph unicode="&#xCF;" horiz-adv-x="222" d="M77 714H145V0H77V714ZM-11 800V901H57V800H-11ZM166 800V901H234V800H166Z"  />
<glyph unicode="&#xD0;" horiz-adv-x="685" d="M72 714H319Q481 710 564 622T647 357Q647 180 564 92T319 0H72V348H0V393H72V714ZM140 393H376V348H140V58H285Q362 58 417 74T509 127T562 220T579 357Q579 437 562 494T509 587T418 639T285 656H140V393Z"  />
<glyph unicode="&#xD1;" horiz-adv-x="704" d="M71 714H147L563 110H565V714H633V0H557L141 604H139V0H71V714ZM516 900Q513 883 507 866T490 836T464 814T429 805Q409 805 390 812T354 828T322 844T291 851Q271 851 259 838T241 800H202Q204 818 211 835T229 865T255 887T291 896Q313 896 331 889T366 873T397 858T426 852Q449 852 460 866T478 900H516Z"  />
<glyph unicode="&#xD2;" horiz-adv-x="741" d="M102 357Q102 298 117 242T165 142T249 70T371 43Q441 43 492 70T575 141T623 242T639 357Q639 415 624 471T576 572T492 644T371 671Q300 671 249 644T166 573T118 472T102 357ZM34 357Q34 430 55 497T118 616T223 698T371 729Q455 729 518 699T623 617T686 498T707 357Q707 284 686 217T623 98T518 16T371 -15Q287 -15 224 15T118 97T55 216T34 357ZM239 919H317L422 778H371L239 919Z"  />
<glyph unicode="&#xD3;" horiz-adv-x="741" d="M102 357Q102 298 117 242T165 142T249 70T371 43Q441 43 492 70T575 141T623 242T639 357Q639 415 624 471T576 572T492 644T371 671Q300 671 249 644T166 573T118 472T102 357ZM34 357Q34 430 55 497T118 616T223 698T371 729Q455 729 518 699T623 617T686 498T707 357Q707 284 686 217T623 98T518 16T371 -15Q287 -15 224 15T118 97T55 216T34 357ZM396 780H345L450 921H528L396 780Z"  />
<glyph unicode="&#xD4;" horiz-adv-x="741" d="M102 357Q102 298 117 242T165 142T249 70T371 43Q441 43 492 70T575 141T623 242T639 357Q639 415 624 471T576 572T492 644T371 671Q300 671 249 644T166 573T118 472T102 357ZM34 357Q34 430 55 497T118 616T223 698T371 729Q455 729 518 699T623 617T686 498T707 357Q707 284 686 217T623 98T518 16T371 -15Q287 -15 224 15T118 97T55 216T34 357ZM521 779H456L370 881L282 779H224L338 920H407L521 779Z"  />
<glyph unicode="&#xD5;" horiz-adv-x="741" d="M102 357Q102 298 117 242T165 142T249 70T371 43Q441 43 492 70T575 141T623 242T639 357Q639 415 624 471T576 572T492 644T371 671Q300 671 249 644T166 573T118 472T102 357ZM34 357Q34 430 55 497T118 616T223 698T371 729Q455 729 518 699T623 617T686 498T707 357Q707 284 686 217T623 98T518 16T371 -15Q287 -15 224 15T118 97T55 216T34 357ZM529 900Q526 883 520 866T503 836T477 814T442 805Q422 805 403 812T367 828T335 844T304 851Q284 851 272 838T254 800H215Q217 818 224 835T242 865T268 887T304 896Q326 896 344 889T379 873T410 858T439 852Q462 852 473 866T491 900H529Z"  />
<glyph unicode="&#xD6;" horiz-adv-x="741" d="M102 357Q102 298 117 242T165 142T249 70T371 43Q441 43 492 70T575 141T623 242T639 357Q639 415 624 471T576 572T492 644T371 671Q300 671 249 644T166 573T118 472T102 357ZM34 357Q34 430 55 497T118 616T223 698T371 729Q455 729 518 699T623 617T686 498T707 357Q707 284 686 217T623 98T518 16T371 -15Q287 -15 224 15T118 97T55 216T34 357ZM246 800V901H314V800H246ZM423 800V901H491V800H423Z"  />
<glyph unicode="&#xD7;" horiz-adv-x="600" d="M74 440L111 477L300 288L489 477L526 440L337 251L526 62L489 25L300 213L111 25L74 62L262 251L74 440Z"  />
<glyph unicode="&#xD8;" horiz-adv-x="741" d="M698 696L625 615Q667 564 687 497T707 357Q707 284 686 217T623 98T518 16T371 -15Q296 -15 239 8T140 74L64 -12L37 13L116 101Q74 153 54 219T34 357Q34 430 55 497T118 616T223 698T371 729Q445 729 502 706T601 641L672 719L698 696ZM558 593Q526 628 480 649T371 671Q300 671 249 644T166 573T118 472T102 357Q102 300 116 247T160 150L558 593ZM183 122Q216 85 262 64T371 43Q441 43 492 70T575 141T623 242T639 357Q639 414 625 468T580 565L183 122Z"  />
<glyph unicode="&#xD9;" horiz-adv-x="685" d="M65 714H133V272Q133 210 147 167T188 96T254 56T342 43Q391 43 430 55T497 95T538 166T552 272V714H620V257Q620 202 605 153T556 66T470 7T342 -15Q268 -15 216 7T130 66T81 152T65 257V714ZM214 919H292L397 778H346L214 919Z"  />
<glyph unicode="&#xDA;" horiz-adv-x="685" d="M65 714H133V272Q133 210 147 167T188 96T254 56T342 43Q391 43 430 55T497 95T538 166T552 272V714H620V257Q620 202 605 153T556 66T470 7T342 -15Q268 -15 216 7T130 66T81 152T65 257V714ZM365 780H314L419 921H497L365 780Z"  />
<glyph unicode="&#xDB;" horiz-adv-x="685" d="M65 714H133V272Q133 210 147 167T188 96T254 56T342 43Q391 43 430 55T497 95T538 166T552 272V714H620V257Q620 202 605 153T556 66T470 7T342 -15Q268 -15 216 7T130 66T81 152T65 257V714ZM491 779H426L340 881L252 779H194L308 920H377L491 779Z"  />
<glyph unicode="&#xDC;" horiz-adv-x="685" d="M65 714H133V272Q133 210 147 167T188 96T254 56T342 43Q391 43 430 55T497 95T538 166T552 272V714H620V257Q620 202 605 153T556 66T470 7T342 -15Q268 -15 216 7T130 66T81 152T65 257V714ZM220 800V901H288V800H220ZM397 800V901H465V800H397Z"  />
<glyph unicode="&#xDD;" horiz-adv-x="611" d="M271 294L-10 714H71L306 352L540 714H621L339 294V0H271V294ZM329 780H278L383 921H461L329 780Z"  />
<glyph unicode="&#xDE;" horiz-adv-x="630" d="M140 247H374Q445 247 489 283T533 393Q533 467 489 503T374 539H140V247ZM72 714H140V597H389Q437 597 476 584T543 544T586 479T601 393Q601 345 586 307T543 243T476 203T389 189H140V0H72V714Z"  />
<glyph unicode="&#xDF;" horiz-adv-x="537" d="M61 535Q61 584 75 620T116 681T178 717T260 729Q300 729 335 718T398 684T440 629T456 553Q456 526 449 502T427 457T391 423T343 403V401Q379 398 407 382T454 340T482 282T492 216Q492 160 475 119T429 50T359 8T270 -8Q258 -8 245 -8Q233 -8 220 -6V49Q232 47 243 46T267 45Q298 45 327 53T378 81T415 131T429 205Q429 257 414 289T371 338T305 362T220 368V421Q253 421 284 427T339 447T378 487T393 551Q393 579 383 602T354 641T312 667T261 676Q186 676 155 639T124 530V0H61V535Z"  />
<glyph unicode="&#xE0;" horiz-adv-x="519" d="M54 358Q59 449 116 490T263 531Q297 531 331 525T392 500T436 450T453 365V91Q453 53 490 53Q500 53 510 57V4Q499 2 491 1T469 0Q445 0 431 6T408 25T398 53T395 90H393Q376 65 359 46T320 13T270 -8T205 -15Q169 -15 138 -6T83 21T46 68T32 136Q32 190 56 220T119 267T208 289T309 302Q328 304 343 307T369 318T384 338T390 372Q390 404 380 424T351 457T308 473T255 478Q196 478 158 450T117 358H54ZM390 282H388Q382 271 365 266T335 259Q295 252 253 247T175 230T118 199T95 140Q95 116 104 98T130 66T167 45T210 38Q246 38 279 49T336 81T375 132T390 200V282ZM126 729H204L309 588H258L126 729Z"  />
<glyph unicode="&#xE1;" horiz-adv-x="519" d="M54 358Q59 449 116 490T263 531Q297 531 331 525T392 500T436 450T453 365V91Q453 53 490 53Q500 53 510 57V4Q499 2 491 1T469 0Q445 0 431 6T408 25T398 53T395 90H393Q376 65 359 46T320 13T270 -8T205 -15Q169 -15 138 -6T83 21T46 68T32 136Q32 190 56 220T119 267T208 289T309 302Q328 304 343 307T369 318T384 338T390 372Q390 404 380 424T351 457T308 473T255 478Q196 478 158 450T117 358H54ZM390 282H388Q382 271 365 266T335 259Q295 252 253 247T175 230T118 199T95 140Q95 116 104 98T130 66T167 45T210 38Q246 38 279 49T336 81T375 132T390 200V282ZM278 590H227L332 731H410L278 590Z"  />
<glyph unicode="&#xE2;" horiz-adv-x="519" d="M54 358Q59 449 116 490T263 531Q297 531 331 525T392 500T436 450T453 365V91Q453 53 490 53Q500 53 510 57V4Q499 2 491 1T469 0Q445 0 431 6T408 25T398 53T395 90H393Q376 65 359 46T320 13T270 -8T205 -15Q169 -15 138 -6T83 21T46 68T32 136Q32 190 56 220T119 267T208 289T309 302Q328 304 343 307T369 318T384 338T390 372Q390 404 380 424T351 457T308 473T255 478Q196 478 158 450T117 358H54ZM390 282H388Q382 271 365 266T335 259Q295 252 253 247T175 230T118 199T95 140Q95 116 104 98T130 66T167 45T210 38Q246 38 279 49T336 81T375 132T390 200V282ZM408 589H343L257 691L169 589H111L225 730H294L408 589Z"  />
<glyph unicode="&#xE3;" horiz-adv-x="519" d="M54 358Q59 449 116 490T263 531Q297 531 331 525T392 500T436 450T453 365V91Q453 53 490 53Q500 53 510 57V4Q499 2 491 1T469 0Q445 0 431 6T408 25T398 53T395 90H393Q376 65 359 46T320 13T270 -8T205 -15Q169 -15 138 -6T83 21T46 68T32 136Q32 190 56 220T119 267T208 289T309 302Q328 304 343 307T369 318T384 338T390 372Q390 404 380 424T351 457T308 473T255 478Q196 478 158 450T117 358H54ZM390 282H388Q382 271 365 266T335 259Q295 252 253 247T175 230T118 199T95 140Q95 116 104 98T130 66T167 45T210 38Q246 38 279 49T336 81T375 132T390 200V282ZM415 710Q412 693 406 676T389 646T363 624T328 615Q308 615 289 622T253 638T221 654T190 661Q170 661 158 648T140 610H101Q103 628 110 645T128 675T154 697T190 706Q212 706 230 699T265 683T296 668T325 662Q348 662 359 676T377 710H415Z"  />
<glyph unicode="&#xE4;" horiz-adv-x="519" d="M54 358Q59 449 116 490T263 531Q297 531 331 525T392 500T436 450T453 365V91Q453 53 490 53Q500 53 510 57V4Q499 2 491 1T469 0Q445 0 431 6T408 25T398 53T395 90H393Q376 65 359 46T320 13T270 -8T205 -15Q169 -15 138 -6T83 21T46 68T32 136Q32 190 56 220T119 267T208 289T309 302Q328 304 343 307T369 318T384 338T390 372Q390 404 380 424T351 457T308 473T255 478Q196 478 158 450T117 358H54ZM390 282H388Q382 271 365 266T335 259Q295 252 253 247T175 230T118 199T95 140Q95 116 104 98T130 66T167 45T210 38Q246 38 279 49T336 81T375 132T390 200V282ZM136 610V711H204V610H136ZM313 610V711H381V610H313Z"  />
<glyph unicode="&#xE5;" horiz-adv-x="519" d="M54 358Q59 449 116 490T263 531Q297 531 331 525T392 500T436 450T453 365V91Q453 53 490 53Q500 53 510 57V4Q499 2 491 1T469 0Q445 0 431 6T408 25T398 53T395 90H393Q376 65 359 46T320 13T270 -8T205 -15Q169 -15 138 -6T83 21T46 68T32 136Q32 190 56 220T119 267T208 289T309 302Q328 304 343 307T369 318T384 338T390 372Q390 404 380 424T351 457T308 473T255 478Q196 478 158 450T117 358H54ZM390 282H388Q382 271 365 266T335 259Q295 252 253 247T175 230T118 199T95 140Q95 116 104 98T130 66T167 45T210 38Q246 38 279 49T336 81T375 132T390 200V282ZM189 680Q189 651 208 632T257 612Q286 612 305 631T325 680Q325 709 306 728T257 748Q228 748 209 729T189 680ZM150 680Q150 702 158 721T181 755T215 778T257 787Q279 787 298 779T332 756T355 722T364 680Q364 658 356 639T333 605T299 582T257 573Q235 573 216 581T182 604T159 638T150 680Z"  />
<glyph unicode="&#xE6;" horiz-adv-x="870" d="M453 241Q450 200 459 163T489 98T543 54T621 38Q685 38 722 72T774 167H837Q817 80 760 33T612 -15Q543 -15 495 17T423 115H421Q415 83 394 59T341 18T275 -7T205 -15Q169 -15 138 -6T83 21T46 68T32 136Q32 190 56 220T119 267T208 289T309 302Q328 304 343 307T369 318T384 338T390 372Q390 404 380 424T351 457T308 473T255 478Q196 478 158 450T117 358H54Q59 449 116 490T263 531Q289 531 317 527T370 511T412 478T435 424H437Q447 451 466 471T510 504T562 524T618 531Q682 531 724 507T793 443T830 350T841 241H453ZM390 282H388Q382 271 365 266T335 259Q295 252 253 247T175 230T118 199T95 140Q95 116 104 98T130 66T167 45T210 38Q246 38 279 49T336 81T375 132T390 200V282ZM778 294Q778 330 767 363T734 421T683 462T615 478Q576 478 546 463T494 423T463 364T453 294H778Z"  />
<glyph unicode="&#xE7;" horiz-adv-x="519" d="M424 354Q411 412 376 445T278 478Q233 478 199 459T143 409T109 339T97 258Q97 217 108 178T142 107T199 57T278 38Q307 38 333 49T379 79T412 126T428 185H491Q478 91 421 38Q366 -13 283 -15L251 -54Q265 -51 276 -51T301 -51T329 -59T355 -80T367 -117Q367 -140 357 -156T331 -182T296 -198T257 -203Q233 -203 209 -198T163 -182L177 -150Q190 -155 212 -159T256 -164Q277 -164 293 -154T309 -121Q309 -103 296 -93T266 -83Q231 -83 215 -91L199 -76L249 -13Q207 -9 173 7Q128 29 97 66T50 152T34 258Q34 313 50 363T97 450T173 509T278 531Q361 531 418 487T487 354H424Z"  />
<glyph unicode="&#xE8;" horiz-adv-x="519" d="M431 294Q430 330 419 363T386 421T335 462T267 478Q228 478 198 463T147 422T114 363T97 294H431ZM97 241Q97 206 107 170T137 105T189 57T267 38Q336 38 375 74T429 170H492Q472 82 419 34T267 -15Q205 -15 161 7T89 66T48 153T34 258Q34 309 47 358T89 445T161 507T267 531Q329 531 373 506T444 441T484 348T494 241H97ZM133 729H211L316 588H265L133 729Z"  />
<glyph unicode="&#xE9;" horiz-adv-x="519" d="M431 294Q430 330 419 363T386 421T335 462T267 478Q228 478 198 463T147 422T114 363T97 294H431ZM97 241Q97 206 107 170T137 105T189 57T267 38Q336 38 375 74T429 170H492Q472 82 419 34T267 -15Q205 -15 161 7T89 66T48 153T34 258Q34 309 47 358T89 445T161 507T267 531Q329 531 373 506T444 441T484 348T494 241H97ZM285 590H234L339 731H417L285 590Z"  />
<glyph unicode="&#xEA;" horiz-adv-x="519" d="M431 294Q430 330 419 363T386 421T335 462T267 478Q228 478 198 463T147 422T114 363T97 294H431ZM97 241Q97 206 107 170T137 105T189 57T267 38Q336 38 375 74T429 170H492Q472 82 419 34T267 -15Q205 -15 161 7T89 66T48 153T34 258Q34 309 47 358T89 445T161 507T267 531Q329 531 373 506T444 441T484 348T494 241H97ZM417 589H352L266 691L178 589H120L234 730H303L417 589Z"  />
<glyph unicode="&#xEB;" horiz-adv-x="519" d="M431 294Q430 330 419 363T386 421T335 462T267 478Q228 478 198 463T147 422T114 363T97 294H431ZM97 241Q97 206 107 170T137 105T189 57T267 38Q336 38 375 74T429 170H492Q472 82 419 34T267 -15Q205 -15 161 7T89 66T48 153T34 258Q34 309 47 358T89 445T161 507T267 531Q329 531 373 506T444 441T484 348T494 241H97ZM146 610V711H214V610H146ZM323 610V711H391V610H323Z"  />
<glyph unicode="&#xEC;" horiz-adv-x="185" d="M61 0V516H124V0H61ZM-56 729H22L127 588H76L-56 729Z"  />
<glyph unicode="&#xED;" horiz-adv-x="185" d="M61 0V516H124V0H61ZM110 590H59L164 731H242L110 590Z"  />
<glyph unicode="&#xEE;" horiz-adv-x="185" d="M61 0V516H124V0H61ZM244 589H179L93 691L5 589H-53L61 730H130L244 589Z"  />
<glyph unicode="&#xEF;" horiz-adv-x="185" d="M61 0V516H124V0H61ZM-29 610V711H39V610H-29ZM148 610V711H216V610H148Z"  />
<glyph unicode="&#xF0;" horiz-adv-x="556" d="M235 652Q212 667 189 681T142 707L178 742Q204 728 230 713T282 678L396 742L429 710L320 649Q362 615 397 574T459 485T501 380T516 258Q516 202 501 152T456 65T380 7T271 -15Q211 -15 166 5T92 61T49 145T34 249Q34 301 49 347T95 429T170 485T271 506Q308 506 345 498T404 466H406Q381 513 348 551T273 623L168 564L135 596L235 652ZM276 453Q228 453 194 437T139 392T107 327T97 248Q97 207 107 169T138 102T193 56T274 38Q318 38 351 53T407 97T441 164T453 250Q453 287 443 323T412 389T358 435T276 453Z"  />
<glyph unicode="&#xF1;" horiz-adv-x="537" d="M59 516H122V427H124Q133 450 149 469T188 502T236 523T289 531Q343 531 379 517T438 478T469 415T478 332V0H415V322Q415 355 409 383T388 433T348 466T284 478Q246 478 217 465T166 428T134 372T122 301V0H59V516ZM425 710Q422 693 416 676T399 646T373 624T338 615Q318 615 299 622T263 638T231 654T200 661Q180 661 168 648T150 610H111Q113 628 120 645T138 675T164 697T200 706Q222 706 240 699T275 683T306 668T335 662Q358 662 369 676T387 710H425Z"  />
<glyph unicode="&#xF2;" horiz-adv-x="556" d="M278 478Q233 478 199 459T143 409T109 339T97 258Q97 217 108 178T142 107T199 57T278 38Q323 38 357 57T413 107T447 177T459 258Q459 299 448 338T414 409T357 459T278 478ZM278 531Q337 531 382 509T459 450T506 363T522 258Q522 202 506 153T459 66T383 7T278 -15Q219 -15 174 7T97 66T50 152T34 258Q34 313 50 363T97 450T173 509T278 531ZM146 729H224L329 588H278L146 729Z"  />
<glyph unicode="&#xF3;" horiz-adv-x="556" d="M278 478Q233 478 199 459T143 409T109 339T97 258Q97 217 108 178T142 107T199 57T278 38Q323 38 357 57T413 107T447 177T459 258Q459 299 448 338T414 409T357 459T278 478ZM278 531Q337 531 382 509T459 450T506 363T522 258Q522 202 506 153T459 66T383 7T278 -15Q219 -15 174 7T97 66T50 152T34 258Q34 313 50 363T97 450T173 509T278 531ZM299 590H248L353 731H431L299 590Z"  />
<glyph unicode="&#xF4;" horiz-adv-x="556" d="M278 478Q233 478 199 459T143 409T109 339T97 258Q97 217 108 178T142 107T199 57T278 38Q323 38 357 57T413 107T447 177T459 258Q459 299 448 338T414 409T357 459T278 478ZM278 531Q337 531 382 509T459 450T506 363T522 258Q522 202 506 153T459 66T383 7T278 -15Q219 -15 174 7T97 66T50 152T34 258Q34 313 50 363T97 450T173 509T278 531ZM428 589H363L277 691L189 589H131L245 730H314L428 589Z"  />
<glyph unicode="&#xF5;" horiz-adv-x="556" d="M278 478Q233 478 199 459T143 409T109 339T97 258Q97 217 108 178T142 107T199 57T278 38Q323 38 357 57T413 107T447 177T459 258Q459 299 448 338T414 409T357 459T278 478ZM278 531Q337 531 382 509T459 450T506 363T522 258Q522 202 506 153T459 66T383 7T278 -15Q219 -15 174 7T97 66T50 152T34 258Q34 313 50 363T97 450T173 509T278 531ZM437 710Q434 693 428 676T411 646T385 624T350 615Q330 615 311 622T275 638T243 654T212 661Q192 661 180 648T162 610H123Q125 628 132 645T150 675T176 697T212 706Q234 706 252 699T287 683T318 668T347 662Q370 662 381 676T399 710H437Z"  />
<glyph unicode="&#xF6;" horiz-adv-x="556" d="M278 478Q233 478 199 459T143 409T109 339T97 258Q97 217 108 178T142 107T199 57T278 38Q323 38 357 57T413 107T447 177T459 258Q459 299 448 338T414 409T357 459T278 478ZM278 531Q337 531 382 509T459 450T506 363T522 258Q522 202 506 153T459 66T383 7T278 -15Q219 -15 174 7T97 66T50 152T34 258Q34 313 50 363T97 450T173 509T278 531ZM157 610V711H225V610H157ZM334 610V711H402V610H334Z"  />
<glyph unicode="&#xF7;" horiz-adv-x="600" d="M244 50Q244 73 260 89T300 106Q323 106 339 90T356 50Q356 29 340 12T301 -6Q278 -6 261 10T244 50ZM244 453Q244 476 260 492T300 509Q323 509 339 493T356 453Q356 432 340 415T301 397Q278 397 261 413T244 453ZM49 225V278H552V225H49Z"  />
<glyph unicode="&#xF8;" horiz-adv-x="556" d="M522 499L468 440Q495 402 508 356T522 258Q522 202 506 153T459 66T383 7T278 -15Q224 -15 182 3T110 53L51 -11L29 9L90 76Q62 112 48 159T34 258Q34 313 50 363T97 450T173 509T278 531Q332 531 375 513T448 463L500 519L522 499ZM151 97Q172 71 204 55T278 38Q323 38 357 57T413 107T447 177T459 258Q459 294 451 328T424 392L151 97ZM406 418Q384 445 352 461T278 478Q233 478 199 459T143 409T109 339T97 258Q97 222 105 188T133 123L406 418Z"  />
<glyph unicode="&#xF9;" horiz-adv-x="537" d="M478 0H420V93H418Q393 41 346 13T240 -15Q191 -15 157 -2T101 37T69 99T59 181V516H122V180Q124 110 154 74T260 38Q300 38 329 55T378 102T406 168T415 245V516H478V0ZM142 729H220L325 588H274L142 729Z"  />
<glyph unicode="&#xFA;" horiz-adv-x="537" d="M478 0H420V93H418Q393 41 346 13T240 -15Q191 -15 157 -2T101 37T69 99T59 181V516H122V180Q124 110 154 74T260 38Q300 38 329 55T378 102T406 168T415 245V516H478V0ZM290 590H239L344 731H422L290 590Z"  />
<glyph unicode="&#xFB;" horiz-adv-x="537" d="M478 0H420V93H418Q393 41 346 13T240 -15Q191 -15 157 -2T101 37T69 99T59 181V516H122V180Q124 110 154 74T260 38Q300 38 329 55T378 102T406 168T415 245V516H478V0ZM417 589H352L266 691L178 589H120L234 730H303L417 589Z"  />
<glyph unicode="&#xFC;" horiz-adv-x="537" d="M478 0H420V93H418Q393 41 346 13T240 -15Q191 -15 157 -2T101 37T69 99T59 181V516H122V180Q124 110 154 74T260 38Q300 38 329 55T378 102T406 168T415 245V516H478V0ZM146 610V711H214V610H146ZM323 610V711H391V610H323Z"  />
<glyph unicode="&#xFD;" horiz-adv-x="463" d="M2 516H69L239 76L398 516H461L237 -79Q223 -112 212 -133T185 -167T151 -185T101 -191Q82 -190 72 -190T53 -186V-133Q64 -135 74 -136T96 -138Q117 -138 130 -132T154 -116T171 -90T186 -57L208 2L2 516ZM262 590H211L316 731H394L262 590Z"  />
<glyph unicode="&#xFE;" horiz-adv-x="574" d="M60 714H123V418H125Q135 446 153 467T196 502T247 523T304 531Q363 531 406 509T479 450T522 363T536 258Q536 203 522 154T479 67T407 7T304 -15Q275 -15 248 -8T196 13T154 49T125 98H123V-191H60V714ZM473 258Q473 298 464 337T434 408T381 458T304 478Q254 478 220 459T164 408T133 338T123 258Q123 218 132 179T163 108T219 58T304 38Q349 38 381 57T433 108T463 178T473 258Z"  />
<glyph unicode="&#xFF;" horiz-adv-x="463" d="M2 516H69L239 76L398 516H461L237 -79Q223 -112 212 -133T185 -167T151 -185T101 -191Q82 -190 72 -190T53 -186V-133Q64 -135 74 -136T96 -138Q117 -138 130 -132T154 -116T171 -90T186 -57L208 2L2 516ZM117 610V711H185V610H117ZM294 610V711H362V610H294Z"  />
<glyph unicode="&#x131;" horiz-adv-x="185" d="M61 0V516H124V0H61Z"  />
<glyph unicode="&#x152;" horiz-adv-x="1074" d="M637 398H1005V340H637V58H1046V0H569V70Q551 49 529 33T481 7T428 -9T375 -15Q295 -15 233 15T127 96T60 214T37 357Q37 432 60 499T126 618T232 699T375 729Q432 729 483 712T569 655V714H1043V656H637V398ZM569 509Q569 533 568 548T564 575Q555 598 534 616T486 646T430 664T375 671Q310 671 260 646T175 577T123 477T105 357Q105 294 122 237T174 137T259 69T375 43Q430 43 473 60T551 122Q561 134 564 148T569 177V509Z"  />
<glyph unicode="&#x153;" horiz-adv-x="889" d="M800 294Q800 330 790 363T759 422T709 463T640 478Q600 478 570 463T520 423T489 364T479 294H800ZM862 166Q841 79 782 32T634 -15Q602 -15 573 -7T519 18T476 59T450 116H448Q429 50 380 18T263 -15Q202 -15 159 7T89 67T49 154T36 258Q36 312 50 361T92 448T164 508T266 531Q332 531 381 500T450 404H452Q473 461 523 496T642 531Q757 531 810 458T863 241H479Q479 203 488 167T517 102T567 56T640 38Q706 38 744 72T799 166H862ZM265 478Q216 478 184 457T133 403T107 328T99 246Q99 207 108 170T137 104T188 56T264 38Q312 38 341 58T387 110T410 183T416 262Q416 301 410 339T387 409T341 459T265 478Z"  />
<glyph unicode="&#x160;" horiz-adv-x="630" d="M104 235Q103 180 121 143T170 84T245 53T337 43Q365 43 398 51T459 76T507 121T526 188Q526 218 513 240T478 277T430 301T379 317L220 356Q188 364 159 376T108 408T73 457T59 528Q59 554 69 589T106 655T182 707T305 729Q358 729 406 715T490 673T548 604T569 507H501Q499 548 483 578T440 629T379 660T306 671Q271 671 239 664T182 640T142 596T127 529Q127 504 135 486T159 455T193 434T235 420L409 377Q447 367 480 353T539 317T579 264T594 189Q594 177 592 157T580 115T553 69T505 27T429 -3T321 -15Q258 -15 204 -1T112 44T54 122T36 235H104ZM167 921H232L318 819L406 921H464L350 780H281L167 921Z"  />
<glyph unicode="&#x161;" horiz-adv-x="481" d="M369 365Q368 394 357 415T328 451T285 471T234 478Q213 478 192 474T152 459T123 431T112 389Q112 368 122 354T149 329T184 313T219 302L303 283Q330 279 356 269T403 241T437 199T450 140Q450 98 431 69T383 21T316 -6T243 -15Q152 -15 96 28T31 167H94Q98 103 140 71T246 38Q268 38 293 43T339 60T373 90T387 136Q387 158 378 174T352 200T316 218T274 230L193 248Q162 256 136 266T91 292T60 330T49 386Q49 425 66 453T112 498T174 523T243 531Q282 531 315 521T374 490T415 438T432 365H369ZM97 731H162L248 629L336 731H394L280 590H211L97 731Z"  />
<glyph unicode="&#x178;" horiz-adv-x="611" d="M271 294L-10 714H71L306 352L540 714H621L339 294V0H271V294ZM183 800V901H251V800H183ZM360 800V901H428V800H360Z"  />
<glyph unicode="&#x17D;" horiz-adv-x="574" d="M37 714H551V654L81 58H561V0H5V60L475 656H37V714ZM138 921H203L289 819L377 921H435L321 780H252L138 921Z"  />
<glyph unicode="&#x17E;" horiz-adv-x="463" d="M91 53H446V0H15V51L352 463H38V516H432V471L91 53ZM83 731H148L234 629L322 731H380L266 590H197L83 731Z"  />
<glyph unicode="&#x192;" horiz-adv-x="556" d="M16 -114Q41 -120 68 -120Q90 -119 106 -109T132 -82T149 -46T160 -8L235 386H135L144 439H245L258 508Q267 547 276 584T302 650T349 696T428 714Q444 714 459 713T490 709L478 657Q467 659 455 660T432 661Q400 660 381 646T351 609T334 559T322 506L308 439H421L412 386H299L238 63Q229 18 221 -25T194 -101T142 -154T52 -173Q32 -173 7 -168L16 -114Z"  />
<glyph unicode="&#x2C6;" horiz-adv-x="185" d="M244 589H179L93 691L5 589H-53L61 730H130L244 589Z"  />
<glyph unicode="&#x2C7;" horiz-adv-x="185" d="M-60 731H5L91 629L179 731H237L123 590H54L-60 731Z"  />
<glyph unicode="&#x2DA;" horiz-adv-x="185" d="M25 680Q25 651 44 632T93 612Q122 612 141 631T161 680Q161 709 142 728T93 748Q64 748 45 729T25 680ZM-14 680Q-14 702 -6 721T17 755T51 778T93 787Q115 787 134 779T168 756T191 722T200 680Q200 658 192 639T169 605T135 582T93 573Q71 573 52 581T18 604T-5 638T-14 680Z"  />
<glyph unicode="&#x2DC;" horiz-adv-x="185" d="M249 710Q246 693 240 676T223 646T197 624T162 615Q142 615 123 622T87 638T55 654T24 661Q4 661 -8 648T-26 610H-65Q-63 628 -56 645T-38 675T-12 697T24 706Q46 706 64 699T99 683T130 668T159 662Q182 662 193 676T211 710H249Z"  />
<glyph unicode="&#x2013;" horiz-adv-x="500" d="M0 246V304H500V246H0Z"  />
<glyph unicode="&#x2014;" horiz-adv-x="1000" d="M130 246V304H870V246H130Z"  />
<glyph unicode="&#x2018;" horiz-adv-x="278" d="M95 471V578Q95 600 100 621T117 661T144 694T184 714V671Q171 666 162 656T147 632T139 604T137 577H179V471H95Z"  />
<glyph unicode="&#x2019;" horiz-adv-x="278" d="M183 714V607Q183 585 178 564T161 524T134 491T94 471V514Q107 518 116 529T131 553T139 581T141 608H99V714H183Z"  />
<glyph unicode="&#x201A;" horiz-adv-x="278" d="M183 106V-1Q183 -23 178 -44T161 -84T134 -117T94 -137V-94Q107 -90 116 -79T131 -55T139 -27T141 0H99V106H183Z"  />
<glyph unicode="&#x201C;" horiz-adv-x="370" d="M64 471V578Q64 600 69 621T86 661T113 694T153 714V671Q140 666 131 656T116 632T108 604T106 577H148V471H64ZM218 471V578Q218 600 223 621T240 661T267 694T307 714V671Q294 666 285 656T270 632T262 604T260 577H302V471H218Z"  />
<glyph unicode="&#x201D;" horiz-adv-x="370" d="M152 714V607Q152 585 147 564T130 524T103 491T63 471V514Q76 518 85 529T100 553T108 581T110 608H68V714H152ZM306 714V607Q306 585 301 564T284 524T257 491T217 471V514Q230 518 239 529T254 553T262 581T264 608H222V714H306Z"  />
<glyph unicode="&#x201E;" horiz-adv-x="370" d="M152 106V-1Q152 -23 147 -44T130 -84T103 -117T63 -137V-94Q76 -90 85 -79T100 -55T108 -27T110 0H68V106H152ZM306 106V-1Q306 -23 301 -44T284 -84T257 -117T217 -137V-94Q230 -90 239 -79T254 -55T262 -27T264 0H222V106H306Z"  />
<glyph unicode="&#x2020;" horiz-adv-x="556" d="M48 440V493H246V714H309V493H508V440H309V-151H246V440H48Z"  />
<glyph unicode="&#x2021;" horiz-adv-x="556" d="M48 47V100H246V463H48V516H246V714H309V516H508V463H309V100H508V47H309V-151H246V47H48Z"  />
<glyph unicode="&#x2022;" horiz-adv-x="500" d="M72 357Q72 394 86 426T124 483T180 521T250 535Q287 535 319 521T376 483T415 427T429 357Q429 320 415 288T377 231T320 192T250 178Q213 178 181 192T124 230T86 287T72 357Z"  />
<glyph unicode="&#x2026;" horiz-adv-x="1000" d="M791 0V106H875V0H791ZM458 0V106H542V0H458ZM125 0V106H209V0H125Z"  />
<glyph unicode="&#x2030;" horiz-adv-x="1111" d="M214 661Q184 661 165 650T136 621T122 581T118 537Q118 515 121 493T135 453T165 424T214 413Q244 413 262 424T291 453T306 493T310 537Q310 559 306 581T292 621T263 650T214 661ZM214 706Q254 706 282 693T329 658T355 604T363 537Q363 501 355 470T329 417T283 381T214 368Q174 368 146 381T99 416T73 470T65 537Q65 573 73 604T99 657T145 693T214 706ZM901 278Q871 278 852 267T823 238T809 198T805 154Q805 132 808 110T822 70T852 41T901 30Q931 30 949 41T978 70T993 110T997 154Q997 176 993 198T979 238T950 267T901 278ZM901 323Q941 323 969 310T1016 275T1042 221T1050 154Q1050 118 1042 87T1016 34T970 -2T901 -15Q861 -15 833 -2T786 33T760 87T752 154Q752 190 760 221T786 274T832 310T901 323ZM547 278Q517 278 498 267T469 238T455 198T451 154Q451 132 454 110T468 70T498 41T547 30Q577 30 595 41T624 70T639 110T643 154Q643 176 639 198T625 238T596 267T547 278ZM547 323Q587 323 615 310T662 275T688 221T696 154Q696 118 688 87T662 34T616 -2T547 -15Q507 -15 479 -2T432 33T406 87T398 154Q398 190 406 221T432 274T478 310T547 323ZM582 725H629L177 -34H129L582 725Z"  />
<glyph unicode="&#x2039;" horiz-adv-x="259" d="M53 244V306L186 431V364L92 275L186 186V119L53 244Z"  />
<glyph unicode="&#x203A;" horiz-adv-x="259" d="M73 186L167 275L73 364V431L206 306V244L73 119V186Z"  />
<glyph unicode="&#x20AC;" horiz-adv-x="556" d="M530 576Q464 655 370 655Q278 655 220 588Q169 529 151 434H484L466 389H145Q142 363 142 346Q142 342 142 338Q142 334 143 330H447L428 285H146Q160 180 209 116Q269 41 367 41Q420 41 463 64Q497 83 541 127V50Q464 -15 365 -15Q240 -15 163 74Q96 153 81 285H15L34 330H78Q77 334 77 339Q77 344 77 350Q77 358 77 367T79 389H15L33 434H84Q107 558 176 630Q252 712 371 712Q495 712 557 635L530 576Z"  />
<glyph unicode="&#x2122;" horiz-adv-x="990" d="M476 302V714H561L694 380L823 714H908V302H855V666H853L707 302H677L531 666H529V302H476ZM216 302V669H82V714H403V669H269V302H216Z"  />

</font>
</defs>
</svg>
