<?xml version="1.0" encoding="utf-8"?>
<!-- Generator: Adobe Illustrator 16.0.4, SVG Export Plug-In . SVG Version: 6.00 Build 0)  -->
<!DOCTYPE svg PUBLIC "-//W3C//DTD SVG 1.1//EN" "http://www.w3.org/Graphics/SVG/1.1/DTD/svg11.dtd">
<svg version="1.1" id="Layer_1" xmlns="http://www.w3.org/2000/svg" xmlns:xlink="http://www.w3.org/1999/xlink" x="0px" y="0px"
	 width="20px" height="20px" viewBox="0 0 20 20" enable-background="new 0 0 20 20" xml:space="preserve">
<g>
	<path fill-rule="evenodd" clip-rule="evenodd" fill="#FFFFFF" d="M1.75,8.5C1.06,8.5,0.5,7.94,0.5,7.25v-2.5
		c0-0.69,0.56-1.25,1.25-1.25h2.5c0.69,0,1.25,0.56,1.25,1.25v2.5c0,0.69-0.56,1.25-1.25,1.25H1.75z"/>
	<path fill-rule="evenodd" clip-rule="evenodd" fill="#FFFFFF" d="M8.75,15.5c-0.69,0-1.25-0.56-1.25-1.25v-2.5
		c0-0.69,0.56-1.25,1.25-1.25h2.5c0.69,0,1.25,0.56,1.25,1.25v2.5c0,0.69-0.56,1.25-1.25,1.25H8.75z"/>
	<path fill-rule="evenodd" clip-rule="evenodd" fill="#FFFFFF" d="M15.75,8.5c-0.69,0-1.25-0.56-1.25-1.25v-2.5
		c0-0.69,0.56-1.25,1.25-1.25h2.5c0.69,0,1.25,0.56,1.25,1.25v2.5c0,0.69-0.56,1.25-1.25,1.25H15.75z"/>
	<path fill-rule="evenodd" clip-rule="evenodd" fill="#FFFFFF" d="M1.75,15.5c-0.69,0-1.25-0.56-1.25-1.25v-2.5
		c0-0.69,0.56-1.25,1.25-1.25h2.5c0.69,0,1.25,0.56,1.25,1.25v2.5c0,0.69-0.56,1.25-1.25,1.25H1.75z"/>
	<path fill-rule="evenodd" clip-rule="evenodd" fill="#FFFFFF" d="M15.75,15.5c-0.69,0-1.25-0.56-1.25-1.25v-2.5
		c0-0.69,0.56-1.25,1.25-1.25h2.5c0.69,0,1.25,0.56,1.25,1.25v2.5c0,0.69-0.56,1.25-1.25,1.25H15.75z"/>
	<path fill-rule="evenodd" clip-rule="evenodd" fill="#FFFFFF" d="M8.75,8.5C8.06,8.5,7.5,7.94,7.5,7.25v-2.5
		c0-0.69,0.56-1.25,1.25-1.25h2.5c0.69,0,1.25,0.56,1.25,1.25v2.5c0,0.69-0.56,1.25-1.25,1.25H8.75z"/>
	<path fill-rule="evenodd" clip-rule="evenodd" fill="#FFFFFF" d="M4.5,5.5h11v1h-11V5.5z"/>
	<path fill-rule="evenodd" clip-rule="evenodd" fill="#FFFFFF" d="M4.5,12.5h11v1h-11V12.5z"/>
	<path fill-rule="evenodd" clip-rule="evenodd" fill="#FFFFFF" d="M2.5,7.5h1v4h-1V7.5z"/>
	<path fill-rule="evenodd" clip-rule="evenodd" fill="#FFFFFF" d="M9.5,7.5h1v4h-1V7.5z"/>
	<path fill-rule="evenodd" clip-rule="evenodd" fill="#FFFFFF" d="M16.5,7.5h1v4h-1V7.5z"/>
</g>
</svg>
