<?xml version="1.0" encoding="utf-8"?>
<!-- Generator: Adobe Illustrator 16.0.4, SVG Export Plug-In . SVG Version: 6.00 Build 0)  -->
<!DOCTYPE svg PUBLIC "-//W3C//DTD SVG 1.1//EN" "http://www.w3.org/Graphics/SVG/1.1/DTD/svg11.dtd">
<svg version="1.1" id="Layer_1" xmlns="http://www.w3.org/2000/svg" xmlns:xlink="http://www.w3.org/1999/xlink" x="0px" y="0px"
	 width="20px" height="20px" viewBox="0 0 20 20" enable-background="new 0 0 20 20" xml:space="preserve">
<g>
	<path fill="#FFFFFF" d="M6.089,8.5c-1.2,0-2.475-0.382-3.804-1.46c-0.378-0.306-0.378-0.803,0-1.108
		c0.377-0.307,0.99-0.307,1.367,0c1.989,1.613,3.466,1.039,5.905-0.113c2.256-1.067,5.065-2.395,8.158,0.113
		c0.378,0.306,0.378,0.803,0,1.108s-0.989,0.306-1.367,0c-1.944-1.576-3.404-1.008-5.817,0.132C9.22,7.792,7.723,8.5,6.089,8.5z"/>
	<path fill="#FFFFFF" d="M6.089,12.5c-1.2,0-2.475-0.382-3.804-1.46c-0.378-0.307-0.378-0.803,0-1.108
		c0.377-0.307,0.99-0.307,1.367,0c1.989,1.613,3.466,1.039,5.905-0.113c2.256-1.067,5.065-2.395,8.158,0.113
		c0.378,0.306,0.378,0.802,0,1.108c-0.378,0.306-0.989,0.306-1.367,0c-1.944-1.576-3.404-1.008-5.817,0.132
		C9.22,11.792,7.723,12.5,6.089,12.5z"/>
	<path fill="#FFFFFF" d="M6.089,16.5c-1.2,0-2.475-0.382-3.804-1.46c-0.378-0.307-0.378-0.803,0-1.108
		c0.377-0.307,0.99-0.307,1.367,0c1.989,1.613,3.466,1.039,5.905-0.113c2.256-1.067,5.065-2.395,8.158,0.113
		c0.378,0.306,0.378,0.802,0,1.108c-0.378,0.306-0.989,0.306-1.367,0c-1.944-1.576-3.404-1.008-5.817,0.132
		C9.22,15.792,7.723,16.5,6.089,16.5z"/>
</g>
</svg>
