<svg style="position: absolute; width: 0; height: 0; overflow: hidden;" version="1.1" xmlns="http://www.w3.org/2000/svg" xmlns:xlink="http://www.w3.org/1999/xlink">
<defs>
<symbol id="icon-S3_bucket" viewBox="0 0 30 32">
<title>S3_bucket</title>
<path d="M29.867 4.267c0 2.356-6.686 4.267-14.933 4.267s-14.933-1.91-14.933-4.267c0-2.356 6.686-4.267 14.933-4.267s14.933 1.91 14.933 4.267z"></path>
<path d="M14.933 10.667c-7.733 0-14.091-1.259-14.859-2.869l5.259 22.069c0 1.173 4.267 2.133 9.6 2.133s9.6-0.96 9.6-2.133l5.259-22.069c-0.768 1.611-7.125 2.869-14.859 2.869z"></path>
</symbol>
<symbol id="icon-file-o" viewBox="0 0 24 28">
<title>file-o</title>
<path d="M22.937 5.938c0.578 0.578 1.062 1.734 1.062 2.562v18c0 0.828-0.672 1.5-1.5 1.5h-21c-0.828 0-1.5-0.672-1.5-1.5v-25c0-0.828 0.672-1.5 1.5-1.5h14c0.828 0 1.984 0.484 2.562 1.062zM16 2.125v5.875h5.875c-0.094-0.266-0.234-0.531-0.344-0.641l-4.891-4.891c-0.109-0.109-0.375-0.25-0.641-0.344zM22 26v-16h-6.5c-0.828 0-1.5-0.672-1.5-1.5v-6.5h-12v24h20z"></path>
</symbol>
<symbol id="icon-folder-o" viewBox="0 0 26 28">
<title>folder-o</title>
<path d="M24 20.5v-11c0-0.828-0.672-1.5-1.5-1.5h-11c-0.828 0-1.5-0.672-1.5-1.5v-1c0-0.828-0.672-1.5-1.5-1.5h-5c-0.828 0-1.5 0.672-1.5 1.5v15c0 0.828 0.672 1.5 1.5 1.5h19c0.828 0 1.5-0.672 1.5-1.5zM26 9.5v11c0 1.922-1.578 3.5-3.5 3.5h-19c-1.922 0-3.5-1.578-3.5-3.5v-15c0-1.922 1.578-3.5 3.5-3.5h5c1.922 0 3.5 1.578 3.5 3.5v0.5h10.5c1.922 0 3.5 1.578 3.5 3.5z"></path>
</symbol>
<symbol id="icon-google" viewBox="0 0 24 28">
<title>google</title>
<path d="M12 12.281h11.328c0.109 0.609 0.187 1.203 0.187 2 0 6.844-4.594 11.719-11.516 11.719-6.641 0-12-5.359-12-12s5.359-12 12-12c3.234 0 5.953 1.188 8.047 3.141l-3.266 3.141c-0.891-0.859-2.453-1.859-4.781-1.859-4.094 0-7.438 3.391-7.438 7.578s3.344 7.578 7.438 7.578c4.75 0 6.531-3.406 6.813-5.172h-6.813v-4.125z"></path>
</symbol>
</defs>
</svg>
