<svg style="position: absolute; width: 0; height: 0; overflow: hidden;" version="1.1" xmlns="http://www.w3.org/2000/svg" xmlns:xlink="http://www.w3.org/1999/xlink">
<defs>
<symbol id="icon-S3_bucket" viewBox="0 0 30 32">
<!-- <title>S3_bucket</title> -->
<path d="M29.867 4.267c0 2.356-6.686 4.267-14.933 4.267s-14.933-1.91-14.933-4.267c0-2.356 6.686-4.267 14.933-4.267s14.933 1.91 14.933 4.267z"></path>
<path d="M14.933 10.667c-7.733 0-14.091-1.259-14.859-2.869l5.259 22.069c0 1.173 4.267 2.133 9.6 2.133s9.6-0.96 9.6-2.133l5.259-22.069c-0.768 1.611-7.125 2.869-14.859 2.869z"></path>
</symbol>
<symbol id="icon-file-o" viewBox="0 0 24 28">
<!-- <title>file-o</title> -->
<path d="M22.937 5.938c0.578 0.578 1.062 1.734 1.062 2.562v18c0 0.828-0.672 1.5-1.5 1.5h-21c-0.828 0-1.5-0.672-1.5-1.5v-25c0-0.828 0.672-1.5 1.5-1.5h14c0.828 0 1.984 0.484 2.562 1.062zM16 2.125v5.875h5.875c-0.094-0.266-0.234-0.531-0.344-0.641l-4.891-4.891c-0.109-0.109-0.375-0.25-0.641-0.344zM22 26v-16h-6.5c-0.828 0-1.5-0.672-1.5-1.5v-6.5h-12v24h20z"></path>
</symbol>
<symbol id="icon-folder-o" viewBox="0 0 26 28">
<!-- <title>folder-o</title> -->
<path d="M24 20.5v-11c0-0.828-0.672-1.5-1.5-1.5h-11c-0.828 0-1.5-0.672-1.5-1.5v-1c0-0.828-0.672-1.5-1.5-1.5h-5c-0.828 0-1.5 0.672-1.5 1.5v15c0 0.828 0.672 1.5 1.5 1.5h19c0.828 0 1.5-0.672 1.5-1.5zM26 9.5v11c0 1.922-1.578 3.5-3.5 3.5h-19c-1.922 0-3.5-1.578-3.5-3.5v-15c0-1.922 1.578-3.5 3.5-3.5h5c1.922 0 3.5 1.578 3.5 3.5v0.5h10.5c1.922 0 3.5 1.578 3.5 3.5z"></path>
</symbol>
<symbol id="icon-google" viewBox="0 0 24 28">
<!-- <title>google</title> -->
<path d="M12 12.281h11.328c0.109 0.609 0.187 1.203 0.187 2 0 6.844-4.594 11.719-11.516 11.719-6.641 0-12-5.359-12-12s5.359-12 12-12c3.234 0 5.953 1.188 8.047 3.141l-3.266 3.141c-0.891-0.859-2.453-1.859-4.781-1.859-4.094 0-7.438 3.391-7.438 7.578s3.344 7.578 7.438 7.578c4.75 0 6.531-3.406 6.813-5.172h-6.813v-4.125z"></path>
</symbol>
<symbol id="icon-directives" viewBox="0 0 32 32">
<!-- <title>directives</title> -->
<path d="M28.726 0.206h-22.779c-1.714 0-3.137 1.405-3.137 3.137v2.862h2.468c0.411-0.326 0.926-0.514 1.474-0.514 1.32 0 2.4 1.080 2.4 2.4s-1.080 2.4-2.4 2.4c-0.566 0-1.080-0.189-1.474-0.514h-2.451v4.114h2.64c0.411-0.326 0.926-0.514 1.474-0.514 1.32 0 2.4 1.080 2.4 2.4s-1.080 2.4-2.4 2.4c-0.566 0-1.080-0.189-1.474-0.514h-2.64v4.114h2.64c0.411-0.326 0.926-0.514 1.474-0.514 1.32 0 2.4 1.080 2.4 2.4s-1.080 2.4-2.4 2.4c-0.566 0-1.080-0.189-1.474-0.514h-2.64v3.034c0 1.714 1.405 3.137 3.137 3.137h22.762c1.714 0 3.137-1.405 3.137-3.137v-25.453c-0.017-1.714-1.423-3.119-3.137-3.119zM24.116 22.487c-1.663 1.663-4.422 2.571-7.884 2.571-1.645 0-3.017-0.086-4.182-0.206v-17.568c1.405-0.206 3.068-0.377 4.902-0.377 3.308 0 5.673 0.771 7.233 2.228 1.594 1.457 2.52 3.531 2.52 6.41-0.017 2.914-0.926 5.296-2.588 6.942z"></path>
<path d="M17.037 8.741c-1.2 0-2.091 0.103-2.708 0.24v14.089c0.583 0.103 1.423 0.137 2.331 0.137 4.919 0 7.593-2.759 7.593-7.576 0.051-4.216-2.348-6.89-7.216-6.89z"></path>
<path d="M6.136 9.29h-4.919c-0.634 0-1.148-0.514-1.148-1.148v-0.12c0-0.634 0.514-1.148 1.148-1.148h4.919c0.634 0 1.148 0.514 1.148 1.148v0.12c0 0.634-0.514 1.148-1.148 1.148z"></path>
<path d="M6.136 17.174h-4.919c-0.634 0-1.148-0.514-1.148-1.148v-0.12c0-0.634 0.514-1.148 1.148-1.148h4.919c0.634 0 1.148 0.514 1.148 1.148v0.12c0 0.634-0.514 1.148-1.148 1.148z"></path>
<path d="M6.136 25.058h-4.919c-0.634 0-1.148-0.514-1.148-1.148v-0.12c0-0.634 0.514-1.148 1.148-1.148h4.919c0.634 0 1.148 0.514 1.148 1.148v0.12c0 0.634-0.514 1.148-1.148 1.148z"></path>
</symbol>
<symbol id="icon-sliders" viewBox="0 0 12 14">
<!-- <title>sliders</title> -->
<path d="M2.75 11v1h-2.75v-1h2.75zM5.5 10c0.273 0 0.5 0.227 0.5 0.5v2c0 0.273-0.227 0.5-0.5 0.5h-2c-0.273 0-0.5-0.227-0.5-0.5v-2c0-0.273 0.227-0.5 0.5-0.5h2zM6.75 7v1h-6.75v-1h6.75zM1.75 3v1h-1.75v-1h1.75zM12 11v1h-5.75v-1h5.75zM4.5 2c0.273 0 0.5 0.227 0.5 0.5v2c0 0.273-0.227 0.5-0.5 0.5h-2c-0.273 0-0.5-0.227-0.5-0.5v-2c0-0.273 0.227-0.5 0.5-0.5h2zM9.5 6c0.273 0 0.5 0.227 0.5 0.5v2c0 0.273-0.227 0.5-0.5 0.5h-2c-0.273 0-0.5-0.227-0.5-0.5v-2c0-0.273 0.227-0.5 0.5-0.5h2zM12 7v1h-1.75v-1h1.75zM12 3v1h-6.75v-1h6.75z"></path>
</symbol>
<symbol id="icon-line-chart" viewBox="0 0 16 14">
<!-- <title>line-chart</title> -->
<path d="M16 12v1h-16v-12h1v11h15zM15 2.25v3.398c0 0.219-0.266 0.336-0.43 0.172l-0.945-0.945-4.945 4.945c-0.102 0.102-0.258 0.102-0.359 0l-1.82-1.82-3.25 3.25-1.5-1.5 4.57-4.57c0.102-0.102 0.258-0.102 0.359 0l1.82 1.82 3.625-3.625-0.945-0.945c-0.164-0.164-0.047-0.43 0.172-0.43h3.398c0.141 0 0.25 0.109 0.25 0.25z"></path>
</symbol>
<symbol id="icon-cog-empty" viewBox="0 0 32 32">
<!-- <title>cog-empty</title> -->
<path stroke-width="1.9692" stroke-miterlimit="10" stroke-linecap="butt" stroke-linejoin="miter" d="M30.031 13.292l-3.2-0.492c-0.246-0.246-0.492-0.492-0.738-0.738 0-0.246-0.246-0.492-0.246-0.492 0-0.246 0-0.492 0-0.738 0.492-0.738 1.969-2.708 1.969-2.708 0.246-0.246 0.246-0.985 0-1.231l-2.708-2.708c-0.246-0.246-0.985-0.246-1.231 0l-2.462 1.969c-0.246 0-0.492 0-0.985 0-0.246-0.246-0.738-0.246-0.985-0.492-0.246 0-0.246-0.246-0.246-0.492 0-0.738-0.492-3.2-0.492-3.2 0-0.492-0.492-0.738-0.738-0.738h-3.938c-0.492 0-0.738 0.492-0.738 0.738l-0.738 3.446c0 0.246-0.246 0.246-0.492 0.492-0.246 0-0.492 0.246-0.985 0.492-0.246 0-0.492 0-0.492 0-0.738-0.492-2.708-1.969-2.708-1.969-0.246-0.246-0.985-0.246-1.231 0l-2.462 2.462c-0.246 0.492-0.246 0.985 0 1.231l1.969 2.708c0 0.246 0 0.492 0 0.738-0.246 0.492-0.246 0.738-0.492 0.985 0 0.246-0.246 0.246-0.246 0.246-0.738 0-3.2 0.492-3.2 0.492-0.492 0-0.738 0.492-0.738 0.738v3.692c0 0.492 0.492 0.738 0.738 0.738l3.2 0.492c0 0.492 0.246 0.738 0.492 0.985 0.246 0.492 0.246 0.738 0.492 0.985 0 0.246 0 0.492 0 0.492-0.492 0.492-1.969 2.708-1.969 2.708-0.246 0.246-0.246 0.985 0 1.231l2.708 2.708c0.246 0.246 0.985 0.246 1.231 0l2.708-1.969c0.246 0 0.738 0 0.985 0s0.492 0.246 0.738 0.246c0.246 0.246 0.492 0.246 0.492 0.492 0 0.738 0.492 3.2 0.492 3.2 0 0.492 0.492 0.738 0.738 0.738h3.692c0.492 0 0.738-0.492 0.738-0.738l0.492-3.2c0.246-0.246 0.246-0.246 0.492-0.492 0.492-0.246 0.738-0.246 1.231-0.492 0.246 0 0.246 0 0.492 0 0.738 0.492 2.708 1.969 2.708 1.969 0.246 0.246 0.985 0.246 1.231 0l2.708-2.708c0.246-0.246 0.246-0.985 0-1.231l-1.969-2.462c0-0.246 0-0.738 0-1.231 0-0.246 0.246-0.246 0.246-0.492 0.246-0.246 0.246-0.492 0.492-0.492 0.738 0 3.2-0.492 3.2-0.492 0.492 0 0.738-0.492 0.738-0.738v-3.938c-0.246-0.492-0.492-0.738-0.985-0.738zM16 21.169c-2.708 0-5.169-2.215-5.169-5.169 0-2.708 2.215-5.169 5.169-5.169s5.169 2.215 5.169 5.169c0 2.954-2.462 5.169-5.169 5.169z"></path>
</symbol>
<symbol id="icon-caret-left" viewBox="0 0 6 14">
<!-- <title>caret-left</title> -->
<path d="M5 3.5v7c0 0.273-0.227 0.5-0.5 0.5-0.133 0-0.258-0.055-0.352-0.148l-3.5-3.5c-0.094-0.094-0.148-0.219-0.148-0.352s0.055-0.258 0.148-0.352l3.5-3.5c0.094-0.094 0.219-0.148 0.352-0.148 0.273 0 0.5 0.227 0.5 0.5z"></path>
</symbol>
<symbol id="icon-cloud" viewBox="0 0 32 32">
<!-- <title>cloud</title> -->
<path d="M32 20.548c0-2.565-1.771-4.716-4.156-5.296-0.101-4.022-3.389-7.252-7.433-7.252-2.369 0-4.477 1.109-5.839 2.835-0.764-0.987-1.959-1.624-3.303-1.624-2.307 0-4.176 1.871-4.176 4.179 0 0.201 0.015 0.399 0.043 0.592-0.351-0.063-0.711-0.098-1.080-0.098-3.344-0-6.054 2.712-6.054 6.058s2.71 6.058 6.054 6.058l20.508-0c3.004-0.006 5.438-2.444 5.438-5.451z"></path>
</symbol>
<symbol id="icon-exclamation-circle" viewBox="0 0 12 14">
<!-- <title>exclamation-circle</title> -->
<path d="M6 1c3.313 0 6 2.687 6 6s-2.687 6-6 6-6-2.687-6-6 2.687-6 6-6zM7 10.742v-1.484c0-0.141-0.109-0.258-0.242-0.258h-1.5c-0.141 0-0.258 0.117-0.258 0.258v1.484c0 0.141 0.117 0.258 0.258 0.258h1.5c0.133 0 0.242-0.117 0.242-0.258zM6.984 8.055l0.141-4.852c0-0.055-0.023-0.109-0.078-0.141-0.047-0.039-0.117-0.062-0.187-0.062h-1.719c-0.070 0-0.141 0.023-0.187 0.062-0.055 0.031-0.078 0.086-0.078 0.141l0.133 4.852c0 0.109 0.117 0.195 0.266 0.195h1.445c0.141 0 0.258-0.086 0.266-0.195z"></path>
</symbol>
<symbol id="icon-square-full" viewBox="0 0 32 32">
<!-- <title>square-full</title> -->
<path d="M32 32h-32v-32h32v32z"></path>
</symbol>
<symbol id="icon-shield" viewBox="0 0 1792 1792">
<!-- <title>shield</title> -->
<path d="M1344 960v-640h-448v1137q119-63 213-137 235-184 235-360zm192-768v768q0 86-33.5 170.5t-83 150-118 127.5-126.5 103-121 77.5-89.5 49.5-42.5 20q-12 6-26 6t-26-6q-16-7-42.5-20t-89.5-49.5-121-77.5-126.5-103-118-127.5-83-150-33.5-170.5v-768q0-26 19-45t45-19h1152q26 0 45 19t19 45z"></path>
</symbol>
<symbol id="icon-macro" viewBox="0 0 32 32">
<!-- <title>macro</title> -->
<path fill="#231f20" style="fill: var(--color1, #231f20)" d="M16 3.333c6.933 0 12.667 5.733 12.667 12.667s-5.733 12.667-12.667 12.667-12.667-5.733-12.667-12.667 5.733-12.667 12.667-12.667zM16 0.667c-8.533 0-15.333 6.8-15.333 15.333s6.8 15.333 15.333 15.333 15.333-6.8 15.333-15.333-6.8-15.333-15.333-15.333v0z"></path>
<path fill="#000" style="fill: var(--color2, #000)" d="M12.667 9.333l3.2 8.933 3.067-8.933h3.333v12.267h-2.533v-3.333l0.267-5.733-3.333 9.067h-1.733l-3.333-9.067 0.267 5.733v3.333h-2.533v-12.267h3.333z"></path>
</symbol>
<symbol id="icon-bigquery" viewBox="0 0 32 32">
<!-- <title>bigquery</title> -->
<path d="M23.227 21.032c0.136-0.005 0.273 0.044 0.376 0.147l4.249 4.25c0.196 0.197 0.196 0.519 0 0.716l-1.707 1.707c-0.197 0.198-0.52 0.198-0.717 0l-4.249-4.248c-0.103-0.103-0.153-0.241-0.148-0.377-1.777 1.323-3.98 2.107-6.365 2.107-5.891 0-10.667-4.776-10.667-10.667s4.776-10.667 10.667-10.667c5.891 0 10.667 4.776 10.667 10.667 0 2.385-0.783 4.588-2.106 6.365zM14.666 22.667c4.418 0 8-3.581 8-8s-3.582-8-8-8c-4.418 0-8 3.582-8 8s3.581 8 8 8zM9.333 14.667h2.667v5.030c-1.099-0.494-2.018-1.18-2.667-1.999v-3.031zM13.333 12h2.667v7.923c-0.416 0.046-0.839 0.077-1.274 0.077-0.476 0-0.94-0.034-1.393-0.090v-7.91zM17.343 16h2.667v1.602c-0.63 0.815-1.552 1.501-2.667 1.998v-3.6z"></path>
</symbol>
<symbol id="icon-storage" viewBox="0 0 32 32">
<!-- <title>storage</title> -->
<path d="M5.333 26.667v-9.333h21.333v9.333h-21.333zM5.333 14.667v-9.333h21.333v9.333h-21.333zM21.333 11.333c0.736 0 1.333-0.597 1.333-1.333s-0.597-1.333-1.333-1.333-1.333 0.597-1.333 1.333c0 0.736 0.597 1.333 1.333 1.333zM17.333 10.667v-1.333h-8v1.333h8zM21.333 23.333c0.736 0 1.333-0.597 1.333-1.333s-0.597-1.333-1.333-1.333-1.333 0.597-1.333 1.333c0 0.736 0.597 1.333 1.333 1.333zM17.333 22.667v-1.333h-8v1.333h8z"></path>
</symbol>
<symbol id="icon-spanner" viewBox="0 0 32 32">
<!-- <title>spanner</title> -->
<path d="M6.757 24.209l-1.704-1.124-3.72 2.148v-3.984l4.389-2.601 2.493 1.64 5.118-2.955v-5.91l-2.667-1.339v-5.475l4-1.943v4.909l1.333 0.624 1.333-0.639v-4.837l4 1.885v5.475l-2.667 1.339v5.91l5.118 2.955 2.493-1.64 4.389 2.544v4.039l-3.72-2.145-1.704 1.124-0.121 2.037 3.951 2.281-3.385 2.096-4.743-2.739 0.174-2.979-5.118-2.955-5.118 2.955 0.174 2.979-4.743 2.739-3.385-2.096 3.951-2.281-0.121-2.037z"></path>
</symbol>
<symbol id="icon-adls" viewBox="0 0 96 96">
<!-- <title>adls</title> -->
<path d="M3.55271368e-15,70.0717773 L25.4985352,25.4956055 L56.0415039,0 L23.3344727,70.0717773 L3.55271368e-15,70.0717773 Z M101.566895,78.7924805 L23.6723633,78.7924805 L70.9887695,70.0717773 L46.5385742,40.9428711 L59.2670898,5.68994141 L101.566895,78.7924805 Z" id="Combined-Shape" fill="#373A3C"></path>
</symbol>
<symbol id="icon-angle-double-up" viewBox="0 0 18 28">
<!-- <title>angle-double-up</title> -->
<path d="M16.797 20.5c0 0.125-0.063 0.266-0.156 0.359l-0.781 0.781c-0.094 0.094-0.219 0.156-0.359 0.156-0.125 0-0.266-0.063-0.359-0.156l-6.141-6.141-6.141 6.141c-0.094 0.094-0.234 0.156-0.359 0.156s-0.266-0.063-0.359-0.156l-0.781-0.781c-0.094-0.094-0.156-0.234-0.156-0.359s0.063-0.266 0.156-0.359l7.281-7.281c0.094-0.094 0.234-0.156 0.359-0.156s0.266 0.063 0.359 0.156l7.281 7.281c0.094 0.094 0.156 0.234 0.156 0.359zM16.797 14.5c0 0.125-0.063 0.266-0.156 0.359l-0.781 0.781c-0.094 0.094-0.219 0.156-0.359 0.156-0.125 0-0.266-0.063-0.359-0.156l-6.141-6.141-6.141 6.141c-0.094 0.094-0.234 0.156-0.359 0.156s-0.266-0.063-0.359-0.156l-0.781-0.781c-0.094-0.094-0.156-0.234-0.156-0.359s0.063-0.266 0.156-0.359l7.281-7.281c0.094-0.094 0.234-0.156 0.359-0.156s0.266 0.063 0.359 0.156l7.281 7.281c0.094 0.094 0.156 0.234 0.156 0.359z"></path>
</symbol>
<symbol id="icon-angle-double-down" viewBox="0 0 18 28">
<!-- <title>angle-double-down</title> -->
<path d="M16.797 13.5c0 0.125-0.063 0.266-0.156 0.359l-7.281 7.281c-0.094 0.094-0.234 0.156-0.359 0.156s-0.266-0.063-0.359-0.156l-7.281-7.281c-0.094-0.094-0.156-0.234-0.156-0.359s0.063-0.266 0.156-0.359l0.781-0.781c0.094-0.094 0.219-0.156 0.359-0.156 0.125 0 0.266 0.063 0.359 0.156l6.141 6.141 6.141-6.141c0.094-0.094 0.234-0.156 0.359-0.156s0.266 0.063 0.359 0.156l0.781 0.781c0.094 0.094 0.156 0.234 0.156 0.359zM16.797 7.5c0 0.125-0.063 0.266-0.156 0.359l-7.281 7.281c-0.094 0.094-0.234 0.156-0.359 0.156s-0.266-0.063-0.359-0.156l-7.281-7.281c-0.094-0.094-0.156-0.234-0.156-0.359s0.063-0.266 0.156-0.359l0.781-0.781c0.094-0.094 0.219-0.156 0.359-0.156 0.125 0 0.266 0.063 0.359 0.156l6.141 6.141 6.141-6.141c0.094-0.094 0.234-0.156 0.359-0.156s0.266 0.063 0.359 0.156l0.781 0.781c0.094 0.094 0.156 0.234 0.156 0.359z"></path>
</symbol>
<symbol id="icon-pipeline_filled" viewBox="0 0 32 32">
<!-- <title>pipeline_filled</title> -->
<path d="M8.492 21.465h-6.498c-1.058 0-1.945-0.886-1.945-1.945v-6.474c0-1.058 0.886-1.945 1.945-1.945h6.498c1.058 0 1.945 0.886 1.945 1.945v6.498c0 1.058-0.886 1.92-1.945 1.92z"></path>
<path d="M29.982 11.717h-6.498c-1.058 0-1.945-0.886-1.945-1.945v-6.498c0-1.058 0.886-1.945 1.945-1.945h6.498c1.058 0 1.945 0.886 1.945 1.945v6.498c0 1.058-0.886 1.945-1.945 1.945z"></path>
<path d="M29.982 31.040h-6.498c-1.058 0-1.945-0.886-1.945-1.945v-6.474c0-1.058 0.886-1.945 1.945-1.945h6.498c1.058 0 1.945 0.886 1.945 1.945v6.498c0 1.058-0.886 1.92-1.945 1.92z"></path>
<path d="M13.858 17.034h-3.963v-1.748h3.963c1.575 0 1.649-2.142 1.649-2.56v-4.012c0-1.822 1.206-3.052 3.126-3.2 1.354-0.098 4.382 0 4.505 0l-0.049 1.748c-0.025 0-3.052-0.098-4.308 0-1.526 0.123-1.526 1.132-1.526 1.452v3.988c0 2.609-1.378 4.332-3.397 4.332z"></path>
<path d="M20.382 26.978c-0.665 0-1.329 0-1.797-0.049-1.945-0.148-3.126-1.378-3.126-3.2v-3.988c0-0.418-0.074-2.56-1.649-2.56h-3.988v-1.772h3.963c2.043 0 3.397 1.723 3.397 4.308v3.988c0 0.32 0 1.329 1.526 1.452 1.255 0.098 4.283 0 4.308 0l0.049 1.748c-0.074 0.025-1.403 0.074-2.683 0.074z"></path>
</symbol>
<symbol id="icon-analytics" viewBox="0 0 32 32">
<!-- <title>analytics</title> -->
<path d="M25.231 32.123h-17.723c-0.689 0-1.378-0.468-1.846-1.28s-0.517-1.649-0.172-2.265l6.375-10.314v-7.557h1.723v8.074l-6.622 10.732c-0.025 0.197 0.32 0.837 0.566 0.911h17.674c0.172-0.074 0.542-0.738 0.492-1.009l-6.572-10.683v-8.025h1.723v7.532l6.375 10.314c0.369 0.542 0.32 1.378-0.123 2.215-0.468 0.862-1.182 1.354-1.871 1.354z"></path>
<path d="M10.092 11.126v-1.723l12.406-0.049v1.723z"></path>
<path d="M14.671 6.991h0.837v6.031h-0.837v-6.031z"></path>
<path d="M14.671 1.182h0.837v2.166h-0.837v-2.166z"></path>
<path d="M14.671 20.16h1.009v3.397h-1.009v-3.397z"></path>
<path d="M14.671 4.258h0.837v1.698h-0.837v-1.698z"></path>
<path d="M14.671 14.006h1.009v2.043h-1.009v-2.043z"></path>
<path d="M14.671 17.132h1.009v2.043h-1.009v-2.043z"></path>
<path d="M14.671 18.585h1.009v2.043h-1.009v-2.043z"></path>
<path d="M14.671 24.911h1.009v2.043h-1.009v-2.043z"></path>
<path d="M16.985 18.265h0.837v7.311h-0.837v-7.311z"></path>
<path d="M16.985 15.138h0.837v2.043h-0.837v-2.043z"></path>
<path d="M16.985 26.56h0.837v2.043h-0.837v-2.043z"></path>
<path d="M17.009 5.342h0.837v6.031h-0.837v-6.031z"></path>
<path d="M17.009 2.609h0.837v1.698h-0.837v-1.698z"></path>
<path d="M17.009 0.025h0.837v1.698h-0.837v-1.698z"></path>
<path d="M16.985 12.012h0.837v2.043h-0.837v-2.043z"></path>
</symbol>
<symbol id="icon-control_center" viewBox="0 0 32 32">
<!-- <title>control_center2</title> -->
<path d="M7.409 19.791h-5.095c-1.231 0-2.215-0.837-2.215-1.846v-3.865c0-1.009 1.009-1.846 2.215-1.846h5.12c1.231 0 2.215 0.837 2.215 1.846v3.84c0 1.034-1.009 1.871-2.24 1.871zM2.314 13.637c-0.492 0-0.837 0.271-0.837 0.468v3.84c0 0.172 0.345 0.468 0.837 0.468h5.12c0.492 0 0.837-0.271 0.837-0.468v-3.865c0-0.172-0.345-0.468-0.837-0.468h-5.12z"></path>
<path d="M18.806 19.791h-5.12c-1.231 0-2.24-0.837-2.24-1.846v-3.865c0-1.009 1.009-1.846 2.24-1.846h5.12c1.231 0 2.215 0.837 2.215 1.846v3.84c0 1.034-0.985 1.871-2.215 1.871zM13.686 13.637c-0.517 0-0.837 0.271-0.837 0.468v3.84c0 0.172 0.345 0.468 0.837 0.468h5.12c0.492 0 0.837-0.271 0.837-0.468v-3.865c0-0.172-0.345-0.468-0.837-0.468h-5.12z"></path>
<path d="M7.409 28.455h-5.095c-1.231 0-2.215-0.837-2.215-1.846v-3.84c0-1.009 1.009-1.846 2.215-1.846h5.12c1.231 0 2.215 0.837 2.215 1.846v3.84c0 1.009-1.009 1.846-2.24 1.846zM2.314 22.302c-0.492 0-0.837 0.271-0.837 0.468v3.84c0 0.172 0.32 0.468 0.837 0.468h5.12c0.492 0 0.837-0.271 0.837-0.468v-3.84c0-0.172-0.345-0.468-0.837-0.468h-5.12z"></path>
<path d="M18.806 28.455h-5.12c-1.231 0-2.24-0.837-2.24-1.846v-3.84c0-1.009 1.009-1.846 2.24-1.846h5.12c1.231 0 2.215 0.837 2.215 1.846v3.84c0 1.009-0.985 1.846-2.215 1.846zM13.686 22.302c-0.517 0-0.837 0.271-0.837 0.468v3.84c0 0.172 0.345 0.468 0.837 0.468h5.12c0.492 0 0.837-0.271 0.837-0.468v-3.84c0-0.172-0.345-0.468-0.837-0.468h-5.12z"></path>
<path d="M29.834 19.791h-5.12c-1.231 0-2.24-0.837-2.24-1.846v-3.865c0-1.009 1.009-1.846 2.24-1.846h5.12c1.231 0 2.24 0.837 2.24 1.846v3.84c0 1.034-1.009 1.871-2.24 1.871zM24.738 13.637c-0.517 0-0.837 0.271-0.837 0.468v3.84c0 0.172 0.345 0.468 0.837 0.468h5.12c0.517 0 0.837-0.271 0.837-0.468v-3.865c0-0.172-0.345-0.468-0.837-0.468h-5.12z"></path>
<path d="M7.409 11.126h-5.095c-1.231 0-2.215-0.837-2.215-1.846v-3.84c0-1.009 1.009-1.846 2.215-1.846h5.12c1.231 0 2.215 0.837 2.215 1.846v3.84c0 1.009-1.009 1.846-2.24 1.846zM2.314 4.972c-0.492 0-0.837 0.271-0.837 0.468v3.84c0 0.172 0.345 0.468 0.837 0.468h5.12c0.492 0 0.837-0.271 0.837-0.468v-3.84c0-0.172-0.345-0.468-0.837-0.468h-5.12z"></path>
<path d="M18.806 11.126h-5.12c-1.231 0-2.24-0.837-2.24-1.846v-3.84c0-1.009 1.009-1.846 2.24-1.846h5.12c1.231 0 2.215 0.837 2.215 1.846v3.84c0 1.009-0.985 1.846-2.215 1.846zM13.686 4.972c-0.517 0-0.837 0.271-0.837 0.468v3.84c0 0.172 0.345 0.468 0.837 0.468h5.12c0.492 0 0.837-0.271 0.837-0.468v-3.84c0-0.172-0.345-0.468-0.837-0.468h-5.12z"></path>
<path d="M29.834 11.126h-5.12c-1.231 0-2.24-0.837-2.24-1.846v-3.84c0-1.009 1.009-1.846 2.24-1.846h5.12c1.231 0 2.24 0.837 2.24 1.846v3.84c0 1.009-1.009 1.846-2.24 1.846zM24.738 4.972c-0.517 0-0.837 0.271-0.837 0.468v3.84c0 0.172 0.345 0.468 0.837 0.468h5.12c0.517 0 0.837-0.271 0.837-0.468v-3.84c0-0.172-0.345-0.468-0.837-0.468h-5.12z"></path>
<path d="M29.834 28.455h-5.12c-1.231 0-2.24-0.837-2.24-1.846v-3.84c0-1.009 1.009-1.846 2.24-1.846h5.12c1.231 0 2.24 0.837 2.24 1.846v3.84c0 1.009-1.009 1.846-2.24 1.846zM24.738 22.302c-0.517 0-0.837 0.271-0.837 0.468v3.84c0 0.172 0.345 0.468 0.837 0.468h5.12c0.517 0 0.837-0.271 0.837-0.468v-3.84c0-0.172-0.345-0.468-0.837-0.468h-5.12z"></path>
</symbol>
<symbol id="icon-pipeline_hollow" viewBox="0 0 32 32">
<!-- <title>pipeline_hollow</title> -->
<path d="M7.975 21.44h-5.415c-1.378 0-2.486-1.132-2.486-2.486v-5.415c0-1.378 1.132-2.486 2.486-2.486h5.415c1.378 0 2.486 1.132 2.486 2.486v5.415c0 1.354-1.132 2.486-2.486 2.486zM2.535 12.751c-0.418 0-0.763 0.345-0.763 0.763v5.415c0.025 0.418 0.345 0.763 0.763 0.763h5.415c0.418 0 0.763-0.345 0.763-0.763v-5.415c0-0.418-0.345-0.763-0.763-0.763h-5.415z"></path>
<path d="M29.465 11.717h-5.415c-1.378 0-2.486-1.132-2.486-2.486v-5.415c0-1.378 1.132-2.486 2.486-2.486h5.415c1.378 0 2.486 1.132 2.486 2.486v5.415c0.025 1.354-1.108 2.486-2.486 2.486zM24.049 3.028c-0.418 0-0.763 0.345-0.763 0.763v5.415c0 0.418 0.345 0.763 0.763 0.763h5.415c0.418 0 0.763-0.345 0.763-0.763v-5.415c0-0.418-0.345-0.763-0.763-0.763h-5.415z"></path>
<path d="M13.957 16.985h-3.938v-1.748h3.938c1.575 0 1.649-2.142 1.649-2.56v-3.963c0-1.822 1.206-3.028 3.126-3.175 1.354-0.098 4.357 0 4.48 0l-0.049 1.723c-0.025 0-3.052-0.098-4.283 0-1.526 0.098-1.526 1.083-1.526 1.452v3.988c0 2.56-1.354 4.283-3.397 4.283z"></path>
<path d="M29.489 31.015h-5.415c-1.378 0-2.486-1.132-2.486-2.486v-5.415c0-1.378 1.132-2.486 2.486-2.486h5.415c1.378 0 2.486 1.108 2.486 2.486v5.415c0.025 1.354-1.108 2.486-2.486 2.486zM24.074 22.326c-0.418 0-0.763 0.345-0.763 0.763v5.415c0 0.418 0.345 0.763 0.763 0.763h5.415c0.418 0 0.763-0.345 0.763-0.763v-5.415c0-0.418-0.345-0.763-0.763-0.763h-5.415z"></path>
<path d="M20.455 26.88c-0.665 0-1.329 0-1.797-0.049-1.92-0.148-3.126-1.378-3.126-3.175v-3.988c0-0.418-0.074-2.56-1.649-2.56h-3.938v-1.748h3.938c2.018 0 3.397 1.723 3.397 4.308v3.988c0 0.566 0.148 1.354 1.526 1.452 1.255 0.098 4.258 0 4.283 0l0.049 1.723c-0.074 0.025-1.403 0.049-2.683 0.049z"></path>
</symbol>
<symbol id="icon-rules" viewBox="0 0 32 32">
<!-- <title>rules</title> -->
<path d="M28.702 32.049h-22.523c-2.388 0-4.357-1.945-4.357-4.357v-23.36c0.025-2.388 1.969-4.332 4.357-4.332h22.498v1.748h-22.498c-1.428 0-2.609 1.157-2.609 2.609v23.335c0 1.428 1.157 2.609 2.609 2.609h22.523v1.748z"></path>
<path d="M28.209 25.895h-17.969c-1.058 0-1.895-0.862-1.895-1.895v-22.154c0-1.034 0.862-1.895 1.895-1.895h17.969c0.911 0 1.895 0.689 1.895 2.215v22.154c0.025 0.812-0.935 1.575-1.895 1.575zM10.24 1.698c-0.074 0-0.148 0.074-0.148 0.148v22.154c0 0.074 0.074 0.148 0.148 0.148h17.969c0.049 0 0.123-0.025 0.148-0.049v-21.908c0-0.246-0.049-0.468-0.148-0.468h-17.969z"></path>
<path d="M30.006 32.025h-23.778c-2.462 0-4.185-1.526-4.185-3.742v-0.394c0-2.191 1.723-3.717 4.185-3.717h21.662v1.748h-21.662c-1.132 0-2.462 0.517-2.462 1.994v0.394c0 1.477 1.329 1.994 2.462 1.994h23.778v1.723z"></path>
<path d="M27.2 31.385c-0.074-0.197-0.788-2.018-0.788-3.2s0.714-2.954 0.788-3.151l1.6 0.665c-0.271 0.615-0.665 1.846-0.665 2.486s0.418 1.92 0.665 2.56l-1.6 0.64z"></path>
<path d="M17.428 8.025h7.089v1.748h-7.089v-1.748z"></path>
<path d="M17.428 12.258h7.089v1.748h-7.089v-1.748z"></path>
<path d="M14.105 8.025h2.437v1.748h-2.437v-1.748z"></path>
<path d="M14.105 12.258h2.437v1.748h-2.437v-1.748z"></path>
<path d="M17.428 16.246h7.089v1.748h-7.089v-1.748z"></path>
<path d="M14.105 16.246h2.437v1.748h-2.437v-1.748z"></path>
</symbol>
<symbol id="icon-transform" viewBox="0 0 32 32">
<!-- <title>transform</title> -->
<path d="M29.711 28.775h-27.545c-1.231 0-2.215-1.009-2.215-2.215v-21.046c0-1.231 1.009-2.215 2.215-2.215h27.545c1.231 0 2.215 1.009 2.215 2.215v21.046c0.025 1.231-0.985 2.215-2.215 2.215zM2.166 4.997c-0.271 0-0.517 0.246-0.517 0.517v21.046c0 0.271 0.246 0.517 0.517 0.517h27.545c0.295 0 0.517-0.222 0.517-0.517v-21.046c0-0.271-0.222-0.517-0.517-0.517h-27.545z"></path>
<path d="M1.108 7.778h29.637v1.723h-29.637v-1.723z"></path>
<path d="M9.502 4.062h1.723v23.508h-1.723v-23.508z"></path>
<path d="M20.209 4.135h1.723v23.434h-1.723v-23.434z"></path>
<path d="M7.188 12.923h-3.446c-0.468 0-0.862-0.394-0.862-0.862s0.394-0.862 0.862-0.862h3.446c0.468 0 0.862 0.394 0.862 0.862s-0.394 0.862-0.862 0.862z"></path>
<path d="M7.188 16.935h-3.446c-0.468 0-0.862-0.394-0.862-0.862s0.394-0.862 0.862-0.862h3.446c0.468 0 0.862 0.394 0.862 0.862s-0.394 0.862-0.862 0.862z"></path>
<path d="M7.188 20.948h-3.446c-0.468 0-0.862-0.394-0.862-0.862s0.394-0.862 0.862-0.862h3.446c0.468 0 0.862 0.394 0.862 0.862-0.025 0.492-0.394 0.862-0.862 0.862z"></path>
<path d="M7.188 24.985h-3.446c-0.468 0-0.862-0.394-0.862-0.862s0.394-0.862 0.862-0.862h3.446c0.468 0 0.862 0.394 0.862 0.862s-0.394 0.862-0.862 0.862z"></path>
<path d="M17.452 12.923h-3.446c-0.468 0-0.862-0.394-0.862-0.862s0.394-0.862 0.862-0.862h3.446c0.468 0 0.862 0.394 0.862 0.862s-0.394 0.862-0.862 0.862z"></path>
<path d="M17.452 16.935h-3.446c-0.468 0-0.862-0.394-0.862-0.862s0.394-0.862 0.862-0.862h3.446c0.468 0 0.862 0.394 0.862 0.862s-0.394 0.862-0.862 0.862z"></path>
<path d="M17.452 20.948h-3.446c-0.468 0-0.862-0.394-0.862-0.862s0.394-0.862 0.862-0.862h3.446c0.468 0 0.862 0.394 0.862 0.862-0.025 0.492-0.394 0.862-0.862 0.862z"></path>
<path d="M17.452 24.985h-3.446c-0.468 0-0.862-0.394-0.862-0.862s0.394-0.862 0.862-0.862h3.446c0.468 0 0.862 0.394 0.862 0.862s-0.394 0.862-0.862 0.862z"></path>
<path d="M27.717 12.923h-3.446c-0.468 0-0.862-0.394-0.862-0.862s0.394-0.862 0.862-0.862h3.446c0.468 0 0.862 0.394 0.862 0.862s-0.394 0.862-0.862 0.862z"></path>
<path d="M27.717 16.935h-3.446c-0.468 0-0.862-0.394-0.862-0.862s0.394-0.862 0.862-0.862h3.446c0.468 0 0.862 0.394 0.862 0.862s-0.394 0.862-0.862 0.862z"></path>
<path d="M27.717 20.948h-3.446c-0.468 0-0.862-0.394-0.862-0.862s0.394-0.862 0.862-0.862h3.446c0.468 0 0.862 0.394 0.862 0.862-0.025 0.492-0.394 0.862-0.862 0.862z"></path>
<path d="M27.717 24.985h-3.446c-0.468 0-0.862-0.394-0.862-0.862s0.394-0.862 0.862-0.862h3.446c0.468 0 0.862 0.394 0.862 0.862s-0.394 0.862-0.862 0.862z"></path>
</symbol>
<symbol id="icon-metadata" viewBox="0 0 32 32">
<!-- <title>metadata</title> -->
<path d="M16.295 21.095h-5.022c-0.468 0-0.862-0.394-0.862-0.862s0.394-0.862 0.862-0.862h3.298v-3.298c0-0.468 0.394-0.862 0.862-0.862s0.862 0.394 0.862 0.862v5.022z"></path>
<path d="M8.197 17.92c-0.468 0-0.862-0.394-0.862-0.862v-5.022h5.022c0.468 0 0.862 0.394 0.862 0.862s-0.394 0.862-0.862 0.862h-3.298v3.298c0 0.492-0.394 0.862-0.862 0.862z"></path>
<path d="M11.815 28.382c-0.763 0-1.452-0.295-1.994-0.837l-8.911-8.886c-1.108-1.108-1.108-2.905 0-3.988l11.495-11.471c1.182-1.182 10.708-0.517 10.806-0.517v0c1.354 0.123 2.363 1.132 2.486 2.535 0 0.098 0.812 9.674-0.418 10.88l-11.471 11.471c-0.517 0.517-1.231 0.812-1.994 0.812 0 0 0 0 0 0zM18.043 4.382c-2.166 0-4.062 0.098-4.48 0.271l-11.298 11.348c-0.369 0.369-0.369 0.96 0 1.329l8.886 8.886c0.172 0.172 0.418 0.271 0.665 0.271v0c0.246 0 0.492-0.098 0.665-0.271l11.471-11.471c0.197-0.615 0.197-6.129-0.123-9.354-0.049-0.492-0.345-0.788-0.788-0.837-1.428-0.123-3.274-0.172-4.997-0.172z"></path>
<path d="M20.357 10.609c0 0 0 0 0 0-0.665 0-1.305-0.271-1.772-0.738s-0.738-1.108-0.738-1.772 0.271-1.305 0.738-1.772c0.935-0.935 2.585-0.935 3.545 0 0.468 0.468 0.738 1.108 0.738 1.772s-0.271 1.305-0.738 1.772v0 0 0c-0.492 0.468-1.108 0.738-1.772 0.738zM20.357 6.843c-0.345 0-0.665 0.148-0.886 0.369-0.246 0.246-0.369 0.542-0.369 0.886s0.123 0.64 0.369 0.886c0.222 0.246 0.542 0.369 0.886 0.369v0c0.345 0 0.64-0.123 0.886-0.369v0c0.246-0.246 0.369-0.542 0.369-0.886s-0.148-0.64-0.369-0.886c-0.246-0.222-0.566-0.369-0.886-0.369z"></path>
<path d="M27.397 6.154c0.246 3.225 0.295 9.231-0.222 9.748l-11.52 11.52v0.049c0 1.034 0.837 1.871 1.871 1.871h12.578c1.034 0 1.871-0.837 1.871-1.871v-16.246c0.049-0.542-2.363-3.003-4.578-5.071z"></path>
</symbol>
<symbol id="icon-circle-thin" viewBox="0 0 43 50">
<!-- <title>circle-thin</title> -->
<path d="M21.45 7.15q-3.65 0-6.95 1.4t-5.7 3.8-3.8 5.7-1.45 6.95 1.45 6.95 3.8 5.65 5.7 3.85 6.95 1.4 6.9-1.4 5.7-3.85 3.8-5.65 1.45-6.95-1.45-6.95-3.8-5.7-5.7-3.8-6.9-1.4zM42.85 25q0 5.85-2.85 10.75t-7.8 7.8-10.75 2.9-10.8-2.9-7.75-7.8-2.9-10.75 2.9-10.75 7.75-7.8 10.8-2.9 10.75 2.9 7.8 7.8 2.85 10.75z"></path>
</symbol>
<symbol id="icon-home" viewBox="0 0 50 50">
<!-- <title>home</title> -->
<path d="M11.538 23.077h-8.077c-1.923 0-3.462-1.538-3.462-3.462v-11.538c0-1.923 1.538-3.462 3.462-3.462h8.077c1.923 0 3.462 1.538 3.462 3.462v11.538c0 1.923-1.538 3.462-3.462 3.462zM3.462 6.923c-0.769 0-1.154 0.769-1.154 1.154v11.538c0 0.385 0.385 0.769 1.154 0.769h8.077c0.769 0 1.154-0.385 1.154-0.769v-11.538c0.385-0.385-0.385-1.154-1.154-1.154h-8.077z"></path>
<path d="M29.231 23.077h-7.692c-1.923 0-3.462-1.538-3.462-3.462v-11.538c0-1.923 1.538-3.462 3.462-3.462h8.077c1.923 0 3.462 1.538 3.462 3.462v11.538c-0.385 1.923-1.923 3.462-3.846 3.462zM21.538 6.923c-1.154 0-1.538 0.769-1.538 1.154v11.538c0 0.385 0.385 0.769 1.154 0.769h8.077c0.769 0 1.538-0.385 1.538-0.769v-11.538c0-0.385-0.769-1.154-1.538-1.154h-7.692z"></path>
<path d="M46.538 23.077h-8.077c-1.923 0-3.462-1.538-3.462-3.462v-11.538c0-1.923 1.538-3.462 3.462-3.462h8.077c1.923 0 3.462 1.538 3.462 3.462v11.538c0 1.923-1.538 3.462-3.462 3.462zM38.846 6.923c-1.154 0-1.538 0.769-1.538 1.154v11.538c0 0.385 0.385 0.769 1.154 0.769h8.077c0.769 0 1.154-0.385 1.154-0.769v-11.538c0-0.385-0.385-0.769-1.154-0.769h-7.692z"></path>
<path d="M11.538 45.385h-8.077c-1.923 0-3.462-1.538-3.462-3.462v-11.538c0-1.923 1.923-3.462 3.462-3.462h8.077c1.923 0 3.462 1.538 3.462 3.462v11.538c0 1.923-1.538 3.462-3.462 3.462zM3.462 29.615c-0.769 0-1.154 0.385-1.154 0.769v11.538c0 0.385 0.385 0.769 1.154 0.769h8.077c0.769 0 1.154-0.385 1.154-0.769v-11.538c0-0.385-0.385-0.769-1.154-0.769h-8.077z"></path>
<path d="M29.231 45.385h-7.692c-1.923 0-3.462-1.538-3.462-3.462v-11.538c0-1.923 1.538-3.462 3.462-3.462h8.077c1.923 0 3.462 1.538 3.462 3.462v11.538c-0.385 1.923-1.923 3.462-3.846 3.462zM21.538 29.615c-0.769 0-1.154 0.385-1.154 0.769v11.538c0 0.385 0.385 0.769 1.154 0.769h8.077c0.385 0.385 1.154-0.385 1.154-0.769v-11.538c0-0.385-0.385-0.769-1.154-0.769h-8.077z"></path>
<path d="M46.538 45.385h-8.077c-1.923 0-3.462-1.538-3.462-3.462v-11.538c0-1.923 1.538-3.462 3.462-3.462h8.077c1.923 0 3.462 1.538 3.462 3.462v11.538c0 1.923-1.538 3.462-3.462 3.462zM38.846 29.615c-0.769 0-1.154 0.385-1.154 0.769v11.538c0 0.385 0.385 0.769 1.154 0.769h8.077c0.769 0 1.154-0.385 1.154-0.769v-11.538c0-0.385-0.385-0.769-1.154-0.769h-8.077z"></path>
</symbol>
<symbol id="icon-CDC" viewBox="0 0 50 50">
<!-- <title>CDC</title> -->
<path fill="#231f20" style="fill: var(--color1, #231f20)" d="M41.154 31.923c-0.385 0-0.769 0-1.154-0.385-0.769-0.385-1.538-1.154-1.538-2.308h-3.846v-8.846h4.231c0-1.154 0.385-1.923 1.538-2.308 0.769-0.385 1.923-0.385 2.692 0l6.154 4.615c0.385 0.385 0.769 1.154 0.769 1.923s-0.385 1.923-1.154 2.692l-6.154 4.231c-0.385 0.385-0.769 0.385-1.538 0.385zM36.154 27.308h4.231v1.538c0 0.385 0 0.769 0.385 0.769s0.385 0 0.769 0l6.154-4.231c0.385-0.385 0.385-0.769 0.385-0.769 0-0.385 0-0.385-0.385-0.769v0l-6.154-4.615c-0.385 0-0.385 0-0.769 0s-0.385 0.385-0.385 0.769v1.923h-4.231v5.385z"></path>
<path fill="#231f20" style="fill: var(--color1, #231f20)" d="M30.385 42.308c-0.385 0-0.769 0-1.154-0.385-0.769-0.385-1.538-1.154-1.538-2.308h-4.231v-8.462h4.231v-0.385c0-1.154 0.385-1.923 1.538-2.308 0.769-0.385 1.923-0.385 2.692 0l6.154 4.615c0.769 0.385 1.154 1.154 1.154 1.923s-0.385 1.923-1.154 2.692l-6.154 4.231c-0.385 0.385-1.154 0.385-1.538 0.385zM25.385 38.077h4.231v1.538c0 0.385 0 0.769 0.385 0.769s0.385 0 0.769 0l6.154-4.231c0.385-0.385 0.385-0.769 0.385-0.769 0-0.385 0-0.385-0.385-0.769v0l-6.154-4.615c-0.385 0-0.385 0-0.769 0s-0.385 0.385-0.385 0.769v1.923h-4.231v5.385z"></path>
<path fill="#231f20" style="fill: var(--color1, #231f20)" d="M30.385 21.538c-0.385 0-0.769 0-1.154-0.385-0.769-0.385-1.538-1.538-1.538-2.308h-3.846v-8.846h4.231v-0.385c0-1.154 0.385-1.923 1.538-2.308 0.769-0.385 1.923-0.385 2.692 0l6.154 4.615c0.769 0.385 1.154 1.154 1.154 1.923s-0.385 1.923-1.154 2.692l-6.538 4.231c-0.385 0.385-1.154 0.769-1.538 0.769zM25.385 16.923h4.231v1.538c0 0.385 0 0.769 0.385 0.769s0.385 0 0.769 0l6.154-4.231c0.385-0.385 0.385-0.769 0.385-0.769 0-0.385 0-0.385-0.385-0.769v0l-6.154-4.615c-0.385 0-0.385 0-0.769 0s-0.385 0.385-0.385 0.769v1.923h-4.231v5.385z"></path>
<path fill="#fff" style="fill: var(--color2, #fff)" d="M25 27.692v10.769c0 2.692-5.385 5-11.923 5s-11.923-2.308-11.923-5v-10.769z"></path>
<path fill="#231f20" style="fill: var(--color1, #231f20)" d="M13.077 45c-6.538 0-13.462-2.308-13.462-6.538v-10.769h3.077v10.769c0 1.154 3.846 3.462 10.385 3.462s10.385-2.308 10.385-3.462v-10.769h3.077v10.769c0 4.231-6.923 6.538-13.462 6.538z"></path>
<path fill="#231f20" style="fill: var(--color1, #231f20)" d="M13.077 33.846c-6.538 0-13.462-2.308-13.462-6.538 0-0.769 0.385-2.308 2.308-3.846l1.538 2.308c-0.385 0.769-0.769 1.154-0.769 1.538 0 1.538 4.231 3.462 10.385 3.462s10.385-2.308 10.385-3.462c0-0.385-0.385-0.769-0.769-1.154l1.538-2.308c1.923 1.154 2.308 2.692 2.308 3.846 0 3.846-6.923 6.154-13.462 6.154z"></path>
<path fill="#231f20" style="fill: var(--color1, #231f20)" d="M13.077 28.077c-6.538 0-13.462-2.308-13.462-6.538v-11.154h3.077v11.154c0 1.154 3.846 3.462 10.385 3.462s10.385-2.308 10.385-3.462v-11.154h3.077v11.154c0 4.231-6.923 6.538-13.462 6.538z"></path>
<path fill="#fff" style="fill: var(--color2, #fff)" d="M25 10.385c0 2.761-5.338 5-11.923 5s-11.923-2.239-11.923-5c0-2.761 5.338-5 11.923-5s11.923 2.239 11.923 5z"></path>
<path fill="#231f20" style="fill: var(--color1, #231f20)" d="M13.077 16.923c-6.538 0-13.462-2.308-13.462-6.538s6.923-6.538 13.462-6.538 13.462 2.308 13.462 6.538c0 4.231-6.923 6.538-13.462 6.538zM13.077 6.923c-6.154 0-10.385 2.308-10.385 3.462s4.231 3.462 10.385 3.462 10.385-2.308 10.385-3.462-4.231-3.462-10.385-3.462z"></path>
</symbol>
 <symbol id="icon-ingest" viewBox="0 0 18.1 13">
 <!-- <title>ingest</title> -->
 <path class="ast0" d="M17.2 6.8L15 5c-.5-.3-1.1 0-1.1.6V6h-1.7v2.9h1.6v.4c0 .6.6 1 1.1.6l2.2-1.8c.5-.3.5-1 .1-1.3z" fill="none" stroke="#333" stroke-miterlimit="10" stroke-width=".8"/>
 <path class="ast1" fill="none" stroke="#333" stroke-miterlimit="10" stroke-width=".85" d="M.4.3h7.4V10H.4z"/>
 <path class="ast2" fill="none" stroke="#333" stroke-miterlimit="10" stroke-width=".413" d="M.4 2.7h7.3M4.2.3v9.9M7.8.3v9.9"/>
 <path class="ast3" fill="none" stroke="#333" stroke-miterlimit="10" stroke-width=".276" d="M1.5 1.5h1.6M1.5 3.8h1.6M1.5 5h1.6M1.5 6.2h1.6M1.5 7.3h1.6M1.5 8.5h1.6M5.2 1.5h1.6M5.2 3.8h1.6M5.2 5h1.6M5.2 6.2h1.6M5.2 7.3h1.6M5.2 8.5h1.6"/>
 <path class="ast4" fill="#fff" stroke="#221f1f" stroke-miterlimit="10" stroke-width=".85" d="M3.1 2.9h7.4V13H3.1z"/>
 <path class="ast5" fill="none" stroke="#221f1f" stroke-miterlimit="10" stroke-width=".276" d="M4.2 5H9M4.2 6.4H9M4.2 7.9H9M4.2 9.3H9M4.2 10.8H9"/>
 </symbol>
 <symbol id="icon-more" viewBox="0 0 24 24">
  <!-- <title>more</title> -->
  <path d="M12,8 C13.1,8 14,7.1 14,6 C14,4.9 13.1,4 12,4 C10.9,4 10,4.9 10,6 C10,7.1 10.9,8 12,8 L12,8 Z M12,10 C10.9,10 10,10.9 10,12 C10,13.1 10.9,14 12,14 C13.1,14 14,13.1 14,12 C14,10.9 13.1,10 12,10 L12,10 Z M12,16 C10.9,16 10,16.9 10,18 C10,19.1 10.9,20 12,20 C13.1,20 14,19.1 14,18 C14,16.9 13.1,16 12,16 L12,16 Z"></path>
 </symbol>
</defs>
</svg>
