<svg style="position: absolute; width: 0; height: 0; overflow: hidden;" version="1.1" xmlns="http://www.w3.org/2000/svg" xmlns:xlink="http://www.w3.org/1999/xlink">
<defs>
<symbol id="icon-S3_bucket" viewBox="0 0 30 32">
<title>S3_bucket</title>
<path d="M29.867 4.267c0 2.356-6.686 4.267-14.933 4.267s-14.933-1.91-14.933-4.267c0-2.356 6.686-4.267 14.933-4.267s14.933 1.91 14.933 4.267z"></path>
<path d="M14.933 10.667c-7.733 0-14.091-1.259-14.859-2.869l5.259 22.069c0 1.173 4.267 2.133 9.6 2.133s9.6-0.96 9.6-2.133l5.259-22.069c-0.768 1.611-7.125 2.869-14.859 2.869z"></path>
</symbol>
<symbol id="icon-file-o" viewBox="0 0 24 28">
<title>file-o</title>
<path d="M22.937 5.938c0.578 0.578 1.062 1.734 1.062 2.562v18c0 0.828-0.672 1.5-1.5 1.5h-21c-0.828 0-1.5-0.672-1.5-1.5v-25c0-0.828 0.672-1.5 1.5-1.5h14c0.828 0 1.984 0.484 2.562 1.062zM16 2.125v5.875h5.875c-0.094-0.266-0.234-0.531-0.344-0.641l-4.891-4.891c-0.109-0.109-0.375-0.25-0.641-0.344zM22 26v-16h-6.5c-0.828 0-1.5-0.672-1.5-1.5v-6.5h-12v24h20z"></path>
</symbol>
<symbol id="icon-folder-o" viewBox="0 0 26 28">
<title>folder-o</title>
<path d="M24 20.5v-11c0-0.828-0.672-1.5-1.5-1.5h-11c-0.828 0-1.5-0.672-1.5-1.5v-1c0-0.828-0.672-1.5-1.5-1.5h-5c-0.828 0-1.5 0.672-1.5 1.5v15c0 0.828 0.672 1.5 1.5 1.5h19c0.828 0 1.5-0.672 1.5-1.5zM26 9.5v11c0 1.922-1.578 3.5-3.5 3.5h-19c-1.922 0-3.5-1.578-3.5-3.5v-15c0-1.922 1.578-3.5 3.5-3.5h5c1.922 0 3.5 1.578 3.5 3.5v0.5h10.5c1.922 0 3.5 1.578 3.5 3.5z"></path>
</symbol>
<symbol id="icon-google" viewBox="0 0 24 28">
<title>google</title>
<path d="M12 12.281h11.328c0.109 0.609 0.187 1.203 0.187 2 0 6.844-4.594 11.719-11.516 11.719-6.641 0-12-5.359-12-12s5.359-12 12-12c3.234 0 5.953 1.188 8.047 3.141l-3.266 3.141c-0.891-0.859-2.453-1.859-4.781-1.859-4.094 0-7.438 3.391-7.438 7.578s3.344 7.578 7.438 7.578c4.75 0 6.531-3.406 6.813-5.172h-6.813v-4.125z"></path>
</symbol>
<symbol id="icon-directives" viewBox="0 0 32 32">
<title>directives</title>
<path d="M28.726 0.206h-22.779c-1.714 0-3.137 1.405-3.137 3.137v2.862h2.468c0.411-0.326 0.926-0.514 1.474-0.514 1.32 0 2.4 1.080 2.4 2.4s-1.080 2.4-2.4 2.4c-0.566 0-1.080-0.189-1.474-0.514h-2.451v4.114h2.64c0.411-0.326 0.926-0.514 1.474-0.514 1.32 0 2.4 1.080 2.4 2.4s-1.080 2.4-2.4 2.4c-0.566 0-1.080-0.189-1.474-0.514h-2.64v4.114h2.64c0.411-0.326 0.926-0.514 1.474-0.514 1.32 0 2.4 1.080 2.4 2.4s-1.080 2.4-2.4 2.4c-0.566 0-1.080-0.189-1.474-0.514h-2.64v3.034c0 1.714 1.405 3.137 3.137 3.137h22.762c1.714 0 3.137-1.405 3.137-3.137v-25.453c-0.017-1.714-1.423-3.119-3.137-3.119zM24.116 22.487c-1.663 1.663-4.422 2.571-7.884 2.571-1.645 0-3.017-0.086-4.182-0.206v-17.568c1.405-0.206 3.068-0.377 4.902-0.377 3.308 0 5.673 0.771 7.233 2.228 1.594 1.457 2.52 3.531 2.52 6.41-0.017 2.914-0.926 5.296-2.588 6.942z"></path>
<path d="M17.037 8.741c-1.2 0-2.091 0.103-2.708 0.24v14.089c0.583 0.103 1.423 0.137 2.331 0.137 4.919 0 7.593-2.759 7.593-7.576 0.051-4.216-2.348-6.89-7.216-6.89z"></path>
<path d="M6.136 9.29h-4.919c-0.634 0-1.148-0.514-1.148-1.148v-0.12c0-0.634 0.514-1.148 1.148-1.148h4.919c0.634 0 1.148 0.514 1.148 1.148v0.12c0 0.634-0.514 1.148-1.148 1.148z"></path>
<path d="M6.136 17.174h-4.919c-0.634 0-1.148-0.514-1.148-1.148v-0.12c0-0.634 0.514-1.148 1.148-1.148h4.919c0.634 0 1.148 0.514 1.148 1.148v0.12c0 0.634-0.514 1.148-1.148 1.148z"></path>
<path d="M6.136 25.058h-4.919c-0.634 0-1.148-0.514-1.148-1.148v-0.12c0-0.634 0.514-1.148 1.148-1.148h4.919c0.634 0 1.148 0.514 1.148 1.148v0.12c0 0.634-0.514 1.148-1.148 1.148z"></path>
</symbol>
<symbol id="icon-sliders" viewBox="0 0 12 14">
<title>sliders</title>
<path d="M2.75 11v1h-2.75v-1h2.75zM5.5 10c0.273 0 0.5 0.227 0.5 0.5v2c0 0.273-0.227 0.5-0.5 0.5h-2c-0.273 0-0.5-0.227-0.5-0.5v-2c0-0.273 0.227-0.5 0.5-0.5h2zM6.75 7v1h-6.75v-1h6.75zM1.75 3v1h-1.75v-1h1.75zM12 11v1h-5.75v-1h5.75zM4.5 2c0.273 0 0.5 0.227 0.5 0.5v2c0 0.273-0.227 0.5-0.5 0.5h-2c-0.273 0-0.5-0.227-0.5-0.5v-2c0-0.273 0.227-0.5 0.5-0.5h2zM9.5 6c0.273 0 0.5 0.227 0.5 0.5v2c0 0.273-0.227 0.5-0.5 0.5h-2c-0.273 0-0.5-0.227-0.5-0.5v-2c0-0.273 0.227-0.5 0.5-0.5h2zM12 7v1h-1.75v-1h1.75zM12 3v1h-6.75v-1h6.75z"></path>
</symbol>
<symbol id="icon-line-chart" viewBox="0 0 16 14">
<title>line-chart</title>
<path d="M16 12v1h-16v-12h1v11h15zM15 2.25v3.398c0 0.219-0.266 0.336-0.43 0.172l-0.945-0.945-4.945 4.945c-0.102 0.102-0.258 0.102-0.359 0l-1.82-1.82-3.25 3.25-1.5-1.5 4.57-4.57c0.102-0.102 0.258-0.102 0.359 0l1.82 1.82 3.625-3.625-0.945-0.945c-0.164-0.164-0.047-0.43 0.172-0.43h3.398c0.141 0 0.25 0.109 0.25 0.25z"></path>
</symbol>
<symbol id="icon-cog-empty" viewBox="0 0 32 32">
<title>cog-empty</title>
<path stroke-width="1.9692" stroke-miterlimit="10" stroke-linecap="butt" stroke-linejoin="miter" d="M30.031 13.292l-3.2-0.492c-0.246-0.246-0.492-0.492-0.738-0.738 0-0.246-0.246-0.492-0.246-0.492 0-0.246 0-0.492 0-0.738 0.492-0.738 1.969-2.708 1.969-2.708 0.246-0.246 0.246-0.985 0-1.231l-2.708-2.708c-0.246-0.246-0.985-0.246-1.231 0l-2.462 1.969c-0.246 0-0.492 0-0.985 0-0.246-0.246-0.738-0.246-0.985-0.492-0.246 0-0.246-0.246-0.246-0.492 0-0.738-0.492-3.2-0.492-3.2 0-0.492-0.492-0.738-0.738-0.738h-3.938c-0.492 0-0.738 0.492-0.738 0.738l-0.738 3.446c0 0.246-0.246 0.246-0.492 0.492-0.246 0-0.492 0.246-0.985 0.492-0.246 0-0.492 0-0.492 0-0.738-0.492-2.708-1.969-2.708-1.969-0.246-0.246-0.985-0.246-1.231 0l-2.462 2.462c-0.246 0.492-0.246 0.985 0 1.231l1.969 2.708c0 0.246 0 0.492 0 0.738-0.246 0.492-0.246 0.738-0.492 0.985 0 0.246-0.246 0.246-0.246 0.246-0.738 0-3.2 0.492-3.2 0.492-0.492 0-0.738 0.492-0.738 0.738v3.692c0 0.492 0.492 0.738 0.738 0.738l3.2 0.492c0 0.492 0.246 0.738 0.492 0.985 0.246 0.492 0.246 0.738 0.492 0.985 0 0.246 0 0.492 0 0.492-0.492 0.492-1.969 2.708-1.969 2.708-0.246 0.246-0.246 0.985 0 1.231l2.708 2.708c0.246 0.246 0.985 0.246 1.231 0l2.708-1.969c0.246 0 0.738 0 0.985 0s0.492 0.246 0.738 0.246c0.246 0.246 0.492 0.246 0.492 0.492 0 0.738 0.492 3.2 0.492 3.2 0 0.492 0.492 0.738 0.738 0.738h3.692c0.492 0 0.738-0.492 0.738-0.738l0.492-3.2c0.246-0.246 0.246-0.246 0.492-0.492 0.492-0.246 0.738-0.246 1.231-0.492 0.246 0 0.246 0 0.492 0 0.738 0.492 2.708 1.969 2.708 1.969 0.246 0.246 0.985 0.246 1.231 0l2.708-2.708c0.246-0.246 0.246-0.985 0-1.231l-1.969-2.462c0-0.246 0-0.738 0-1.231 0-0.246 0.246-0.246 0.246-0.492 0.246-0.246 0.246-0.492 0.492-0.492 0.738 0 3.2-0.492 3.2-0.492 0.492 0 0.738-0.492 0.738-0.738v-3.938c-0.246-0.492-0.492-0.738-0.985-0.738zM16 21.169c-2.708 0-5.169-2.215-5.169-5.169 0-2.708 2.215-5.169 5.169-5.169s5.169 2.215 5.169 5.169c0 2.954-2.462 5.169-5.169 5.169z"></path>
</symbol>
<symbol id="icon-caret-left" viewBox="0 0 6 14">
<title>caret-left</title>
<path d="M5 3.5v7c0 0.273-0.227 0.5-0.5 0.5-0.133 0-0.258-0.055-0.352-0.148l-3.5-3.5c-0.094-0.094-0.148-0.219-0.148-0.352s0.055-0.258 0.148-0.352l3.5-3.5c0.094-0.094 0.219-0.148 0.352-0.148 0.273 0 0.5 0.227 0.5 0.5z"></path>
</symbol>
</defs>
</svg>
