<?xml version="1.0" encoding="utf-8"?>
<!-- Generator: Adobe Illustrator 23.0.3, SVG Export Plug-In . SVG Version: 6.00 Build 0)  -->
<svg version="1.1" id="Layer_1" xmlns="http://www.w3.org/2000/svg" xmlns:xlink="http://www.w3.org/1999/xlink" x="0px" y="0px"
	 viewBox="0 0 66.2 66.2" style="enable-background:new 0 0 66.2 66.2;" xml:space="preserve">
<style type="text/css">
	.st0{fill:#FFFFFF;}
	.st1{fill:#5C6689;}
	.st2{fill:none;stroke:#959DBB;stroke-width:3;stroke-miterlimit:10;}
</style>
<g>
	<path class="st0" d="M8.5,64.2c-3.6,0-6.5-2.9-6.5-6.5V8.5C2,4.9,4.9,2,8.5,2h49.2c3.6,0,6.5,2.9,6.5,6.5v49.2
		c0,3.6-2.9,6.5-6.5,6.5H8.5z"/>
	<path class="st1" d="M57.7,4c2.5,0,4.5,2,4.5,4.5v49.2c0,2.5-2,4.5-4.5,4.5H8.5c-2.5,0-4.5-2-4.5-4.5V8.5C4,6,6,4,8.5,4H57.7
		 M57.7,0H8.5C3.8,0,0,3.8,0,8.5v49.2c0,4.7,3.8,8.5,8.5,8.5h49.2c4.7,0,8.5-3.8,8.5-8.5V8.5C66.2,3.8,62.4,0,57.7,0L57.7,0z"/>
</g>
<path class="st2" d="M55,29.2l-5-0.8c-0.4-0.3-0.8-0.7-1.1-1.2c-0.1-0.3-0.3-0.6-0.4-0.9c-0.1-0.5-0.2-0.9,0-1.1c0.7-1,3-4.1,3-4.1
	c0.5-0.5,0.5-1.4,0-1.9l-4.1-4.1c-0.5-0.5-1.4-0.5-1.9,0l-4,2.9c-0.4,0.1-0.9,0.1-1.4,0c-0.6-0.2-1.1-0.5-1.7-0.7
	c-0.3-0.2-0.4-0.4-0.5-0.6c-0.2-1.2-0.8-5-0.8-5c0-0.7-0.6-1.3-1.3-1.3h-5.7c-0.7,0-1.3,0.6-1.3,1.3l-0.8,5
	c-0.2,0.3-0.6,0.6-0.9,0.9c-0.5,0.2-0.9,0.4-1.4,0.6c-0.4,0.1-0.7,0.1-0.9-0.1c-1-0.7-4.1-3-4.1-3c-0.5-0.5-1.4-0.5-1.9,0l-4.1,4.1
	c-0.5,0.5-0.5,1.4,0,1.9l3.1,4.2c0,0.4,0,0.8-0.1,1.2c-0.2,0.4-0.4,0.9-0.5,1.4c-0.2,0.3-0.4,0.5-0.7,0.6c-1.2,0.2-5,0.8-5,0.8
	c-0.7,0-1.3,0.6-1.3,1.3v5.7c0,0.7,0.6,1.3,1.3,1.3l5,0.8c0.3,0.2,0.6,0.5,0.8,0.8c0.2,0.6,0.5,1.2,0.8,1.7c0,0.3,0,0.6-0.1,0.7
	c-0.7,1-3,4.1-3,4.1c-0.5,0.5-0.5,1.4,0,1.9l4.1,4.1c0.5,0.5,1.4,0.5,1.9,0l4-2.9c0.5-0.1,1,0,1.5,0.1c0.4,0.2,0.8,0.3,1.2,0.5
	c0.4,0.2,0.6,0.5,0.6,0.7c0.2,1.2,0.8,5,0.8,5c0,0.7,0.6,1.3,1.3,1.3h5.7c0.7,0,1.3-0.6,1.3-1.3l0.8-5c0.2-0.3,0.4-0.5,0.7-0.7
	c0.6-0.2,1.2-0.5,1.8-0.8c0.3,0,0.5,0,0.7,0.1c1,0.7,4.1,3,4.1,3c0.5,0.5,1.4,0.5,1.9,0l4.1-4.1c0.5-0.5,0.5-1.4,0-1.9l-2.9-3.9
	c-0.1-0.5-0.1-1.2,0.1-1.7c0.1-0.3,0.2-0.6,0.3-0.8c0.2-0.5,0.5-0.8,0.8-0.9c1.2-0.2,5-0.8,5-0.8c0.7,0,1.3-0.6,1.3-1.3v-5.7
	C56.3,29.8,55.7,29.2,55,29.2z M33.4,41.5c-4.4,0-7.9-3.6-7.9-7.9c0-4.4,3.6-7.9,7.9-7.9s7.9,3.6,7.9,7.9
	C41.3,37.9,37.7,41.5,33.4,41.5z"/>
</svg>
