<?xml version="1.0" encoding="utf-8"?>
<!-- Generator: Adobe Illustrator 19.1.0, SVG Export Plug-In . SVG Version: 6.00 Build 0)  -->
<svg version="1.1" id="Layer_2" xmlns="http://www.w3.org/2000/svg" xmlns:xlink="http://www.w3.org/1999/xlink" x="0px" y="0px"
	 viewBox="0 0 580 493" style="enable-background:new 0 0 580 493;" xml:space="preserve">
<style type="text/css">
	.st0{fill:#FF6600;}
</style>
<g>
	<g>
		<path class="st0" d="M580,361h-28.3l-53.2,62.2l-0.1-62.2h-21.7v132h21.6v-37l16.6-19.2l38.6,56.2l26.1,0l-50.1-73.1L580,361z
			 M0,379.9v94c26.4,25.6,68,25.3,94.4,0v-29.4H72.8v18.6c-11.5,11.5-40.2,11.1-51.3,0v-72.2c11.6-11.6,39.6-11.4,51.3,0v18.5h21.6
			v-29.5C68,354.6,26.4,354.6,0,379.9z M345.9,416.2c-8.3-9.2-8-25.6,0-34h48.8l11.4-21.3h-72.2c-20.6,20.6-20.9,56.2-0.3,76.6h50.8
			c8.3,9.3,8,25.6-0.1,34h-51.8l-11.4,21.3h75.3c20.6-20.6,20.9-56.2,0.3-76.7H345.9z M159.2,379.9V493h21.6v-33.9H232V493l21.6,0
			V379.8C227.1,354.6,185.6,354.6,159.2,379.9z M232,437.6h-51.3l0.1-46.7c12.5-12.3,40.5-10.6,51.3,0V437.6z M390.5,42.1
			c-58.7-56.2-151.2-56.2-210,0v182.4c58.7,57,151.2,56.2,210,0V42.1z M357.5,106.6h-33V78.5c-17.7-17.4-60.4-17.7-78.1,0v110.1
			c16.8,16.9,60.6,17.6,78.1,0v-28.3h33V205c-40.3,38.5-103.7,39.1-144,0V61.6c40.3-38.5,103.7-38.5,144,0V106.6z"/>
	</g>
</g>
</svg>
