<?xml version="1.0" encoding="utf-8"?>
<!-- Generator: Adobe Illustrator 21.0.1, SVG Export Plug-In . SVG Version: 6.00 Build 0)  -->
<svg version="1.1" id="Layer_2" xmlns="http://www.w3.org/2000/svg" xmlns:xlink="http://www.w3.org/1999/xlink" x="0px" y="0px"
	 viewBox="0 0 588.8 510.4" style="enable-background:new 0 0 588.8 510.4;" xml:space="preserve">
<style type="text/css">
	.st0{fill:#FFFFFF;}
</style>
<g>
	<g>
		<g>
			<path class="st0" d="M115,371.4c-32.2-31-82.9-31-115,0V487c32.2,31.5,82.9,31,115,0v-36.1H88.7v22.8c-14,14.1-49,13.6-62.4,0
				V385c14.1-14.3,48.3-14,62.4,0v22.7H115V371.4z"/>
			<path class="st0" d="M253.5,348.1h-96.2v162.1h96.2C280.7,462.7,280.7,395.7,253.5,348.1z M235.2,484.1h-51.6V374.5h51.6
				C251.6,403.2,251.6,455.3,235.2,484.1z"/>
			<path class="st0" d="M340.9,468.8h62.4v41.6h26.3v-139c-32.2-31-82.9-31-115,0v139h26.3V468.8z M340.9,385
				c15.2-15.2,49.4-13.1,62.4,0v57.4h-62.5L340.9,385z"/>
			<path class="st0" d="M565.9,348.1H471v162.3h26.3v-47.1h68.6C596.5,431.5,596.5,379.9,565.9,348.1z M551.9,436.9h-54.7v-62.5
				h54.7C567.1,389.7,565,423.9,551.9,436.9z"/>
		</g>
	</g>
	<path class="st0" d="M286.8,261.6l128.7-37.1V50.8L364.1,0H197.8l-65.6,38.3v84.2l22.1,81.2h102.3L286.8,261.6z M304.8,225.7
		l-10.1-22.2h86.7L304.8,225.7z M381.3,169.1l-30.8,0.1V77.5L321,89.3v79.9h-33.3v-80L258.2,101v68.2h-33.4V101l-29.5,11.8v56.5
		h-14.9l-14-51.5v-60L207,34.1h143L381.3,65L381.3,169.1L381.3,169.1z"/>
</g>
</svg>
