<?xml version="1.0" encoding="utf-8"?>
<!-- Generator: Adobe Illustrator 23.0.3, SVG Export Plug-In . SVG Version: 6.00 Build 0)  -->
<svg version="1.1" id="Layer_1" xmlns="http://www.w3.org/2000/svg" xmlns:xlink="http://www.w3.org/1999/xlink" x="0px" y="0px"
	 viewBox="0 0 119.6 70.49" style="enable-background:new 0 0 119.6 70.49;" xml:space="preserve">
<style type="text/css">
	.st0{fill:#FFFFFF;}
	.st1{fill:none;stroke:#5C6689;stroke-width:3;stroke-miterlimit:10;}
	.st2{fill:none;stroke:#CDCCCC;stroke-width:2;stroke-miterlimit:10;}
	.st3{fill:#959DBB;}
</style>
<rect x="5" y="5" class="st0" width="111.08" height="62.13"/>
<line class="st1" x1="2.5" y1="18.52" x2="116.08" y2="18.52"/>
<line class="st1" x1="32.45" y1="2.5" x2="32.45" y2="69.66"/>
<line class="st1" x1="59.8" y1="2.5" x2="59.8" y2="69.66"/>
<line class="st1" x1="87.34" y1="2.5" x2="87.34" y2="69.66"/>
<line class="st2" x1="11.06" y1="10.69" x2="23.52" y2="10.69"/>
<line class="st2" x1="11.06" y1="26.36" x2="23.52" y2="26.36"/>
<line class="st2" x1="11.06" y1="34.2" x2="23.52" y2="34.2"/>
<line class="st2" x1="11.06" y1="42.03" x2="23.52" y2="42.03"/>
<line class="st2" x1="11.06" y1="49.87" x2="23.52" y2="49.87"/>
<line class="st2" x1="11.06" y1="57.71" x2="23.52" y2="57.71"/>
<line class="st2" x1="39.9" y1="10.69" x2="52.36" y2="10.69"/>
<line class="st2" x1="39.9" y1="26.36" x2="52.36" y2="26.36"/>
<line class="st2" x1="39.9" y1="34.2" x2="52.36" y2="34.2"/>
<line class="st2" x1="39.9" y1="42.03" x2="52.36" y2="42.03"/>
<line class="st2" x1="39.9" y1="49.87" x2="52.36" y2="49.87"/>
<line class="st2" x1="39.9" y1="57.71" x2="52.36" y2="57.71"/>
<line class="st2" x1="67.73" y1="10.69" x2="80.2" y2="10.69"/>
<line class="st2" x1="67.73" y1="26.36" x2="80.2" y2="26.36"/>
<line class="st2" x1="67.73" y1="34.2" x2="80.2" y2="34.2"/>
<line class="st2" x1="67.73" y1="42.03" x2="80.2" y2="42.03"/>
<line class="st2" x1="67.73" y1="49.87" x2="80.2" y2="49.87"/>
<line class="st2" x1="67.73" y1="57.71" x2="80.2" y2="57.71"/>
<line class="st2" x1="96.57" y1="10.69" x2="109.03" y2="10.69"/>
<line class="st2" x1="96.57" y1="26.36" x2="109.03" y2="26.36"/>
<line class="st2" x1="96.57" y1="34.2" x2="109.03" y2="34.2"/>
<line class="st2" x1="96.57" y1="42.03" x2="109.03" y2="42.03"/>
<line class="st2" x1="96.57" y1="49.87" x2="109.03" y2="49.87"/>
<line class="st2" x1="96.57" y1="57.71" x2="109.03" y2="57.71"/>
<path class="st3" d="M119.6,70.49H0V0h119.6V70.49z M5,65.49h109.6V5H5V65.49z"/>
</svg>
