<?xml version="1.0" encoding="utf-8"?>
<!-- Generator: Adobe Illustrator 23.0.3, SVG Export Plug-In . SVG Version: 6.00 Build 0)  -->
<svg version="1.1" id="Layer_1" xmlns="http://www.w3.org/2000/svg" xmlns:xlink="http://www.w3.org/1999/xlink" x="0px" y="0px"
	 viewBox="0 0 134.2 66.3" style="enable-background:new 0 0 134.2 66.3;" xml:space="preserve">
<style type="text/css">
	.st0{fill:#959DBB;}
	.st1{fill:#FFFFFF;}
	.st2{fill:#5C6689;}
</style>
<path class="st0" d="M46.8,56.9c-1,0-2.6-0.2-3.8-1.2c-0.9-0.8-1.4-1.8-1.4-3.1c-0.1-3.3-0.2-15.7-0.2-15.8c0-0.3-0.1-1.3-0.5-1.7
	c-0.1-0.1-0.4-0.3-0.9-0.3h-9.4v-3H40c1.2,0,2.3,0.4,3.1,1.2c1.4,1.5,1.4,3.6,1.4,3.8c0,0.1,0.1,12.4,0.2,15.7
	c0,0.6,0.2,0.8,0.4,0.9c0.6,0.5,1.8,0.5,2.2,0.5l0.2,0h56.9v3H47.5C47.4,56.9,47.1,56.9,46.8,56.9z"/>
<path class="st0" d="M39.3,34.7h-7.4v-3h7.4c0.6,0,0.8-0.2,0.9-0.3c0.5-0.5,0.5-1.4,0.5-1.6c0-0.2,0.1-12.6,0.2-15.9
	c0-1.3,0.5-2.4,1.4-3.1c1.6-1.4,3.9-1.2,4.5-1.2h56.8v3l-57.1,0c-0.5-0.1-1.7,0-2.2,0.5c-0.2,0.1-0.3,0.4-0.3,0.9
	c-0.1,3.3-0.2,15.7-0.2,15.8c0,0.2,0,2.3-1.4,3.8C41.6,34.3,40.5,34.7,39.3,34.7z"/>
<g>
	<path class="st1" d="M3.7,42C2.8,42,2,41.3,2,40.4V25.7C2,24.8,2.8,24,3.7,24h24.4c0.9,0,1.7,0.8,1.7,1.7v14.7
		c0,0.9-0.8,1.7-1.7,1.7H3.7z"/>
	<path class="st2" d="M27.8,26v14H4V26H27.8 M28.1,22H3.7c-2,0-3.7,1.6-3.7,3.7v14.7c0,2,1.6,3.7,3.7,3.7h24.4c2,0,3.7-1.6,3.7-3.7
		V25.7C31.8,23.6,30.2,22,28.1,22L28.1,22z"/>
</g>
<g>
	<path class="st1" d="M57.6,20c-0.9,0-1.7-0.8-1.7-1.7V3.7c0-0.9,0.8-1.7,1.7-1.7H82c0.9,0,1.7,0.8,1.7,1.7v14.7
		c0,0.9-0.8,1.7-1.7,1.7H57.6z"/>
	<path class="st2" d="M81.7,4v14H57.9V4H81.7 M82,0H57.6c-2,0-3.7,1.6-3.7,3.7v14.7c0,2,1.6,3.7,3.7,3.7H82c2,0,3.7-1.6,3.7-3.7V3.7
		C85.7,1.6,84,0,82,0L82,0z"/>
</g>
<g>
	<path class="st1" d="M106,20c-0.9,0-1.7-0.8-1.7-1.7V3.7c0-0.9,0.8-1.7,1.7-1.7h24.4c0.9,0,1.7,0.8,1.7,1.7v14.7
		c0,0.9-0.8,1.7-1.7,1.7H106z"/>
	<path class="st2" d="M130.2,4v14h-23.8V4H130.2 M130.5,0H106c-2,0-3.7,1.6-3.7,3.7v14.7c0,2,1.6,3.7,3.7,3.7h24.4
		c2,0,3.7-1.6,3.7-3.7V3.7C134.2,1.6,132.5,0,130.5,0L130.5,0z"/>
</g>
<g>
	<path class="st1" d="M57.6,64.3c-0.9,0-1.7-0.8-1.7-1.7V48c0-0.9,0.8-1.7,1.7-1.7H82c0.9,0,1.7,0.8,1.7,1.7v14.7
		c0,0.9-0.8,1.7-1.7,1.7H57.6z"/>
	<path class="st2" d="M81.7,48.3v14H57.9v-14H81.7 M82,44.3H57.6c-2,0-3.7,1.6-3.7,3.7v14.7c0,2,1.6,3.7,3.7,3.7H82
		c2,0,3.7-1.6,3.7-3.7V48C85.7,45.9,84,44.3,82,44.3L82,44.3z"/>
</g>
<g>
	<path class="st1" d="M106,64.3c-0.9,0-1.7-0.8-1.7-1.7V48c0-0.9,0.8-1.7,1.7-1.7h24.4c0.9,0,1.7,0.8,1.7,1.7v14.7
		c0,0.9-0.8,1.7-1.7,1.7H106z"/>
	<path class="st2" d="M130.2,48.3v14h-23.8v-14H130.2 M130.5,44.3H106c-2,0-3.7,1.6-3.7,3.7v14.7c0,2,1.6,3.7,3.7,3.7h24.4
		c2,0,3.7-1.6,3.7-3.7V48C134.2,45.9,132.5,44.3,130.5,44.3L130.5,44.3z"/>
</g>
</svg>
