<?xml version="1.0" encoding="utf-8"?>
<!-- Generator: Adobe Illustrator 23.0.3, SVG Export Plug-In . SVG Version: 6.00 Build 0)  -->
<svg version="1.1" id="ingest-tile" xmlns="http://www.w3.org/2000/svg" xmlns:xlink="http://www.w3.org/1999/xlink" x="0px" y="0px"
	 viewBox="0 0 131.4 53.3" style="enable-background:new 0 0 131.4 53.3;" xml:space="preserve">
<style type="text/css">
	.st0{fill:none;stroke:url(#SVGID_1_);stroke-width:2.6999;stroke-miterlimit:10;}
	.st1{fill:#959DBB;stroke:#CCCBCB;stroke-width:3;stroke-miterlimit:10;}
	.st2{fill:none;stroke:#CCCBCB;stroke-width:1.7394;stroke-miterlimit:10;}
	.st3{fill:none;stroke:#DDDDDC;stroke-width:1.1596;stroke-miterlimit:10;}
	.st4{fill:#FFFFFF;}
	.st5{fill:#8C8C8C;}
	.st6{fill:none;stroke:#DDDDDC;stroke-width:2.0071;stroke-miterlimit:10;}
	.st7{fill:#EEEEEE;stroke:#959DBB;stroke-width:3;stroke-miterlimit:10;}
	.st8{fill:none;stroke:#959DBB;stroke-width:1.7394;stroke-miterlimit:10;}
	.st9{fill:none;stroke:#CDCCCC;stroke-width:1.1596;stroke-miterlimit:10;}
	.st10{fill:#7B7B9E;}
	.st11{fill:none;stroke:#CDCCCC;stroke-width:2.0071;stroke-miterlimit:10;}
</style>
<linearGradient id="SVGID_1_" gradientUnits="userSpaceOnUse" x1="54.7583" y1="24.7718" x2="76.5664" y2="24.7718">
	<stop  offset="0" style="stop-color:#5C6689"/>
	<stop  offset="1" style="stop-color:#B9C0D7"/>
</linearGradient>
<path class="st0" d="M74.2,22.3l-8.5-7.2c-1.5-1.3-3.5,0.1-3.5,2.5V19h-6.1l0.1,11.5h5.9V32c0,2.4,2,3.8,3.5,2.5l8.5-7.2
	C75.6,26.1,75.6,23.4,74.2,22.3z"/>
<g>
	<rect x="1" y="1.1" class="st1" width="33.2" height="38"/>
	<line class="st2" x1="1" y1="10.4" x2="33.9" y2="10.4"/>
	<line class="st2" x1="18.4" y1="1.1" x2="18.4" y2="40.1"/>
	<line class="st2" x1="34.2" y1="1.1" x2="34.2" y2="40.1"/>
	<line class="st3" x1="6" y1="5.9" x2="13.2" y2="5.9"/>
	<line class="st3" x1="6" y1="15" x2="13.2" y2="15"/>
	<line class="st3" x1="6" y1="19.5" x2="13.2" y2="19.5"/>
	<line class="st3" x1="6" y1="24.1" x2="13.2" y2="24.1"/>
	<line class="st3" x1="6" y1="28.6" x2="13.2" y2="28.6"/>
	<line class="st3" x1="6" y1="33.1" x2="13.2" y2="33.1"/>
	<line class="st3" x1="22.7" y1="5.9" x2="29.9" y2="5.9"/>
	<line class="st3" x1="22.7" y1="15" x2="29.9" y2="15"/>
	<line class="st3" x1="22.7" y1="19.5" x2="29.9" y2="19.5"/>
	<line class="st3" x1="22.7" y1="24.1" x2="29.9" y2="24.1"/>
	<line class="st3" x1="22.7" y1="28.6" x2="29.9" y2="28.6"/>
	<line class="st3" x1="22.7" y1="33.1" x2="29.9" y2="33.1"/>
</g>
<g>
	<rect x="14.2" y="10.3" class="st4" width="20" height="29"/>
	<path class="st5" d="M32.8,11.7v26.1H15.6V11.7H32.8 M35.6,8.9H12.8v31.8h22.8V8.9L35.6,8.9z"/>
</g>
<rect x="16.1" y="12.3" class="st1" width="33.1" height="39.4"/>
<line class="st6" x1="20.8" y1="20.6" x2="42.4" y2="20.6"/>
<line class="st6" x1="20.8" y1="26.3" x2="42.4" y2="26.3"/>
<line class="st6" x1="20.8" y1="32" x2="42.4" y2="32"/>
<line class="st6" x1="20.8" y1="37.7" x2="42.4" y2="37.7"/>
<line class="st6" x1="20.8" y1="43.4" x2="42.4" y2="43.4"/>
<g>
	<rect x="81.4" y="1" class="st7" width="33.2" height="38"/>
	<line class="st8" x1="81.4" y1="10.3" x2="114.3" y2="10.3"/>
	<line class="st8" x1="98.7" y1="1" x2="98.7" y2="39.9"/>
	<line class="st8" x1="114.6" y1="1" x2="114.6" y2="39.9"/>
	<line class="st9" x1="86.3" y1="5.7" x2="93.6" y2="5.7"/>
	<line class="st9" x1="86.3" y1="14.8" x2="93.6" y2="14.8"/>
	<line class="st9" x1="86.3" y1="19.4" x2="93.6" y2="19.4"/>
	<line class="st9" x1="86.3" y1="23.9" x2="93.6" y2="23.9"/>
	<line class="st9" x1="86.3" y1="28.5" x2="93.6" y2="28.5"/>
	<line class="st9" x1="86.3" y1="33" x2="93.6" y2="33"/>
	<line class="st9" x1="103.1" y1="5.7" x2="110.3" y2="5.7"/>
	<line class="st3" x1="103.1" y1="14.8" x2="110.3" y2="14.8"/>
	<line class="st3" x1="103.1" y1="19.4" x2="110.3" y2="19.4"/>
	<line class="st3" x1="103.1" y1="23.9" x2="110.3" y2="23.9"/>
	<line class="st3" x1="103.1" y1="28.5" x2="110.3" y2="28.5"/>
	<line class="st3" x1="103.1" y1="33" x2="110.3" y2="33"/>
</g>
<g>
	<rect x="94.7" y="10.3" class="st4" width="20.2" height="28.4"/>
	<g>
		<path class="st10" d="M113.4,11.8v25.3H96.2V11.8H113.4 M116.4,8.7H93.2v31.4h23.2V8.7L116.4,8.7z"/>
	</g>
</g>
<rect x="96.4" y="12.1" class="st7" width="33.1" height="39.4"/>
<line class="st11" x1="101.2" y1="20.5" x2="122.8" y2="20.5"/>
<line class="st11" x1="101.2" y1="26.2" x2="122.8" y2="26.2"/>
<line class="st11" x1="101.2" y1="31.8" x2="122.8" y2="31.8"/>
<line class="st11" x1="101.2" y1="37.5" x2="122.8" y2="37.5"/>
<line class="st11" x1="101.2" y1="43.2" x2="122.8" y2="43.2"/>
</svg>
