<?xml version="1.0" encoding="utf-8"?>
<!-- Generator: Adobe Illustrator 23.0.3, SVG Export Plug-In . SVG Version: 6.00 Build 0)  -->
<svg version="1.1" id="Layer_1" xmlns="http://www.w3.org/2000/svg" xmlns:xlink="http://www.w3.org/1999/xlink" x="0px" y="0px"
	 viewBox="0 0 71 60" style="enable-background:new 0 0 71 60;" xml:space="preserve">
<style type="text/css">
	.st0{fill:#FFFFFF;}
	.st1{fill:#5E6888;}
	.st2{fill:#B9C0D7;}
</style>
<polygon class="st0" points="1.7,31.6 26.1,56 55.5,27.6 55.5,3.8 50.9,2.4 29.4,2.4 "/>
<g>
	<path class="st1" d="M36.2,41.2H25.1c-1,0-1.9-0.9-1.9-1.9c0-1,0.9-1.9,1.9-1.9h7.3v-7.3c0-1,0.9-1.9,1.9-1.9c1,0,1.9,0.9,1.9,1.9
		V41.2z"/>
</g>
<g>
	<path class="st1" d="M18.2,34.2c-1,0-1.9-0.9-1.9-1.9V21.1h11.2c1,0,1.9,0.9,1.9,1.9c0,1-0.9,1.9-1.9,1.9h-7.3v7.3
		C20.1,33.3,19.3,34.2,18.2,34.2z"/>
</g>
<g>
	<path class="st1" d="M26.3,57.5c-1.7,0-3.2-0.7-4.4-1.9L2,35.8c-2.5-2.5-2.5-6.5,0-8.9L27.6,1.4c2.6-2.6,23.8-1.2,24-1.2l0,0
		c3,0.3,5.3,2.5,5.5,5.6c0,0.2,1.8,21.5-0.9,24.2L30.7,55.6C29.6,56.8,28,57.5,26.3,57.5L26.3,57.5z M40.1,4c-4.8,0-9,0.2-10,0.6
		L5,29.9c-0.8,0.8-0.8,2.1,0,3l19.8,19.8c0.4,0.4,0.9,0.6,1.5,0.6l0,0c0.5,0,1.1-0.2,1.5-0.6l25.5-25.5c0.4-1.4,0.4-13.6-0.3-20.8
		c-0.1-1.1-0.8-1.8-1.8-1.9C48.1,4.2,44,4,40.1,4z"/>
</g>
<g>
	<path class="st1" d="M45.3,17.9L45.3,17.9c-1.5,0-2.9-0.6-3.9-1.6c-1-1-1.6-2.5-1.6-3.9s0.6-2.9,1.6-3.9c2.1-2.1,5.8-2.1,7.9,0
		c1,1,1.6,2.5,1.6,3.9s-0.6,2.9-1.6,3.9l0,0l0,0l0,0C48.1,17.3,46.8,17.9,45.3,17.9z M45.3,9.5c-0.8,0-1.5,0.3-2,0.8
		c-0.5,0.5-0.8,1.2-0.8,2s0.3,1.4,0.8,2c0.5,0.5,1.2,0.8,2,0.8l0,0c0.8,0,1.4-0.3,2-0.8l0,0c0.5-0.5,0.8-1.2,0.8-2s-0.3-1.4-0.8-2
		C46.7,9.9,46,9.5,45.3,9.5z"/>
</g>
<path class="st2" d="M60.9,8c0.5,7.2,0.7,20.5-0.5,21.7L34.8,55.3v0.1c0,2.3,1.9,4.2,4.2,4.2h28c2.3,0,4.2-1.9,4.2-4.2V19.3
	C71.2,18.1,65.9,12.6,60.9,8z"/>
</svg>
