<?xml version="1.0" encoding="utf-8"?>
<!-- Generator: Adobe Illustrator 23.0.3, SVG Export Plug-In . SVG Version: 6.00 Build 0)  -->
<svg version="1.1" id="Layer_1" xmlns="http://www.w3.org/2000/svg" xmlns:xlink="http://www.w3.org/1999/xlink" x="0px" y="0px"
	 viewBox="0 0 71 60" style="enable-background:new 0 0 71 60;" xml:space="preserve">
<style type="text/css">
	.st0{fill:#B9C0D7;}
	.st1{fill:#FFFFFF;stroke:#5E6888;stroke-width:4.1496;stroke-miterlimit:10;}
	.st2{fill:none;stroke:#5E6888;stroke-width:4.1496;stroke-miterlimit:10;}
</style>
<path class="st0" d="M69.9,29l-8.9-6.6c-1.7-1.1-3.9,0-3.9,2.2v1.7h-6.1v10h6.1v1.1c0,2.2,2.2,3.3,3.9,2.2l8.9-6.1
	C71.4,32,71.4,30,69.9,29z"/>
<path class="st0" d="M54.1,44l-8.9-6.6c-1.7-1.1-3.9,0-3.9,2.2v1.7h-6.1v10h6.1v1.1c0,2.2,2.2,3.3,3.9,2.2l8.9-6.1
	C55.6,47.1,55.6,45.1,54.1,44z"/>
<path class="st0" d="M54.1,13.8l-8.9-6.6c-1.7-1.1-3.9,0-3.9,2.2V11h-5.9l0,10h5.8v1.1c0,2.2,2.2,3.3,3.9,2.2l8.9-6.1
	C55.6,16.9,55.6,14.8,54.1,13.8z"/>
<path class="st1" d="M36.2,35.4v15.5l0,0c0,3.9-7.7,7.2-17.2,7.2S1.9,54.8,1.9,50.9V35.4"/>
<path class="st2" d="M33.8,31.2c1.5,1.1,2.3,2.3,2.3,3.6c0,4-7.7,7.2-17.2,7.2S1.9,38.8,1.9,34.9c0-1.3,0.8-2.5,2.3-3.6"/>
<path class="st1" d="M36.2,10.3v16l0,0c0,3.9-7.7,7.2-17.2,7.2S1.9,30.3,1.9,26.4v-16"/>
<ellipse class="st1" cx="19" cy="10.3" rx="17.2" ry="7.2"/>
</svg>
